<?xml version="1.0" standalone="no"?>
<!DOCTYPE svg PUBLIC "-//W3C//DTD SVG 1.1//EN" "http://www.w3.org/Graphics/SVG/1.1/DTD/svg11.dtd" >
<svg xmlns="http://www.w3.org/2000/svg">
<metadata></metadata>
<defs>
<font id="parcelregular" horiz-adv-x="782" >
<font-face units-per-em="2048" ascent="1638" descent="-410" />
<missing-glyph horiz-adv-x="557" />
<glyph horiz-adv-x="2048" />
<glyph horiz-adv-x="2048" />
<glyph unicode="&#xd;" horiz-adv-x="2048" />
<glyph unicode=" "  horiz-adv-x="557" />
<glyph unicode="&#x09;" horiz-adv-x="557" />
<glyph unicode="&#xa0;" horiz-adv-x="557" />
<glyph unicode="!" horiz-adv-x="387" d="M102 410l13 24l-4 35l12 92l4 266l-8 19l8 20v166l6 27l41 57l33 14l22 -8l13 -18l20 -88l17 -15l-17 -40l-4 -87l-4 -22l12 -14l-4 -78l8 -19l4 -45l9 -8l-9 -20l13 -60l-17 -41l13 -16l-9 -29v-41l7 -4v-12l-23 -25l12 -63l-8 -98l-59 -25l-43 25l-45 67zM127 37v69 l16 31l31 19l64 -4l34 -23l19 -49l-15 -57l-30 -31l-92 2z" />
<glyph unicode="&#x22;" horiz-adv-x="718" d="M102 743l17 113l-10 25l-3 34v27l-4 76l9 69l16 23l53 23l56 -9l61 -86v-63v-35l-14 -70l20 -26l4 -101l-18 -47l-19 -18l-51 -6l-33 -15l-57 13l-18 24zM410 1053l18 45l18 18l52 6l32 15l58 -13l18 -22l8 -51l-16 -111l10 -27l2 -34v-27l4 -76l-8 -69l-16 -23l-53 -22 l-56 10l-61 84v63v35l14 72l-20 24z" />
<glyph unicode="#" horiz-adv-x="1034" d="M98 457l11 55l26 37l37 14l88 -6l37 43l22 80l15 31l-2 12l-23 12h-59l-17 17h-12l-16 22l8 57l8 21l21 18l131 4l63 64v47l10 4l13 29l2 55l39 45l55 19l39 -9l29 -34v-41l-25 -52l-25 -30l-30 -105v-14l12 -12l68 4l34 26l13 13l8 45l12 18l4 51l13 17v28l28 62l49 41 l37 -12l39 -52l-6 -84l-16 -51l-33 -80l16 -16l60 -6l37 -21l14 -28l-6 -39l-25 -41l-29 -19l-81 -4l-25 -8l-31 -37l-41 -98v-12l17 -13l55 -4l25 -8l20 -43l-2 -59l-31 -31l-43 -12l-96 -2l-33 -43l-8 -60l-12 -16l-11 -39l-24 -64l-8 -39l-39 -84l-58 -36l-86 12l-14 41 l10 61l13 6l16 64l31 39l4 31l20 32v31l33 64v24l-24 21l-80 -4l-35 -39l-12 -84l-17 -33l-4 -74l-33 -84l-6 -24l-53 -68h-68l-39 41l7 72l12 18l2 31l22 37l9 28l55 146l4 28l-59 21l-33 4zM420 578l12 -41h84l43 41v12l41 115l-6 10l-14 8l-76 4l-12 -4l-39 -39l-7 -51 l-18 -21z" />
<glyph unicode="$" horiz-adv-x="731" d="M102 799l27 37v16l37 74l37 45l65 37l15 -7l18 15v57l27 55l47 29l12 6l29 -10l33 -29v-20l-19 -31l8 -26l-6 -25l6 -6l13 4l45 -21l82 -57l45 -68l12 -59l-12 -61l-17 -27l-33 -12l-51 6l-37 45l-24 51l-17 19l-10 -9l15 -65l-11 -25l11 -32l-19 -87l4 -26l129 -117 l39 -45l16 -20l23 -80v-33l-4 -35l-8 -55l-29 -66l-57 -51l-27 -12l-41 -27l-20 -10l-11 -41l-10 -12l10 -29l-47 -29l-32 9l-33 28l-25 78l-2 6l-31 29l-16 6h-20l-33 31h-12l-50 71l-16 48l4 12l-2 16v29l12 33l35 51l53 4l27 -16l18 -39l21 -35l2 -15l6 -4l6 11l-4 194 l-10 12l-19 5l-47 36l-45 80l4 6h-12l-18 17h-21l-22 127v22zM268 748l8 -19l23 -27l6 129l-8 11l-29 -39v-55zM428 373l10 -54v-98l29 37l6 14l-6 52l-8 22z" />
<glyph unicode="%" horiz-adv-x="905" d="M102 907l2 74l23 72l45 41l45 22l29 4l26 2l43 -2l52 -28l43 -48l10 -30l6 -70l-2 -63l-6 -39l-29 -62l-65 -35l-66 -12l-72 27l-41 10l-2 35l-30 55zM160 55l47 121l35 80l20 53l223 592l31 117l33 100l43 33l35 6l51 -20l10 -93l-51 -159l-84 -230l-57 -153l-56 -168 l-57 -156l-4 -39l-35 -102l-31 -35l-45 -29l-20 -6l-72 33zM219 922l12 -43l17 -23l20 -8h13l16 12l12 23l4 55l-12 51l-16 15l-19 2l-16 -5l-19 -14zM469 223l20 58l29 34l33 35l35 4l45 13h26l43 -9l60 -32l33 -88l10 -66l-2 -55l-17 -64l-32 -43l-60 -26l-45 -13l-65 11 l-52 28l-45 60l-14 41zM586 158l4 -21l18 -33l25 -12h16l29 12l6 9l6 75l-10 39l-14 15l-25 4l-20 -2l-23 -11l-8 -14z" />
<glyph unicode="&#x26;" horiz-adv-x="944" d="M102 223l13 94l4 72l22 80l21 63l24 33l25 29l33 24l22 33l-4 25l-31 39l-34 88l-11 67l2 84l68 101l47 39l62 34l47 9l39 14l45 -14l84 -15l8 -32l39 -25l18 -31l6 -100l-30 -45l-62 -4l-45 43l-41 71l-27 2l-53 -26l-24 -25l-4 -106l8 -49l39 -60l28 -69l39 -58l45 -57 l29 -43l18 55l9 55l22 39l37 17l57 -8l66 8l57 -6l21 -31l2 -53l-2 -54l-21 -30l-55 -13l-59 -10l-35 -61l-19 -72l17 -31l18 -45l57 -51l31 -31l12 -10l56 -37l12 -43l-12 -37l-33 -39h-33h-67l-66 43l-72 62l-2 4l-12 -16l-20 -37l-70 -56l-55 -32l-80 -4l-39 8l-60 18 l-69 45l-43 84l-8 35l2 25zM256 246l23 -33l12 -45l22 -14l64 8l31 24l36 54l19 43l2 4l-23 78l-73 100l-35 8l-12 -10l-23 -29l-20 -39l-7 -57l7 -35l-19 -18z" />
<glyph unicode="'" horiz-adv-x="428" d="M102 715l17 112l-8 25l-5 35v26l-4 78l9 74l18 25l59 24l62 -10l65 -90v-66v-37l-14 -67l21 -23l4 -108l-21 -49l-22 -23l-52 -6l-34 -14l-64 14l-22 27z" />
<glyph unicode="(" horiz-adv-x="464" d="M98 797l13 53l-9 12l25 148l45 61v14l41 15l37 37l74 24l26 -18l15 -51l-3 -62l-38 -33l-41 -41l-13 -102v-369l9 -20v-92l16 -189l24 -51l37 -29l45 -38l9 -58l-25 -47l-78 8l-53 31l-61 49l-21 23l-8 26l-21 68l-8 12l-8 45l-12 33v125l-13 57l13 45l4 92l-8 17l-5 188 z" />
<glyph unicode=")" horiz-adv-x="497" d="M90 1098l25 47l78 -8l51 -31l61 -49l21 -25l10 -24l20 -17l9 -12l8 -45l12 -33v-72l12 -122l-12 -45l-6 -136l8 -16l6 -148l6 -16l-12 -53l10 -12l-24 -156l-47 -62v-14l-41 -16l-35 -37l-76 -25l-27 19l-12 51l2 61l37 35l41 41l14 82v356l-8 21v207l-18 78l-23 49 l-37 30l-45 39z" />
<glyph unicode="*" horiz-adv-x="874" d="M94 848l10 78l46 32l63 -10l63 -30l54 -33l18 6l12 20l-10 107l6 69l15 46l35 18l53 10l22 -37l25 -51l-6 -119l12 -47h43l72 41l63 13h51l33 -60l-10 -51l-55 -53l-109 -56l-2 -16l35 -61l65 -125l2 -37l-28 -31l-27 -10l-53 -12l-41 43l-41 65l-31 41l-30 37h-13 l-37 -70l-59 -88l-59 -26l-33 -7l-51 41l-9 37l13 39l94 152l-19 37l-79 10l-95 28z" />
<glyph unicode="+" horiz-adv-x="903" d="M102 475l23 62l39 45l39 14l86 -16l86 14h12v127l-2 55v37l21 18l71 21l37 -8l25 -47l-4 -80l2 -125h137h71l37 -43l19 -55l-10 -25l-33 -37l-123 -12h-94l2 -135l-4 -107l-13 -20l-55 -31h-16l-60 68l-16 98l8 65v62h-92l-27 -8l-88 8h-30z" />
<glyph unicode="," horiz-adv-x="471" d="M43 -147l88 157v41l-29 43v74l21 53l31 43l51 2h31l4 6l84 -36l47 -72l-11 -86l-24 -37v-16h-12l-162 -185l-76 -51l-43 39v25z" />
<glyph unicode="-" horiz-adv-x="786" d="M102 598l13 53l49 41l106 10l25 3l330 -9l59 -63l-10 -25v-39l-53 -32l-232 8l-207 -17l-61 17z" />
<glyph unicode="." horiz-adv-x="419" d="M102 96l4 88l21 43l47 25l80 -10l47 -25l25 -80l-13 -88l-82 -84l-49 -8l-24 8l-23 23l-16 41z" />
<glyph unicode="/" horiz-adv-x="606" d="M27 27l4 39l94 219l49 125l127 315l49 137l29 66l22 78l62 127l29 22l40 -2l25 -18l16 -23l-8 -57l-28 -74l-13 -49l-20 -53l-12 -17l-11 -82l-20 -35l-6 -32l-21 -37l-6 -60l-20 -22l-15 -53l-20 -41l-23 -115l-39 -49l-84 -236l-45 -94l-53 -37l-33 -12l-55 33z" />
<glyph unicode="0" horiz-adv-x="759" d="M102 313v525l15 120l20 46l51 61l95 65l63 15l107 -8l30 -15l45 -20l60 -51l53 -99l18 -143l-4 -150l-8 -36l8 -62l-8 -82l-6 -250l-25 -123l-65 -75l-43 -23l-125 -22l-76 14l-110 59l-31 29l-33 49l-24 76zM260 422l6 -35l-2 -94l10 -37v-35l21 -33l16 -61l95 -4l34 6 l37 29l15 55l12 100l4 152l-4 65v70l4 96l-4 209l-35 62l-59 41l-48 10l-20 -2l-35 -29l-24 -51l-2 -55l-9 -43l-12 -29l6 -10l-2 -160z" />
<glyph unicode="1" horiz-adv-x="569" d="M102 956l4 25l21 25l20 6l95 90l30 16l39 8l56 -4l22 -16l21 -31l4 -31l32 -20l-6 -63l6 -48l-12 -39l12 -20l-4 -215l11 -14l2 -236v-170l10 -39l-10 -33l14 -26v-39l-14 -12l14 -39l-29 -37l-43 -27l-69 8l-25 43l-18 23l6 139l6 21l-12 49l10 57l-10 117l-2 281 l-11 26l-4 80l-12 47l-113 62l-20 14h-12z" />
<glyph unicode="2" horiz-adv-x="741" d="M98 115v30l17 33v45h10l14 15v34h2l9 25l20 6l35 59v29l28 19l58 88l20 12l37 68l35 34l16 35h2l17 29l-2 2l45 84l6 33l8 10l2 100l-18 39l-41 37h-70l-8 -8l-21 -8v-9l5 -4l-23 -8l-25 -35l-26 -139l-37 -27l-72 2l-16 9v12l-10 8l-13 39l4 57v60l13 18l12 51l14 13 l5 22l40 39h19l4 21v14h31l24 14l35 -4l47 15l6 8l95 -11l4 -12l47 -20l102 -117l35 -104l-18 -162l-35 -60v-10l-13 -6l-92 -154l-63 -86l-142 -200l-16 -49l37 -17l201 25h131l30 -17l13 -30l-4 -52l-52 -53l-139 -6l-59 -12l-43 -4v4l-92 4l-15 -21h-10l-8 21h-57l-27 4 l-51 55l-4 12l8 17z" />
<glyph unicode="3" horiz-adv-x="780" d="M102 205l4 33l25 49l14 16l50 -6l8 10h4l8 -28l27 -13l10 -20l4 -41l8 -23l12 -53l33 -29l129 9l8 12l46 20l36 43l17 37v86l-8 45l-17 41l-69 60l-95 12h-18l-4 -6l-45 18l-21 29l13 72l81 32l64 17l74 71l16 60l8 43v51l-20 47l-29 43l-61 37l-45 4h-27l-37 -29 l-29 -55l-24 -123l-16 -16h-64l-33 28l-24 33l8 117l33 82l45 55v6l30 2l11 13l18 8l21 20l81 4l5 5l63 -9l12 -8l41 -4l37 -10l60 -41l61 -90l25 -92l12 -15l-8 -22l-13 -125l-16 -19l-4 -28l-21 -52l-24 -12v-12l-27 -37v-29l88 -100l13 -41l12 -51l-8 -33l8 -41l-16 -92 h-5l-8 -8l4 -19v-10l-47 -74l-90 -57l-53 -8l-4 -4l-45 -2l-31 -8l-41 8h-49l-17 14h-24l-31 27h-14l-80 100l-8 41l-4 27z" />
<glyph unicode="4" horiz-adv-x="862" d="M102 215l9 45l-9 39v16l27 31l33 66v14l16 8l8 8v33l43 78l13 51l22 39l8 33l27 63l16 27l-4 37l21 18l10 31l12 14l13 56l16 39l12 12l17 74l6 20l51 51l55 17l37 -9l55 -59l13 -88v-100l4 -27l-4 -117l10 -53l6 -94l-6 -27l2 -55v-76l-2 -96l12 -35l15 -16l49 -4 l24 -11l27 -32l-18 -52l-52 -26l-20 -4l-25 -29v-94l-35 -49l-84 2l-22 10l-25 41l13 78l-17 39l-12 6l-39 -6l-139 -19l-107 -4l-30 16l-25 43zM303 303l12 -20l76 -4l64 16l20 20l14 43l-8 17l-6 313h-12l-21 -33l-30 -94l-21 -37v-30l-12 -13z" />
<glyph unicode="5" horiz-adv-x="774" d="M88 967l14 37l-6 28l56 84h28l13 8l88 4l159 -8l43 4h62l76 -28l24 -21l29 -51l-37 -49l-33 -21l-209 -4l-57 13l-66 -19l-10 -6l10 -88l-4 -49l-6 -33v-12l31 -19l127 39l14 2l45 -10v-4l33 -8l20 -19h21l27 -41l32 -37l29 -47l8 -53l17 -33l8 -102l-8 -39v-49l-17 -154 l-43 -90l-82 -80l-125 -37h-41l-41 13l-24 -4h-12v4l-13 8l-39 8l-57 43l-37 57l-20 66v23l-9 10v71l3 33l18 25l74 37l28 -11l39 -59l25 -121l16 -28l17 -17l94 4l47 33l16 16l29 93v45l8 12l-4 37l8 20l-20 158l-70 55l-28 4l-44 -18l-32 -2l-88 -66h-66l-33 15l-28 39v45 l-6 182l10 53l-17 53l4 7z" />
<glyph unicode="6" d="M102 375v22l4 41l5 232l4 198l12 56l12 49l13 37l32 37v16l64 43l57 20l70 9l51 -9l29 -12l82 -18l63 -45l57 -90l-4 -19l25 -24l8 -58l-16 -49l-25 -20l-53 -3h-35l-37 39l-28 82l-66 62h-57l-47 -29l-41 -74l-17 -149v-64l12 -10l62 17l96 8l90 -15l68 -55l45 -68v-16 l16 -16l9 -94l8 -84v-58l-13 -14l-8 -90l-49 -92l-33 -27l-8 -14l-76 -33l-86 -12l-59 8h-66l-51 22l-47 35l-8 21l-27 34l-24 86l-4 170zM260 317l4 -84l12 -65l17 -16l45 -29l88 4l33 25l49 81l8 60l-6 123l-18 59l-33 45l-45 21l-76 4l-78 -49v-179z" />
<glyph unicode="7" horiz-adv-x="788" d="M102 1008l9 63l96 49l37 8l116 -8l95 13l184 -25l33 -37l16 -45l-4 -76l-37 -121l-20 -61l-35 -61l-6 -45l-23 -27l-28 -107l-70 -245l-31 -64l8 -57l-20 -62l-37 -88l-33 -24l-65 -13l-43 17l-37 47l24 123l25 55l80 227l12 21l17 63l20 66l90 278l19 62l-9 16l-32 17 h-68l-158 -37l-96 16z" />
<glyph unicode="8" horiz-adv-x="757" d="M102 881l4 53l21 65l41 50l59 41l45 14l29 20l45 9l29 -3l8 9l94 -17l101 -69l34 -54l27 -36l14 -74l6 -12v-43l-6 -103l-26 -90l-31 -47l-18 -21l8 -51l32 -33v-8l15 -12l-8 -12l12 -25v-16l16 -17l4 -53v-43h-4l-6 -27l10 -14l-12 -76l-12 -43l-27 -49l-28 -37l-62 -41 l-14 -4l-25 -12l-20 4l-4 -4v-8h-99l-96 28l-72 41l-39 43l-38 91l6 233l8 25v12l55 74l12 8v41l-40 45l-23 49l-21 90zM238 326l2 -41l8 -37l10 -33l43 -55l45 -17l70 -4l41 13l28 24l17 25l12 4v8h-4l-4 2l-4 102v54l-13 37l-12 20l-28 33v12l-17 8l-49 8l-29 -4l-82 -28 l-14 -58l-20 -41v-32zM258 725l70 -72l47 -32l37 12l4 -4h20v12l25 29l20 47v55l13 27l-13 45v65l-37 45l-24 21l-53 12l-37 -12l-54 -49l-18 -140l8 -14z" />
<glyph unicode="9" horiz-adv-x="743" d="M102 727l4 215l41 90l50 70l43 12l36 16l91 9l102 -29l57 -41l45 -53l13 -4l20 -37l33 -187l4 -466v-82l-35 -113l-35 -49l-86 -66l-53 -16l-125 -4l-59 18l-62 41l-49 105l-14 84l12 55l29 24l55 -10l41 -43l37 -106l53 -29l47 4l56 33l36 65l-4 158l-32 27l-115 -19 l-78 19l-61 33l-64 88zM238 715l8 -62l35 -90l20 -12l57 -12l54 12l37 33l16 45l4 196l-16 62l-54 76l-63 12l-29 -6l-47 -31l-22 -80l8 -90z" />
<glyph unicode=":" horiz-adv-x="440" d="M102 537v88l9 39l8 18l49 27l22 8l78 -4l27 -17v-41l27 -39l-9 -49l-18 -35l-33 -24l-43 -14h-59l-41 26zM127 37v72l14 45l35 26h37l20 -18l46 18l34 -39v-16l25 -23l-16 -88l-31 -8l-31 -29l-57 -6l-62 47z" />
<glyph unicode=";" horiz-adv-x="458" d="M59 -98l52 108l6 68l-15 16v74l31 55l27 31l26 12h31l2 6l84 -36l47 -72l-10 -86l-25 -37v-16h-12l-125 -136l-76 -51l-43 39v25zM117 608l16 13l4 61l68 51l78 -8l49 -25l24 -79l-12 -89l-82 -83l-49 -9l-27 9l-20 20l-33 43z" />
<glyph unicode="&#x3c;" horiz-adv-x="743" d="M102 510l2 10v2l7 43l34 39l189 162l194 178l29 19l27 -7l28 -32l11 -58l-29 -75l-232 -201l-57 -47l-4 -19l2 -18l146 -119l83 -57l97 -72l6 -14l6 -8l-10 -68l-27 -35l-53 -12l-35 6l-141 123l-96 84l-84 78l-27 16l-35 31z" />
<glyph unicode="=" horiz-adv-x="770" d="M96 346l8 51l43 37h285l90 8l109 7l16 -9h2l19 -65l-4 -47l-39 -47l-31 -17l-164 4l-111 4l-63 9l-43 -13l-6 8l-55 3l-48 20zM102 647v72l23 31l45 8l217 -4l229 4l31 -4l19 -25l6 -49l-17 -55l-55 -39l-266 2l-70 16l-18 -8l-15 12l-67 -12l-39 12z" />
<glyph unicode="&#x3e;" horiz-adv-x="749" d="M100 221l9 8l6 29l98 72l84 57l145 119l4 18l-6 19l-55 47l-233 201l-31 75l12 58l27 32l28 7l27 -19l199 -178l188 -162l37 -39l8 -35l-4 -10l4 -10l-33 -51l-34 -31l-27 -16l-86 -78l-96 -84l-144 -123l-32 -6l-56 12l-26 35z" />
<glyph unicode="?" horiz-adv-x="749" d="M100 909l13 80l43 64l69 47l78 33l82 -5l86 -8l94 -61l53 -70l27 -98l2 -96l-41 -97l-37 -80l-47 -59l-43 -39l-57 -26l-35 -50l-8 -43v-34l-4 -39l10 -37l-25 -25l-34 -14l-54 14l-39 23l-16 59l-2 53l10 76l25 58l43 47l57 55l39 27l53 20l25 43l18 39l4 63l-6 48 l-26 53l-31 28l-51 7l-39 -11l-29 -18l-16 -39l-10 -43l-29 -39l-27 -29l-28 -12l-39 -2l-35 21l-21 24zM238 31v69l30 72l41 21l56 -5l49 -30l14 -56v-57l-43 -39l-53 -16l-58 14z" />
<glyph unicode="@" horiz-adv-x="948" d="M66 403l6 70v39l6 14l-12 11v8l16 71l-8 13v82l18 16l14 127l13 31v28l33 19v18h10l2 25l55 33l49 43h33l25 16h51l102 20l60 -16l12 -10l156 -4v-19l34 -26l35 -45l21 -4v-37l16 -11v-30l49 -127v-84l-6 -56l-2 -38l-12 -162l-17 -58l-30 -67l-54 -29h-75l-41 29l-23 6 l-16 16l-6 -8l-11 -24l-14 -7l-12 -10l-23 -14l-49 -12l-70 4l-49 24l-61 92l-19 74l-10 164l2 31l17 37l2 18l20 74l45 43l43 26l72 7l43 -17l29 -20l10 -9l2 13l10 30l39 15l37 2l33 -37l4 -55v-64l-8 -61l4 -160l8 -49l4 -12l8 -13l14 11l19 20l6 41l-2 174l-6 31l6 110 l-23 52l-14 34l-108 60l-60 18l-8 -8l-16 -2l-41 -14l-88 -9l-68 -30l-51 -47l-19 -45v-31l9 -12l-9 -45l-12 -74l8 -13l-4 -59l-4 -94l8 -31l-8 -47l12 -78l23 -41l16 -10l10 -37l70 -39l115 -22l20 -15l164 23l39 -21l4 -34l21 -27l-35 -61l-45 -25l-21 18l-116 -10 l-84 27l-15 -8l-90 18l-49 8l-104 76l-9 29l-20 28l-35 80v29l6 10l-10 12zM383 492l6 -74l25 -43l49 -25l41 8l35 25l14 47l-6 207l-25 63l-47 19l-63 -19l-27 -47z" />
<glyph unicode="A" horiz-adv-x="866" d="M102 59l4 19l3 37l36 71l7 37l18 56l23 114l18 70l12 29l6 69l15 41l6 57l12 19l8 37l58 307l26 68l29 30l16 2l115 -8l37 -29l27 -59l36 -219l35 -156l4 -53l29 -100v-39l8 -25l12 -84l11 -26l6 -41l18 -43v-33l17 -68l8 -71l-29 -50l-39 -24l-51 6l-33 18l-32 37l-7 49 l-32 103l-17 12l-71 8h-54l-43 -12l-20 -27l-6 -53l-9 -80l-36 -55l-39 -29l-72 4l-33 9l-20 30zM379 383l18 -16h13l92 4l16 16v31l-10 65l-12 31l-2 96l-11 25l-2 43l-14 20h-8l-21 -26l-4 -27l-10 -27l-14 -116l-13 -19z" />
<glyph unicode="B" horiz-adv-x="849" d="M98 897l4 150l13 24l63 37l68 6l43 6l141 -6l102 -37l86 -76l52 -98l20 -96l-2 -156l-59 -90l4 -31l76 -84l28 -96l8 -92l-20 -82l-47 -92l-92 -76l-117 -24l-131 -13l-125 4l-43 25l-25 35l-12 55l-10 84l6 209l-8 55l-10 232l-9 32zM262 918l14 -295l13 -21h8l129 4 l96 51l23 41l12 84l-22 68l-97 111l-45 12l-114 -12l-13 -15zM289 414l2 -232l12 -47l23 -20l12 -4l88 8l45 12l70 33l41 63l10 45l-19 107l-45 51l-43 25l-125 4l-47 -4l-24 -17v-24z" />
<glyph unicode="C" horiz-adv-x="819" d="M96 678l6 33l4 204l25 64l12 12v21l25 26l51 45l12 -4l29 21l37 12h14l13 6h32l6 15l29 -9l21 9h12v-9l59 -6l68 -35l20 -4l62 -67l37 -68l-6 -12l20 -45l-12 -23l-2 -41l-19 -30l-39 -27l-51 6l-33 23l-45 71l-20 66l-23 22l-84 13l-37 -13l-36 -51l-15 -47l2 -29 l-8 -28l17 -33l-3 -152l7 -59v-143l8 -41l6 -121l6 -12l8 -9v-39l25 -34l47 -27l80 -4l35 12l22 29l21 55v53l16 37l43 23h62l26 -23l17 -35l12 -34l-8 -60l-13 -26l-12 -39l4 -4l-37 -60l-102 -69l-41 -15h-31l-6 -4l-59 -12l-33 12l-10 -8l-27 16h-31l-41 31l-18 6h-12 l-4 10l-46 33l-28 31l-35 98l-10 64l-11 196l-4 224z" />
<glyph unicode="D" horiz-adv-x="772" d="M102 186l9 13v20l6 76l12 20l-18 35l10 21l-10 35l12 20l6 147l-6 109l-6 80v121l-8 14l8 41v92l12 39l66 51l43 10l96 -2h59l92 -14l60 -33l84 -94l8 -45l12 -20v-33l15 -64l6 -63l-17 -33v-72l11 -12l-11 -47l23 -80l-10 -239l-9 -68l-16 -68l-37 -59l-84 -66l-51 -12 l-35 -18h-125l-24 -17l-92 13l-43 30h-5l-24 66l-12 10zM270 291l19 -19v-69l16 -41l25 -10l108 10l60 45l12 24l10 64l2 55l-2 336l-10 80l-2 96l-23 39l-41 49l-47 4l-12 13l-80 6l-29 -35l9 -188l4 -119l-4 -160v-129z" />
<glyph unicode="E" horiz-adv-x="811" d="M104 162l13 78v194l-4 109l-4 358l-5 133l33 47l47 27l43 8l244 -14h168l33 -25l39 -39l-6 -57l-21 -31l-51 -20l-109 8l-63 12h-133l-31 -2l-16 -18l4 -189l-4 -94v-29l36 -20l107 -4l61 12l121 4l66 -20l20 -51v-50l-45 -43h-287l-57 -4l-22 -24l4 -148v-67l6 -47 l14 -21l12 -8l148 12l57 11h121l21 -11l28 -41l10 -47l-6 -16l-49 -51l-155 -13l-312 4l-35 13l-20 26l-12 21z" />
<glyph unicode="F" horiz-adv-x="802" d="M98 86l4 12v4l9 9l-9 16l7 156l8 14l-8 22v256l-7 31l9 12v224l-9 12l9 47l-2 37l-11 16l11 31l-7 37l19 4l16 27l56 37h45l16 8l25 -8l102 6l201 12l4 2l71 -20v-9l33 -16l10 -21l-4 -38v-33l-26 -19l-4 -12l-117 -16l-17 8l-157 4l-90 12l-21 -24v-131l6 -125l6 -52 l9 -24l20 -12l37 8l43 -8l29 12l147 16l8 -8l52 8l36 -20l27 -47l4 -29l-10 -35l-62 -33l-43 -8l-223 8h-59l-21 -12l-6 -8l12 -31l-12 -37l2 -39l10 -16l-6 -88l6 -39l3 -49l16 -70l-10 -59l-68 -27h-31l-16 17l-37 14l4 21l-14 8l-6 28z" />
<glyph unicode="G" horiz-adv-x="778" d="M100 385l2 119v117l2 190l17 133l47 90l94 82l35 12l82 9l98 -21l35 -12l102 -90l35 -94l15 -46l-2 -43l-19 -28l-14 -12l-68 2l-26 18l-23 23l-6 20l-23 25l-10 49l-39 41l-18 12l-64 -4l-45 -33l-22 -61l-4 -221l-7 -31l11 -185v-139l12 -127l53 -61l37 -8l49 6l56 43 l10 20l10 66l-4 90v61l-16 13l-48 8l-6 10l4 14l-20 17l10 78l60 32l49 2l82 -12l53 -63v-41l-12 -17l4 -49l-6 -29l12 -262l-8 -28l-60 -62l-45 -8l-18 -12l-76 -2l-21 -13h-67l-37 13h-33l-55 28l-41 15l-53 53l-13 20l-2 29l-32 115l-11 119z" />
<glyph unicode="H" d="M111 199l8 129l-8 24l14 125l-12 37l10 39l-4 22l-2 107l10 35l-8 76l10 14l-16 108v142l65 67l45 -4l56 -63l12 -29v-70l-10 -22l8 -43l-6 -74l-4 -180l8 -12l12 -9h172l31 31l4 29l-4 125l-4 201l12 22v51l27 35l18 12l76 -4l33 -39l-7 -176l-2 -43l9 -106l2 -43 l-4 -160l8 -76v-26l8 -13l-14 -108l6 -68l8 -223l-39 -45l-14 -14l-68 14l-43 41h-6l-10 14l-6 76l8 39l10 250l-31 28l-49 9l-14 8l-94 -13l-21 -8l-22 -24l-7 -23l9 -112v-162l-2 -27l14 -20l-6 -56l-39 -39l-94 -4l-19 4l-8 33l-14 27z" />
<glyph unicode="I" horiz-adv-x="380" d="M102 678l4 350l29 55l51 29l15 6l32 -8l35 -29v-20l-20 -33l10 -27l-10 -34l20 -33l-14 -27l8 -20l-14 -49l20 -95l-10 -24l10 -35l-20 -84l10 -59l-10 -21l14 -43l-14 -20l-2 -62v-41l12 -53v-94l16 -17v-12l-20 -20v-8l25 -17v-45l-13 -45l-12 -12l12 -29l-53 -29 l-37 9l-37 28l-28 78l-5 143l5 316z" />
<glyph unicode="J" d="M102 293l17 33l37 26h69l43 -59l6 -96l35 -45l45 -19l47 12l52 33l39 58l12 151l-10 33v115l-7 122v93l-4 176l4 49l9 12l-15 78l45 72l62 -9l28 -28h13l35 -94l12 -109l-8 -23v-120l-4 -92l-11 -152l11 -82l-13 -127l8 -53l-30 -103l-25 -55l-67 -76l-52 -16l-16 -12 l-80 -9l-24 -4l-134 33l-77 82l-43 64z" />
<glyph unicode="K" d="M88 967l12 61v37l52 45l53 4h12l43 -53l-6 -103l-8 -57l-2 -53l-8 -25l12 -45v-35l6 -10l29 33l55 94l14 45l29 62l14 57l33 66l55 45l62 4l10 12h18l52 -74l-13 -53l-51 -88l-82 -123l-2 -20l-31 -41l-24 -62l8 -39l39 -84l10 -47l35 -69l33 -82l26 -47l5 -37l51 -70 l8 -53l41 -41l-6 -70l-49 -49l-103 12l-49 58l-18 41l-4 30l-13 19l-2 37l-20 24l-4 29l-17 24l-43 175l-22 47l-4 2l-45 -49l-27 -74l8 -35v-61l23 -181l8 -61l-8 -25l-45 -28l-25 -13l-29 17l-32 4l-37 57l2 58l10 73l-12 54l2 106l-11 158l-4 110v45l-8 21l6 178l-6 96z " />
<glyph unicode="L" horiz-adv-x="718" d="M104 137l7 15l4 92l4 39l8 12l-2 158l10 32l-10 84l10 119l-8 37v61l-2 113l6 10l-12 41v45l6 64l10 41l31 39l35 -13l32 -6l15 -14l10 2l33 -37l20 -96l-16 -176l8 -27l-8 -31l4 -133v-30l-4 -29v-33l4 -108l-8 -9v-129l-2 -96l51 -24l29 16h127l20 8l82 -24l16 -44 l-4 -40l-20 -29l-49 -31l-66 -12l-303 6l-27 14l-30 39v51z" />
<glyph unicode="M" horiz-adv-x="944" d="M94 1004l10 38v35l29 39l47 17h49l13 -21l-4 -4l2 -8l47 -23l26 -53l11 -43l26 -121l27 -149l14 -43l23 -113l12 -55l25 -84l12 -10l18 6l13 16l6 57l24 109l8 27l11 69l28 94l2 64l13 20l2 43l47 148l33 49l39 22h38l41 -22l41 -66l9 -36l-11 -56l13 -53l-4 -145l-3 -78 l-2 -203l-8 -96l6 -86l-4 -131v-90l-12 -48l-47 -49h-55l-45 49l-2 72l16 49v60l12 16l-8 21l-2 73l6 27l-4 113l-8 26l-8 8l-13 -8l-18 -43v-49l-23 -31l-20 -135l-23 -129l-10 -47l-4 -37l-47 -26l-47 -3l-39 17l-29 33l-8 36l-20 170l-31 117l-15 35l-20 96l-16 19h-19 l-18 -29l-4 -68l10 -65l-2 -49v-25l18 -119v-24l15 -49v-27l-31 -55l-35 -19l-74 6l-32 35l8 13l-17 34l11 39l-7 264v175l-6 200l2 131l9 23l-15 55l21 39z" />
<glyph unicode="N" horiz-adv-x="747" d="M96 41l8 98l21 64l4 61l4 119l-2 129l-6 147l-2 136l-4 231l24 64l50 22l34 2h13l47 -59l67 -226l11 -36l26 -62l51 -149l15 -43l2 -4l14 -3l12 21l-18 184l4 68l-10 96l8 150l12 26l72 35l45 -12l25 -33l12 -59l4 -99l-4 -131l4 -53l-16 -289v-57l8 -43l-4 -51l6 -39 l-4 -47l-4 -123l-17 -19v-16l-55 -43l-29 -10l-69 14l-29 45l-33 203l-61 207l-25 41l-14 73l-14 27l-7 8l-14 -26l8 -84l13 -187l-3 -43l5 -131l-7 -90l-16 -22l-10 -31l-25 -15l-73 7l-27 20l-8 2z" />
<glyph unicode="O" horiz-adv-x="772" d="M102 227l9 158l6 117l6 133v137l10 205l29 35v24l43 33h12l55 39l74 22l103 -6l100 -45l51 -39l35 -55l8 -51l12 -12l7 -117l2 -492v-24l-9 -15l15 -47l-35 -123l-47 -63l-96 -55l-99 -13l-106 17l-27 22l-20 2l-86 68v18l-25 25l-6 43l-12 18zM252 309l8 -123l55 -55 l58 -22l63 -5l41 29l29 49l18 80v29l-4 47l8 27l-4 161v76l-8 55l4 222l-20 55l-58 59h-84l-51 -20l-20 -39l-21 -98l-14 -498v-29z" />
<glyph unicode="P" horiz-adv-x="813" d="M90 569l8 41l-8 21l6 67v144l-6 170l6 24l27 41l49 25h172l12 8l37 -8l21 8l78 -16l122 -66l66 -110l29 -105l-9 -27l13 -24l-13 -64l-12 -61l-45 -82l-115 -76l-102 -14l-86 12l-45 8h-14l-21 -26v-117l10 -20l4 -70l9 -33v-57l8 -66l-25 -82l-37 -32l-8 -9l-49 9 l-20 -5h-13l-41 66l4 156l-4 82l-2 81v158zM262 909l8 -14l4 -182v-76l21 -21h16l62 15l53 -10l37 22l41 8l16 13l21 28l12 111l-16 45l-62 70l-37 8l-24 18h-29h-49l-53 2l-17 -10z" />
<glyph unicode="Q" horiz-adv-x="741" d="M94 737l2 109v39l19 82l12 37l20 34h13l37 45l49 21v4l6 8h39l8 8h25l53 11l4 2l94 -23l45 -39h12l70 -78l12 -20l17 -72v-31l8 -8l-4 -49l-4 -147v-82l-4 -193l-4 -174l-13 -84l-20 -41l-8 -10l30 -31l6 -28l-4 -52l-24 -20l-27 -12l-14 2h-10l-15 14l-12 4l-31 37 l-92 -29h-37l-123 33l-39 29l-2 12l-20 14v7l-25 18l-24 49l-4 31l-13 12v29l4 125l9 8l-9 8l-4 117v266zM229 862l2 -102l15 -152l-8 -76l8 -28l-8 -86l8 -43l-8 -8v-97l-7 -12l35 -94l41 -27h51l-24 41l-33 23l-4 24l6 13l6 6h10l3 12l28 12l53 -2l25 -22h10l15 -17l18 2 l4 52l-8 20l8 25l-8 16l12 20l-4 25v201l-4 76l8 36l4 41l-16 113l16 43l-24 57l-119 37l-70 -33l-20 -38z" />
<glyph unicode="R" horiz-adv-x="792" d="M102 1044l4 41l41 29h177l41 6l8 4l112 -12l93 -61l26 -33l21 -14l32 -54l9 -35l12 -18l4 -70l8 -16l-18 -102l-62 -111l-32 -27l-15 -22v-62l12 -20l3 -72l12 -28l14 -76l12 -72l21 -61l-6 -107l-47 -57l-27 -8l-35 8l-49 33l-12 12l-8 70l-7 49l-6 73v95l-14 137l-6 41 l-14 6l-48 -2h-71l-17 -8l-14 -25l-10 -49l10 -25l14 -202l17 -156l-8 -29l-37 -28l-41 -13l-33 9l-53 53l4 61v54l4 182l-4 198l-8 125v95zM246 758l4 -90l12 -21l109 -4l90 21l53 49l23 106l-11 17l-12 69l-41 41l-47 25h-156l-20 -15z" />
<glyph unicode="S" horiz-adv-x="788" d="M102 272l13 39l84 35l55 -8l20 -21l9 -10l6 -65l10 -27l8 -43l39 -39l96 -10l19 8l39 119l-13 57l-22 47l-78 88l-172 168l-29 21l-57 114l-8 54l-10 16v76l18 47l12 41l74 82l92 45l88 20l72 -8l94 -53l80 -86l39 -84l6 -53l-6 -49l-35 -17l-76 4l-37 23l-49 104l-57 54 h-78l-35 -33l-6 -29l-8 -10v-74l8 -43l31 -45l31 -31l30 -43l131 -135l105 -127l33 -96l-9 -119l-49 -100l-26 -41l-31 -17l-31 -22l-143 -19l-133 41l-43 25l-37 49l-29 31l-26 113v24z" />
<glyph unicode="T" horiz-adv-x="763" d="M100 1059l21 37l59 39l150 -5l12 9l53 -9l15 5l116 -9h72l29 -16l35 -43l-3 -57l-8 -23l-35 -16l-141 4l-12 -12l-8 -54l8 -63v-225l8 -215v-58l8 -31v-172l-16 -69l4 -58l-51 -45l-21 2l-28 25l-31 4l-35 21l-14 55v67l4 29l8 37l-8 51l8 21l-4 28l12 101l-8 14l8 16 l-8 101l8 61v240l2 100l-2 17l-26 18l-74 -2h-57l-41 29z" />
<glyph unicode="U" horiz-adv-x="784" d="M104 276l17 234l-4 229v90l-8 25l-5 221v10l50 41l10 4l78 -4l34 -43l9 -49l-13 -59l9 -17l-17 -133l-2 -508l2 -86l12 -18l9 -45l57 -37l51 -2l64 14l45 54l14 63l6 244l8 215l-8 35l-16 252l-8 45l8 24l47 45l20 6l60 -6l37 -28l12 -41l-12 -72l-25 -16v-9l12 -8l9 -55 l-9 -25l9 -180l-4 -397l4 -84l-9 -25v-28l-79 -101l-35 -31l-49 -16l-29 -20l-100 -4l-56 8l-67 41l-37 12l-80 90l-12 53z" />
<glyph unicode="V" horiz-adv-x="796" d="M106 987v84l25 35l64 33l45 -6l43 -25l6 -33l28 -45l-8 -33l17 -63l16 -115l4 -24l4 -41l12 -15v-77l31 -109l10 -21l13 -114l6 -4h6l18 57l17 113l16 90l4 65l21 138l12 36v62l8 88l29 43l16 14l64 -2l29 -18l20 -25l12 -57l-41 -199l-18 -86l-6 -51l-15 -33v-49 l-14 -27l-10 -45l-8 -53l-9 -20l5 -70l-21 -31l10 -28l-14 -21l-4 -65l-17 -41l-4 -54l-16 -26l-8 -41l-29 -58l-67 -32l-33 6l-53 67l-29 72l-10 57l-7 62l-16 61l-4 41l-14 80v29l-15 29l-26 165l-6 35l-35 115v29l-13 20l-8 43z" />
<glyph unicode="W" horiz-adv-x="964" d="M104 1079l21 33l35 21l45 -7l28 -20l23 -55l12 -201l21 -191v-6l12 -14h12l13 14l55 353v45l16 61l37 29l6 6l58 -6l49 -21l22 -45l17 -184l12 -29l4 -61l35 -131v-4l10 -9l23 29l4 82l16 106l10 181l21 51l41 33l45 -11l35 -20l16 -33l4 -86l-12 -37l-8 -69l-27 -152 l-4 -74l-10 -53l-10 -162l-29 -163l-25 -201l-10 -53l-49 -29l-57 4l-27 16l-25 41l-14 62l-49 268l-31 150l-10 10h-8l-11 -23l-8 -51l8 -24l-26 -152l-14 -68v-163l-17 -41l-49 -33l-43 8l-49 33l-23 61l-16 180l-25 134l-18 184l-41 315z" />
<glyph unicode="X" d="M94 1044l10 39l35 25l29 8l59 -8l43 -37l15 -37l14 -8v-29l25 -67l24 -76l23 -76l8 -16l12 -8l21 24l18 72l14 37v20l13 27l-6 24l14 13v18l14 27l6 43l11 31v26l69 23l43 -15h29l22 -57l-10 -41l2 -8v-10l-22 -29l-8 -35l-105 -266l-29 -88l-12 -27l64 -135l26 -72 l39 -108l27 -60l35 -67l14 -60l-43 -45l-41 -8l-16 -12l-15 4l-16 20l-12 -4l-21 9l-29 36l-12 72l-39 131l-33 92l-12 6h-12l-31 -61l-37 -188l-24 -68l-29 -37l-10 -12l-33 -4l-39 -19l-45 9l-33 51l8 51l33 61l19 82l26 45l19 70l33 59l20 62l35 72l-4 43l-8 24l-31 60 l-21 61l-24 27l-8 32l-19 76l-26 41l-31 109z" />
<glyph unicode="Y" horiz-adv-x="772" d="M102 1022v70l45 38l50 13l59 -31l35 -55l33 -107l16 -39l8 -57l14 -37l29 -106l6 -6l11 6l16 26l80 334l24 47l35 21h58l32 -25l25 -59l-29 -125l-41 -113l-8 -41l-20 -22l-11 -58l-12 -14l-14 -57l-43 -123l-8 -158v-68l-15 -36l15 -90l-3 -95l-32 -47l-8 -20l-37 -8 l-15 -13l-37 17h-36l-41 65v123l14 117l6 200l-63 213l-4 9l-13 10l-4 24l-31 105l-16 22v25l-25 80l-12 14h-4l-8 13z" />
<glyph unicode="Z" horiz-adv-x="786" d="M100 61l17 113l24 37l23 72l92 147l25 49v23l55 45l4 37l16 26l35 70l86 168l17 61l8 11l-6 16l-31 25l-78 -7l-74 -18l-45 -16l-82 8l-43 12l-22 64l6 49l37 30l63 27h189l33 6l126 -12l66 -12l25 -23l18 -53l-8 -80l-23 -68l-8 -57l-51 -109l-8 -38l-21 -25l-53 -47 l-51 -92l-15 -43l-96 -156l-28 -53l4 -66l-7 -37l52 2l141 13l18 -4h9l-9 14l37 -2l13 -8l43 -4l28 -17l17 -55l-9 -33l-38 -33l-41 -20l-109 -2l-8 8l-14 -8l-74 8v2l-4 4l-33 -14l-55 8l-64 -8l-43 10h-4l-6 4h-4v2l-25 8z" />
<glyph unicode="[" horiz-adv-x="530" d="M100 168l13 53l-9 41l17 62l-8 73l8 13l-8 12l8 156l-4 102l8 104l-8 21l4 94l-4 25l8 28l-12 29l8 20v13l-8 8l12 20l4 41l8 13l-4 16l53 37l62 -12l12 -11l41 21l70 -6l71 -11l33 -57l-4 -63l-47 -47h-57h-33l-25 -13l-18 -12l-8 -33l2 -43l-9 -383l9 -8l-2 -154 l-7 -165l21 -21l76 31l41 -10l18 -11l29 -51l-12 -61l-37 -31l-50 -21l-24 11l-33 -4l-8 6l-102 -13l-54 21l-24 31l-8 8l8 29l-4 4h-9z" />
<glyph unicode="\" horiz-adv-x="591" d="M29 1114l16 23l25 18l41 2l28 -22l62 -127l22 -78l29 -66l51 -137l125 -315l49 -125l94 -219l4 -39l-14 -37l-55 -33l-33 12l-53 37l-45 94l-84 236l-39 49l-23 115l-20 41l-14 53l-21 22l-6 60l-21 37l-4 33l-20 34l-12 82l-13 17l-20 53l-12 49l-29 74z" />
<glyph unicode="]" horiz-adv-x="569" d="M61 1094l39 53h13l10 -4l78 14h32h58l59 2l29 -8l51 -43v-29l12 -51v-27l-6 -83l-6 -336l4 -4l2 -46l4 -34l-10 -47l12 -146l-2 -61l9 -56l-9 -32l13 -52l-25 -86l-55 -36h-113l-24 8h-54l-63 12l-31 27l-12 51l35 55l32 15l11 -7h61l31 -8l26 12l11 13l-4 102v156 l-15 26v84l-12 25l20 20l7 127v99l-7 178l-20 24l-51 -2l-15 -12h-43l-63 21l-12 24z" />
<glyph unicode="^" horiz-adv-x="856" d="M96 608l21 27l123 184l114 139l39 37l35 9l8 -5l13 2l51 -30l30 -35l15 -27l80 -86l90 -123l35 -32l6 -33l-11 -55l-36 -27l-54 -12l-8 8l-26 6l-74 98l-66 111l-30 35l-19 2l-16 -4l-47 -56l-101 -170l-73 -30l-58 12l-35 29z" />
<glyph unicode="_" horiz-adv-x="686" d="M-41 -240l4 11l29 8l28 24l11 7l37 -3l10 5l20 -9l37 7l53 -3l2 5l21 -9l25 4l24 -6l12 4l39 -2l23 9l18 4l23 -4l14 6l33 -6l35 6l39 -6l90 8l43 -6l35 -17h30l39 -16l10 -21l9 -28l-4 -37l-19 -35l-35 -10l-35 10l-172 -2l-88 6l-243 -4l-19 -4l-41 2h-108l-15 23 l-2 36v11l-6 4v22z" />
<glyph unicode="`" horiz-adv-x="819" d="M154 1452l16 18l23 37l53 2l149 -147l11 -14l43 -54l4 -41l-19 -30l-33 -17l-67 21l-86 104l-84 82z" />
<glyph unicode="a" horiz-adv-x="821" d="M102 37l15 113l35 102l32 133l11 82l61 297l16 125l17 153l24 48l54 26l28 12l56 -12l61 -65l16 -58l29 -145l16 -37l21 -109v-28l16 -25l13 -65l10 -29l6 -76l14 -20l6 -45l27 -70v-68l25 -126l12 -15l-8 -67l-4 -39l-17 -25l-20 -12l-70 -8l-14 8l-45 74l-21 153 l-12 12l-166 5l-12 -9l-21 -127l-4 -41l-8 -20l-53 -47l-33 -12l-72 4l-20 12zM367 418l8 -21l88 -4l20 21l-45 243l-10 21l-12 4l-8 -8z" />
<glyph unicode="b" horiz-adv-x="843" d="M104 872l9 170l12 37l76 35l30 8h154l104 -18l91 -53l45 -39l53 -92l18 -107l2 -80l-2 -24l-8 -72l-57 -74l-2 -31l80 -81l26 -107l6 -92l-4 -29l-37 -92l-12 -8v-19l-104 -88l-45 -16h-27l-12 -8l-158 -12l-98 2l-60 10l-45 51l-4 20l-12 31l-2 103l10 14l-4 94l-6 109 l-6 28l8 27v113l-14 143l8 12l-11 107l5 4zM274 944l2 -188l3 -135l12 -13l59 -6l92 10l84 41l23 49l16 80l-18 68l-41 55l-60 58l-53 8l-106 -6zM283 430l12 -63l-10 -21l2 -96l8 -25l-10 -43l24 -53l43 -10l54 6l102 22l47 41h-12l-13 5v10l13 8l20 -10l17 32l8 60l-8 51 l-21 59l-20 15l-13 16l-37 21l-92 12l-100 -10z" />
<glyph unicode="c" horiz-adv-x="802" d="M102 623v274l25 78l14 24v13l76 69l86 31l23 8h24l12 8l125 -12l78 -43l66 -74l28 -51l11 -69l-19 -68l-12 -20l-39 -19h-47l-35 27l-51 96l-16 41l-35 22l-82 7l-27 -17l-41 -67l-2 -93l10 -20v-162l9 -198v-58l12 -98l22 -68l48 -32l84 -9l43 15l34 63l4 66l11 26 l45 33h65l27 -18l24 -60v-71l-20 -27l-8 -55l-35 -52l-109 -65l-127 -23l-69 11l-39 12l-35 27l-24 4l-56 47l-30 43l-31 102l-13 62z" />
<glyph unicode="d" d="M106 891l5 168l49 47l61 8h49l4 2l121 -2l90 -18l88 -60l29 -32l6 -25l25 -33l24 -133l5 -53l6 -90l-2 -275l4 -53l6 -20l-6 -66l-25 -104l-35 -48l-118 -92l-89 -16l-237 4l-39 102l4 138l-8 24l4 53v52l-4 86l-2 186l-2 37l-8 20l10 54l-4 43zM268 809l11 -25l-3 -143 l11 -92l-6 -66l10 -65l-2 -150l-8 -12l2 -86l20 -29l23 -2l36 6l87 21l40 37l19 53l2 121l-6 41l8 20l2 82l-2 127l-14 64l8 53l-10 37l-13 71l-22 50l-49 28l-43 4l-45 13l-33 -4l-21 -21z" />
<glyph unicode="e" horiz-adv-x="788" d="M98 133l19 21v55l4 348l8 37l-4 240v215l16 26l41 27l123 16l137 8l107 -12l22 8l60 -20l47 -33v-80l-47 -31l-185 9l-124 10h-37l-21 -35l2 -319l19 -13l129 4l194 7l35 -19l27 -33v-39l-17 -32l-51 -29l-88 -8l-20 8l-117 4l-39 4h-49l-31 -45l6 -43l8 -16l-14 -107 l6 -98l35 -27l70 6l65 13h180l27 -19l14 -24l-2 -54l-30 -38l-37 -21l-164 -4h-248l-45 41l-20 22z" />
<glyph unicode="f" horiz-adv-x="819" d="M98 948l8 127l25 29l10 10l13 -6l8 14l20 -8v12l4 2l131 -2l271 2l28 -12l43 -8l21 -21l18 -32l4 -31l-22 -33l-33 -30l-115 -5l-14 13l-57 6l-107 6l-73 -6l-17 -21v-49l2 -104l10 -37l5 -141l20 -17h80l59 12h29l35 19l112 -6l43 -8l31 -50h12l9 -20l-13 -37l-18 -6 l-14 -27l-64 -28l-47 8l-12 -4l-25 8l-14 -8l-37 8l-166 -4l-20 -31l4 -88l12 -192l6 -134l-37 -45l-41 4l-30 17l-33 4l-25 39v16l-14 13v270l-6 8l6 25l-6 26l6 45l-4 191l-8 260z" />
<glyph unicode="g" horiz-adv-x="776" d="M104 238l5 116l4 105l4 180l8 27l8 223l12 47l21 41l4 31l20 20l68 74l55 22l62 11l16 -9l45 9l64 -17l41 -24h24l39 -62l25 -31l8 -40l25 -29l8 -37l-13 -72l-28 -24h-43l-37 20l-45 96l-17 37l-34 29l-111 -4l-35 -25l-12 -20l-16 -49v-52l-13 -20l8 -49l-12 -201 l4 -102l-8 -27l-4 -78l-8 -20l8 -39v-84l29 -49l30 -33v-12l9 -8l36 12l70 35l53 61l11 66l2 100v12l-23 17l-45 14l-31 35l-4 47v33l12 20l58 25l112 -8l52 -33l14 -33l10 -129l-10 -41l10 -29l8 -10l-18 -82l6 -158l-8 -12l-53 -26l-90 -13l-54 -24l-20 8l-113 -12l-33 8 l-36 28l-27 11l-41 35l-14 6l-15 16v29l-28 65v35z" />
<glyph unicode="h" horiz-adv-x="780" d="M119 201l22 393l-10 313l-12 199l49 24l68 -8l24 -12l27 -66l-19 -339l17 -35l20 -15h154l49 21l14 20l-16 391l8 25l33 21l53 16l29 -4l33 -45l8 -62l6 -20l-10 -47l10 -92l-6 -107l4 -65l-12 -267l6 -295l-6 -71l-17 -27l-2 -37l-14 -12l-8 2v8l-13 8l-14 -10l12 -22 l-14 -9l-35 5l-39 49l-10 57l14 356l-8 47l-20 15l-199 -8l-19 -15l-4 -182l13 -147l6 -111l-25 -33l-35 -28l-90 20l-14 25z" />
<glyph unicode="i" horiz-adv-x="403" d="M111 25v45l8 163v66l14 231l6 60v65l6 144l-10 26l-8 70l6 53v51l-10 78l16 31l66 39l86 -66l10 -20l-10 -70l-2 -131l-13 -55v-500l9 -31l-15 -41v-208l-43 -31l-65 6z" />
<glyph unicode="j" horiz-adv-x="737" d="M98 231l8 31l23 21l84 4l33 -33l26 -76l54 -43l43 -4h30l33 16l29 39l14 33l8 84l-4 103l-4 538l-14 60l-8 28l10 43l29 35l43 20l71 -28l25 -39l-4 -119l-4 -158v-104l4 -248l4 -139l-6 -25l-7 -55l-10 -57l-20 -45l-39 -62l-70 -51l-82 -12l-104 8l-72 43l-94 117 l-14 47z" />
<glyph unicode="k" horiz-adv-x="761" d="M104 37l7 268l8 152l-2 516l-6 86v26l26 35l47 8l54 -12l20 -49l-2 -133l-14 -78v-117l4 -6l16 10l96 168l39 78l31 88l59 51l35 17l31 6l27 -6l51 -49l-13 -66l-22 -53l-37 -49l-10 -21l-49 -65v-17l-37 -65l-27 -51l4 -74l78 -168l47 -162l53 -98l21 -27l14 -47l17 -61 v-31l-25 -39l-86 -27l-53 37l-55 86l-37 129l-47 156l-19 41l-6 43l-23 20l-20 -4l-41 -57l-12 -20v-84l12 -142l10 -39l-10 -112l-55 -45l-70 22z" />
<glyph unicode="l" horiz-adv-x="722" d="M98 129l11 39l2 80l10 98l4 125v57l-8 23l4 151l-4 232l-8 104l8 17v30l41 52l51 -19l47 -12l29 -33l16 -55l-4 -176v-82l-4 -142l8 -20l-12 -70l12 -65l-8 -187l-8 -92l24 -24l39 -8l37 8l51 4l125 4l47 -16l13 -23l-5 -74l-36 -35l-39 -16l-117 -12h-236l-38 12l-33 41 l-6 47z" />
<glyph unicode="m" horiz-adv-x="927" d="M98 969l8 41v53l21 41l43 31l37 8l84 -53l12 -21l2 -72l27 -86l37 -206l16 -19l8 -45l45 -154l13 -36l6 -9l6 -8l16 8l21 37l10 84l12 90l8 25l9 74l12 30l8 82l16 27l5 33l8 12v33l12 67l16 62l27 32l47 25l64 -8l53 -64l8 -110l-8 -45l8 -23v-61l-4 -29v-405l8 -203 l-4 -76l-4 -65l-25 -33l-28 -17l-74 4l-18 37l-13 13l-4 49v26l8 41l-4 86l13 21l-2 31l12 55l-6 14l16 29l-16 16l8 54l-2 32l-19 15l-28 -39l-4 -82l-17 -25l-4 -80l-12 -49l-8 -53l-19 -66l-6 -51l-8 -12v-45l-39 -31l-49 -2l-45 33l-17 33v34l-16 76l-47 205l-25 45v25 l-16 45l-25 24l-8 -4l-8 -10l-4 -55l8 -142l16 -53l5 -186l-9 -54l-36 -20h-70l-55 61l-7 64l13 82l-11 16l13 37l-8 139v35l8 21l-13 55l13 115l-2 104l-6 121v35l-7 8l13 31z" />
<glyph unicode="n" horiz-adv-x="737" d="M106 1051l21 51l25 18l47 8l41 -14l43 -51l43 -96l20 -115l35 -113l68 -207l12 -12h8l12 17l-12 186l-23 223l3 127l18 29l39 26l31 -6l34 -28l29 -56l12 -141l4 -244l9 -198l4 -318l-8 -69l-23 -54l-29 -18l-49 -6l-39 33l-24 45l-35 137l-64 201l-24 55l-21 51l-14 45 v4l-12 12l-17 -20l13 -252l4 -76l6 -102v-68l-6 -20l-45 -45h-64l-26 33l-13 36l-6 328l-2 215l-4 213z" />
<glyph unicode="o" d="M102 893l23 96l39 74l57 45l55 12l58 19l53 4l137 -27l51 -31l54 -69l20 -74l2 -37l13 -88l-7 -43l2 -108l9 -41l-11 -131l11 -72l4 -166l-8 -12l8 -23l-15 -55l-8 -41l-16 -31l-49 -57l-60 -31l-164 -18l-73 10l-84 47l-51 64l-21 57l-16 129l-4 283zM256 846l8 -27 l4 -178l11 -57l-7 -82l4 -168l9 -129l45 -64l57 -24l49 8l68 55l10 45l-8 19l-8 266l-11 321l-16 123l-12 17l-33 26l-76 9l-14 -7l-60 -57l-8 -31z" />
<glyph unicode="p" horiz-adv-x="808" d="M109 426l8 16l-4 35l12 29l-8 24l8 35l-12 27l12 65l-6 35v47l-6 9l12 12v41l-6 59v72l-6 8v16l14 11v12l-14 8v17l20 12l-8 14l2 14l45 35l4 19l23 6h14l14 22l105 -8h59l135 -22l88 -41l19 -27l12 -8l45 -96l15 -45l6 -82l-15 -92l-6 -13v-20l-37 -64l-80 -69l-61 -29 l-96 -21l-80 9h-25l-16 -13l-21 -34v-80l11 -13l-6 -45v-73l8 -25l-8 -12l8 -56l6 -84l-14 -32l-43 -39l-48 -8l-20 28l-29 8l-4 23l-10 6l-8 6l8 72l-12 12l6 51l-2 68l10 35l-8 41v37l-2 51h-4zM295 657l12 -20l25 -8l63 -2l68 10l74 33l6 16l20 35l15 45l-7 98l-36 56 l-41 16l-60 22h-28l-107 -10l-4 -172l8 -18z" />
<glyph unicode="q" d="M109 741v39l4 148l32 102l33 43l2 4l37 10l2 19l8 8l23 -2l16 10h21l20 13l125 -5l92 -51l60 -51l37 -74l14 -96l20 -170v-233l11 -78l10 -125l-6 -23l4 -12v-10l-25 -31v-24h-8l14 -23l-18 -39l10 -8l27 -27l2 -28l-8 -31l-19 -23l-8 -4l-20 6l-15 -8l-28 6l-43 39 l-107 -39h-41l-4 -4h-18l-70 31l-23 4l-6 23l-39 16l-49 51l-43 96l-8 191v215l-6 14v78zM254 844l12 -13l-6 -30l8 -56l4 -106l-6 -43l10 -27v-86l9 -77l-9 -39l11 -43l-6 -39l6 -21v-47l8 -22v-35l12 -23l62 -18l37 14l-5 23l-41 53l19 41l27 10l75 -33l23 13l2 145 l-12 80l8 74l-13 22l9 57l-13 78l4 35l-6 14l-8 37l-4 70l-6 41l-6 47l-15 14l-30 19l-72 16l-47 -24h-29l10 -7v-12l-8 -10v-23l-10 -30z" />
<glyph unicode="r" horiz-adv-x="794" d="M111 25l6 131l6 8l-12 31l10 94v94l8 20l-8 74l2 314v73l-12 148l6 49l16 24l25 17l37 12l122 -12h33l109 -8l63 -13l72 -37l74 -81l8 -25l12 -12l12 -103l-4 -69l-20 -86l-86 -117l-17 -12v-54l17 -32l-8 -17l12 -45l12 -110l8 -21l-4 -31l6 -12l11 -43l20 -55l10 -86 l-6 -25l-45 -16l-12 -17l-41 -8l-25 25l-28 8l-27 53v66l-20 313l-13 41l-41 37l-45 16l-65 -8l-25 -41l-4 -57v-25l8 -10l-8 -35l4 -26l4 -64l13 -113l8 -98l-21 -49l-12 -12h-33l-12 -13l-78 17zM260 743l12 -84l25 -32l111 6l12 -6l90 32v15l33 28l10 27l10 62l-20 88 l-29 43l-33 20l-53 21l-123 8l-29 -21l-12 -24l8 -37l-8 -31l8 -22l-12 -39l8 -13z" />
<glyph unicode="s" horiz-adv-x="737" d="M113 283l8 24l39 21l43 -13l16 -8l25 -129l32 -41l60 -18l53 6l41 25l31 43l12 51l-4 53l-23 51l-59 68l-65 59l-158 168l-31 64l-12 163l4 99l18 86l45 39h13l8 12l14 12l37 8l55 13l72 -6l62 -23l83 -76h13l8 -20l43 -33l22 -37l9 -55l8 -12l-2 -43l-37 -31l-80 2 l-31 24l-45 86l-14 29l-72 47l-51 -2l-35 -26l-28 -31l-21 -55l8 -23v-49l9 -23l16 -28l39 -47l131 -134l94 -106l29 -51h14l8 -21l17 15l12 -9l-12 -26l12 -17v-10l10 -8l6 -147l-45 -99l-35 -24l-24 -31l-68 -39l-121 -14l-32 18l-60 16l-30 19l-47 59l-17 31l-4 51z" />
<glyph unicode="t" horiz-adv-x="800" d="M102 1055l13 24l28 4l9 21l41 33l157 -9l146 -16l116 12l25 -4l41 -28l20 -37v-37l-49 -33l-131 12l-22 -18l-9 -10v-201l7 -248v-473l-13 -49l-35 -33v-8l-26 -12l-35 12h-25v8l-41 21l-2 32l-14 9v65l-12 17l20 36l6 29l-14 25l14 28l2 54l5 55l8 6l-15 29l7 84v45 l-7 6l2 63l-16 37l16 33v68l9 51l-4 166l-5 55l-8 14h-45l-37 -24h-69l-33 24l-12 17v32z" />
<glyph unicode="u" horiz-adv-x="808" d="M115 1079l55 45l25 6l53 -6l41 -32l16 -50l-8 -53h-2l-10 -8v-12l20 -13l-8 -41l-2 -45l-14 -53l-5 -4v-4l5 -4h4l4 4h-4v12h4v-26l-8 -156l4 -61l4 -371l12 -21v-32l8 -17l70 -26h59l41 14l45 51l17 41l4 107l2 172l6 204l-8 52l-8 176l-11 20v70l-6 24l6 29l41 41 l31 12l53 -4l17 -16l20 -4l17 -31l-9 -94h-24l-8 -14l-5 -5v-8l21 -8l20 8l5 -4l-25 -24l16 -33l-12 -4l-4 -4l8 -17l-12 -8l4 -4h8l4 -375l-8 -8l8 -135l4 -146l-12 -22v-31l-61 -90l-25 -14l-4 -15l-29 -16h-20l-60 -37h-67l-15 -8l-26 16l-31 -8h-10l-39 29l-45 20 l-33 13l-16 26l-33 21l-29 47l-16 47l8 12l-12 51l8 142l8 163l-4 125v131l4 5l-12 49l-4 102z" />
<glyph unicode="v" horiz-adv-x="667" d="M100 1016l17 86l43 39l69 -19l33 -51l17 -57l8 -234l12 -30v-45l14 -15h13l20 35l10 86l13 63l8 134l12 18v45l17 43l63 31l47 -4l49 -64v-55l-4 -39l-12 -25l-4 -81l-8 -25l-5 -47l-12 -109l-12 -106l-10 -115l-13 -31l-8 -106l-18 -96l-6 -64v-33l-9 -26l-10 -68 l-8 -20l-43 -31l-49 -16l-47 16l-64 59l-4 115l-16 55v84l-13 39l-4 47l-18 29l10 68l-12 61l-23 133v35l-4 63l-12 25l-4 61l6 21l-2 20l-23 25l5 23z" />
<glyph unicode="w" horiz-adv-x="978" d="M98 1067l19 41l45 33l61 -21l41 -65l29 -330l16 -55v-31l10 -10h7l34 125l21 127l27 194l41 35l47 10l49 -12l33 -47l24 -156l41 -276l8 -13l4 -2l25 29l41 424l65 61l21 -12h29l45 -57l-7 -84l-55 -336l-20 -211l-17 -127l-20 -125l-4 -94l-13 -55l-20 -35l-37 -12 l-70 12l-32 20l-17 47l-12 148l-12 45l-4 57l-33 164l-19 49l-6 10h-16l-18 -30l-33 -226v-32l-2 -176l-11 -29l-20 -31l-37 -20l-74 4l-41 61l-28 252l-13 29l-12 158l-24 157v35l-25 160z" />
<glyph unicode="x" horiz-adv-x="825" d="M98 47l15 49l30 60l35 96l37 72l10 36l92 185l-2 59l-30 51l-19 78l-28 39l-19 74l-6 47l-20 29l-3 30l-12 17l-6 37l-33 79l11 29l34 23l66 6l37 -10l39 -48l18 -43l31 -92l6 -41l18 -51l9 -51l8 -21l16 -12l23 19l18 67l14 31l-2 20l13 21l20 76l14 20l21 98l55 27 l45 -12l25 -8l33 -7l14 -53l-18 -61l-21 -29l-6 -31l-49 -106l-21 -62l-43 -73l-18 -66l-29 -61l2 -45l33 -64l31 -92l22 -72l45 -121l29 -63l16 -76l-16 -26l-35 -25l-29 -2l-30 -14l-60 30l-30 41l-2 47l-13 52l-22 94l-35 102l-6 8l-14 2l-29 -45l-19 -65l-14 -47 l-12 -74l-17 -33l-12 -37l-35 -51l-92 -33l-41 11z" />
<glyph unicode="y" horiz-adv-x="774" d="M102 1028l4 72l27 24l29 9l4 -5l24 13h11l45 -29l41 -43l35 -117l10 -12l14 -70l23 -77l8 -37l16 -51h13l20 45l2 43l12 20l60 252l26 51l27 19h68l4 -7l26 -12l6 -26l15 -37l-21 -97l-20 -51l-6 -35l-13 -8l-4 -41l-8 -12l-4 -27l-18 -20l-9 -57l-16 -23l-4 -37l-23 -55 l-14 -29l-23 -147v-60l3 -39v-20l-11 -33l4 -59l13 -45h-6l-7 -6l13 -54l-9 -14v-12l3 -4l-19 -13l-16 -41v-10l-25 -8h-20l-15 -16l-37 16h-38l-33 55l-8 92l8 103l16 86l-8 14l8 47l-4 117l-43 139l-51 148l-21 59l-8 25l4 4l-41 108l-12 8z" />
<glyph unicode="z" horiz-adv-x="808" d="M100 98l21 74l33 59l104 181l18 20l15 33l33 45l86 217l18 27l25 55l26 51l19 55l-4 48l-13 12l-67 -4l-11 -8h-84l-141 -13l-55 21l-17 43l11 55l18 29l82 22l299 4l33 9l96 -25l31 -23l18 -38l6 -17l-6 -29l-41 -104l-22 -53l-45 -94l-47 -80l-39 -113l-27 -68 l-63 -110l-4 -27l-41 -71l-41 -56l-2 -24h-5l-10 -29l15 -18l178 14l112 12l56 -8l37 -43l-9 -39l-26 -43l-64 -35l-123 -14l-276 -6l-12 8h-15l-24 8l-6 2l-3 2h-8l-2 11l-20 20z" />
<glyph unicode="{" horiz-adv-x="661" d="M111 545l6 10l2 23l37 32l67 41l15 78l2 92l20 8l-8 13l8 94l62 117v14l40 16l35 37l76 25l27 -19l12 -51l-2 -61l-37 -33l-47 -43l-8 -57l-12 -35l-11 -45l11 -13l-25 -174l-68 -77v-13l-4 -2l25 -18l43 -25l8 -24l16 -54l9 -12l12 -115l12 -32l-10 -35l2 -4l18 -2 l11 -49l51 -31l43 -39l10 -57l-27 -48l-75 9l-66 18l-65 45l-19 41l-8 25l-20 73l-9 13l4 45l-10 33v14l-2 12l-8 39l-25 74l-63 31l-2 2l-8 -5l-27 19l-4 18l-4 4z" />
<glyph unicode="|" horiz-adv-x="397" d="M102 1055l21 30l6 23l29 25l65 6v-19l31 -12l22 -27l23 -39l-4 -137l-6 -98l10 -10l-16 -140l-7 -143v-57l9 -203v-31l2 -61l4 -4l-17 -74l5 -14l-25 -70l-23 -8h-34l-19 -10l-4 -2l-39 12l-18 14l-13 12v140l13 100l6 227l-8 185v207l-4 69v47z" />
<glyph unicode="}" horiz-adv-x="581" d="M68 1096l24 47l78 -8l68 -13l47 -49l34 -24l9 -25l20 -16l8 -47l11 -37l-5 -41v-140l13 -22l-4 -19l4 -8l37 -65l12 -15l14 -10l41 -41l-2 -14l4 -19l-4 -6v-22l-53 -33l-41 -41l-12 -61v-5l8 -16l-12 -147l8 -13l-25 -53l-33 -80v-12l-41 -16l-16 -25l-106 -18l-27 18 l-23 49l9 51l69 37l23 45l2 45l12 31l-4 6l-6 82l-8 12l24 121l62 62v12l-39 18l-21 45l-8 27l-10 74l4 35l-14 106l-2 80l-39 49l-37 12l-45 39z" />
<glyph unicode="~" horiz-adv-x="950" d="M109 854l6 57l41 93l92 53l86 30l90 -10l90 -61l61 -41l50 -2l45 26l24 37l31 37l51 8l53 -22l19 -49l-19 -84l-51 -80l-63 -47l-88 -17l-80 2l-131 76l-47 41l-33 4l-25 -22l-14 -35l-10 -41l-27 -33l-49 -6l-49 8l-41 25z" />
<glyph unicode="&#xa2;" horiz-adv-x="690" d="M100 352v10h6l5 46l-7 8l7 14l-5 19l11 30l4 68l6 12l-2 92l2 84l-10 39l8 70v2l6 8v37l10 31l19 32l45 41l78 21l-2 82l10 26v23l4 2l27 -10l12 6l47 -31h10l25 -33l-2 -47l53 -12l10 -12h10l43 -39l31 -37l21 -53l6 -84l-17 -37l-32 -15l-37 5l-27 16l-31 47l-14 72 h-20v-242l4 -8l-11 -27l17 -22l-2 -37l-10 -14l-2 -48l20 -32l-10 -226l12 -14l18 41l15 80l31 18h61l27 -26l-5 -111l-40 -74l-31 -37l-58 -30h-26v-58l-35 -20l-4 -18l-12 -9l-50 9l-18 43l-14 67l-37 16l-57 27l-62 53l-4 52l-6 2l-10 24l-7 84zM246 307l10 -22l2 -31 l21 -37l24 8l-8 258l-2 232l-6 164l-25 -5l-12 -40v-52l2 -243l-2 -160z" />
<glyph unicode="&#xa3;" horiz-adv-x="790" d="M61 78l17 57l24 55l84 62l58 4l-11 57l-8 33l-6 98l-31 31l-36 -4l-13 4l-18 17l6 8l-23 41l17 63l55 6l21 25l-27 141l-10 49l4 2v74l12 31l8 35l90 127l35 12l15 18l84 4l63 -14h27l34 -14l23 -19l47 -47l25 -55l16 -55l4 -121l-16 -51l-17 -13h-67l-25 25l-14 104 l-19 56l-71 49l-66 2l-49 -55l4 -25l10 -37l-4 -4v-53l4 -58l23 -81l2 -29l72 -12l39 4l36 -27l17 -57l-12 -47l-29 -27h-117l-12 -31l29 -145l4 -51l39 -58l53 -43l43 -2l37 53l22 37l27 37l43 6l45 -22l16 -49l-16 -82l-43 -82l-55 -45l-74 -17h-70l-84 41l-24 -4l-68 -47 l-72 -4l-88 14l-14 31l-14 8zM172 96l18 -24l33 -9l23 13l6 33l-4 34l-33 4l-29 -22z" />
<glyph unicode="&#xa5;" horiz-adv-x="749" d="M96 418l8 51l43 37h150l-16 65l-21 23h-16l-13 10l-67 -12l-39 12l-23 39v72l23 30l82 25l-19 80l-22 37l6 10l-25 80l-12 14h-4l-8 13l-21 18v70l45 38l50 13l59 -31l35 -55l33 -107l16 -39l8 -57l14 -37l29 -106l6 -6l11 6l16 26l80 334l24 47l35 21h58l32 -25l25 -59 l-29 -125l-41 -113l-8 -41l8 -14l35 -12l19 -25l6 -49l-17 -53l-53 -39h-70l-16 -47l8 -21l107 4l16 -8h2l19 -63l-5 -48l-38 -45l-31 -18l-98 4v-66l-15 -36l15 -90l-3 -95l-32 -47l-8 -20l-37 -8l-15 -13l-37 17h-36l-41 65v123l14 117l2 61l-45 6l-41 -14l-6 8l-57 2 l-46 21z" />
<glyph unicode="&#xa8;" horiz-adv-x="819" d="M164 1352l20 41l33 16l80 -8l63 -39l9 -8l10 -2l39 41l31 12l36 12h35l55 -37l17 -6l24 -41v-35l-32 -75l-62 -25l-94 14l-27 23l-18 43l-2 2l-33 -27l-10 -26l-33 -15l-49 -2l-14 9l-39 4l-27 49z" />
<glyph unicode="&#xa9;" horiz-adv-x="995" d="M88 616v9l12 10l-6 14v39l-6 70l16 86l11 12l-6 10v29l34 80l21 29l8 28l104 76l50 8l90 19l14 -9l84 27l117 -10l121 -68l67 -84l27 -73l8 -44l20 -180l15 -67l-15 -21l13 -145l8 -12v-82l-18 -17l-29 -125l-12 -30v-29l-5 -12v-19h-10l-2 -24l-45 -62l-69 -39h-33 l-25 -16h-51l-102 -21l-60 17l-12 10l-156 4v19l-35 26l-34 45l-21 4v37l-16 10v31l-49 127v84l6 55l-19 152zM238 530l4 -145l30 -160l15 -35l143 -71l59 -19l9 9l16 2l41 14l117 37l28 28l33 76l-6 6v31l-8 12l8 45l12 74l-4 82l-10 158v114l-37 93v26l-49 70l-135 39 l-21 -15l-114 -22l-70 -39l-10 -37l-17 -10l-22 -41l-12 -78l8 -47l-8 -31l4 -94l4 -59zM283 606v182l16 54l10 16v8l51 49l74 27h17l8 6l63 -10l53 -29l46 -51l18 -35l8 -47l-14 -47l-8 -14l-27 -13h-35l-24 19l-33 63l-10 29l-23 14l-31 2l-16 -10l-27 -43l-2 -59l9 -12 v-109l6 -133v-39l6 -66l16 -43l29 -22l33 -4l26 8l23 41l2 45l8 18l31 23h45l20 -14l19 -41v-50l-15 -18l-4 -37l-26 -35l-74 -45l-64 -16l-47 8l-26 8l-25 19l-14 2l-39 33l-21 28l-20 70l-8 43z" />
<glyph unicode="&#xab;" horiz-adv-x="1058" d="M98 510l2 10v2l4 43l31 41l152 160l159 176l23 23l29 -9l22 -36l10 -60l-24 -74l-174 -200l-33 -45l-2 -17l2 -14l88 -117l68 -57l80 -74l4 -12l6 -8l-8 -70l-23 -39l-47 -12l-31 6l-117 123l-75 82l-68 78l-22 14l-29 33zM494 516l2 10l-2 11l26 53l31 33l20 14l68 78 l80 82l117 123l30 6l47 -11l23 -38l10 -56l-6 -8l-6 -29l-80 -73l-14 -9l-142 -163l-2 -17l4 -16l31 -53l174 -191l25 -76l-10 -59l-23 -37l-29 -6l-24 20l-160 177l-154 159l-28 41z" />
<glyph unicode="&#xad;" horiz-adv-x="786" d="M102 598l13 53l49 41l106 10l25 3l330 -9l59 -63l-10 -25v-39l-53 -32l-232 8l-207 -17l-61 17z" />
<glyph unicode="&#xae;" horiz-adv-x="641" d="M43 631l2 55l6 55l-6 25l6 16l-6 146l4 76l29 59l41 41l41 26l53 17l66 4l81 -6l35 -12l41 -7l25 -16l4 -8l51 -12l31 -33l26 -47v-11l9 -6l-4 -63l6 -23l-15 -49l4 -96l-4 -4l4 -27v-74l-12 -88l-4 -8v-20l-14 -41l-17 -29l-41 -27l-39 -20l-120 -18l-15 -7l-49 9l-59 4 l-27 28h-12l-23 11h-18l-31 38l-10 21l-10 31l-17 28l-6 49zM150 868l8 -12l-2 -217l12 -82l25 -20l12 -13l63 -16l101 10l61 19l21 41v36l8 66l-8 16l6 56l-6 26l6 37l6 37l6 6l-4 100l-10 19l-15 20l-6 -2l-39 35l-43 8h-123l-10 -12l-43 -22l-12 -21zM190 588l3 55l-3 6 l3 39v35l4 6l-4 23l2 114v27l-5 51l3 25l10 14l12 10l21 6l47 -6h10l41 -2l26 -6l29 -16l31 -33l4 -8l6 -6l4 -45l-2 -27l-8 -37l-35 -47v-6l8 -15l-4 -8l2 -12l4 -37l4 -10v-8q0 -1 2.5 -10.5t2.5 -10.5l8 -18l4 -37l-6 -21l-19 -8l-6 -6l-31 -6l-12 12l-12 4l-15 29v29 l-8 108l-2 8l-8 7l-8 4l-14 -2l-3 -21l5 -6l-2 -16v-9l2 -24l4 -39l2 -39l-11 -25l-10 -12h-12l-4 -6l-47 10zM279 848l2 -23l36 2l17 4q2 2 6 6.5t6 6.5l2 4l2 16l-4 27l-8 8l-6 4l-15 6l-38 2l4 -12l-2 -8l2 -10l-4 -11l2 -4z" />
<glyph unicode="&#xb4;" horiz-adv-x="819" d="M330 1264l8 24l31 27l73 31l11 14l20 16l16 10l46 33l49 23l24 -2l39 -27l17 -43l-31 -76l-41 -26l-21 -15l-45 -16l-8 -20l-63 -43l-39 -7l-23 4l-24 31l-23 15z" />
<glyph unicode="&#xb8;" horiz-adv-x="819" d="M330 -80l6 66l-4 28l8 21l72 12l53 -6v-10l-2 -21l4 -18l10 -19l58 -20h6l47 -53l4 -17l6 -8l4 -41l-10 -70l-21 -32l-41 -31l-81 -12l-62 2v10l-25 14l-28 39v33l2 18l59 27l51 -20l15 4l10 18l-4 16h-2l-14 11l-74 20l-19 17h-16z" />
<glyph unicode="&#xbb;" horiz-adv-x="1064" d="M94 821l10 56l23 38l47 11l31 -6l117 -123l77 -82l70 -78l20 -14l31 -33l27 -53l-2 -11l2 -10l-8 -35l-29 -41l-154 -159l-161 -177l-23 -20l-29 6l-22 37l-10 59l24 76l174 191l31 53l4 16l-2 17l-141 163l-15 9l-80 73l-6 29zM498 242l6 8l4 12l80 74l67 57l90 117 l3 14l-5 17l-32 45l-174 200l-25 74l10 60l25 36l26 9l25 -23l158 -176l153 -160l29 -41l4 -43v-2l2 -10l-24 -53l-31 -33l-21 -14l-67 -78l-78 -82l-117 -123l-31 -6l-47 12l-20 39z" />
<glyph unicode="&#x2c6;" horiz-adv-x="819" d="M158 1239l6 27l61 69l49 47l48 39l8 15l24 20l43 23l17 -4l35 -2l30 -23l99 -94l84 -86l20 -23l-8 -30l-41 -31l-49 -8l-47 39l-109 88l-37 -5l-41 -30l-33 -39l-51 -53l-10 -2l-10 -9l-41 11l-37 20z" />
<glyph unicode="&#x2da;" horiz-adv-x="819" d="M266 1204l2 70l37 67l53 37l50 13l36 -5l82 -26l9 -12l20 -15l25 -28l12 -31l6 -49l-12 -68l-21 -35l-39 -30l-32 -13l-88 -14l-52 10l-59 33l-19 49zM379 1223l8 -15l12 -28l23 -19l31 -4l24 19l15 32l-3 33l-6 6l-4 17l-22 26h-15h-20l-21 -10l-16 -23z" />
<glyph unicode="&#x2dc;" horiz-adv-x="819" d="M145 1235l7 43l30 68l68 38l63 25l68 -10l63 -43l41 -29h29l29 16l14 25l25 29l43 6l43 -19l16 -41l-14 -61l-39 -59l-47 -35l-64 -12h-61l-94 55l-31 29l-17 2l-12 -13l-10 -20l-6 -33l-23 -25l-39 -6l-39 6l-32 21z" />
<glyph unicode="&#x400;" horiz-adv-x="788" d="M98 993l19 -20v-55l4 -349l8 -37l-4 -239v-215l16 -27l41 -26l123 -17l137 -8l107 12l22 -8l60 21l47 32v80l-47 31l-185 -8l-124 -10h-37l-21 34l2 320l19 12l129 -4l194 -6l35 18l27 33v39l-17 33l-51 28l-88 9l-20 -9l-117 -4l-39 -4h-49l-31 45l6 43l8 17l-14 106 l6 98l35 27l70 -6l65 -12h180l27 18l14 25l-2 53l-30 39l-37 20l-164 4h-248l-45 -41l-20 -22zM102 1452l17 18l22 37l54 2l149 -147l10 -14l43 -54l4 -41l-18 -30l-33 -17l-67 21l-86 104l-84 82z" />
<glyph unicode="&#x401;" horiz-adv-x="761" d="M94 1032l25 58l69 32l324 6l6 5l107 -21l49 -55v-49l-49 -45h-191l-16 6l-39 -6h-86l-12 -15l-9 -119v-59l9 -74l-13 -20l8 -39l17 -12h166l24 10l58 2h43l45 -6l35 -39l6 -45l-13 -37l-28 -29l-49 -16l-291 -6l-13 -21l5 -268l24 -20l49 4h33l68 12l75 8h54l69 -20 l21 -29l-4 -72l-54 -45l-112 -8h-125l-158 -8l-55 8l-43 33l-17 24l-4 60l9 65l8 207l4 146v137l-12 215zM211 1350l20 39l31 16l76 -8l59 -37l9 -8l10 -2l37 39l28 12l35 12l35 -2l51 -35l16 -4l23 -41v-31l-31 -73l-59 -23l-90 15l-25 20l-16 41l-4 2l-29 -27l-10 -24 l-33 -14h-45l-14 8l-39 2l-25 47z" />
<glyph unicode="&#x402;" horiz-adv-x="923" d="M47 1055l12 24l29 4l8 21l41 33l158 -9l145 -16l117 12l25 -4l41 -28l20 -37v-37l-49 -33l-131 12l-23 -18l-14 -25l-6 -67v-94l-12 -54l-2 -45l14 -12l26 23l107 16l98 -12l97 -56l47 -63l34 -123l-14 -47l8 -14v-25l4 -156l4 -139l-6 -25l-6 -55l-10 -57l-21 -45 l-38 -62l-70 -51l-82 -12l-6 -4l-31 8l-20 22l-4 84l32 33h31l33 17l29 38l14 33l8 84l-4 103l-4 118l8 117l-18 80l-29 49l-41 29l-64 -4l-57 -23l-65 -69v-238l14 -49l-8 -21l14 -26l-10 -68l10 -59v-21l-35 -28l-33 -9l-14 7l-51 28l-29 56l-4 350l8 131l-4 315v62l-4 55 l-8 14h-45l-37 -24h-70l-32 24l-13 17v32z" />
<glyph unicode="&#x403;" horiz-adv-x="718" d="M104 997l11 33v51l30 39l27 15l303 6l66 -13l49 -30l20 -29l4 -41l-16 -43l-82 -24l-20 8h-127l-29 16l-51 -24l2 -97v-129l8 -8l-4 -109v-32l4 -29v-31l-4 -133l8 -31l-8 -26l16 -176l-20 -97l-33 -36l-10 2l-15 -15l-32 -6l-35 -12l-31 39l-10 41l-6 63v45l12 41l-6 11 l2 112v62l8 36l-10 119l10 84l-10 33l2 158l-8 12l-4 39l-4 92zM295 1264l8 24l31 27l74 31l10 14l20 16l17 10l45 33l49 23l24 -2l39 -27l17 -43l-31 -76l-41 -26l-20 -15l-45 -16l-9 -20l-63 -43l-39 -7l-23 4l-24 31l-23 15z" />
<glyph unicode="&#x404;" horiz-adv-x="802" d="M106 209v274l5 340l12 62l31 102l30 43l56 47l24 4l35 27l39 12l70 10l127 -22l108 -66l35 -51l8 -55l21 -27v-71l-25 -60l-27 -18h-65l-45 33l-10 26l-5 66l-34 63l-43 15l-84 -9l-47 -32l-23 -68l-12 -98l4 -97l8 -10l242 -10l59 -64l-10 -24v-39l-53 -33l-232 8 l-26 -12v-137l-11 -21l2 -92l41 -67l27 -17l82 6l35 23l16 41l51 96l35 27h47l39 -19l12 -20l19 -68l-10 -69l-29 -52l-66 -73l-77 -43l-125 -13l-13 9h-24l-23 8l-86 31l-76 69v12l-14 25z" />
<glyph unicode="&#x405;" horiz-adv-x="788" d="M102 272l13 39l84 35l55 -8l20 -21l9 -10l6 -65l10 -27l8 -43l39 -39l96 -10l19 8l39 119l-13 57l-22 47l-78 88l-172 168l-29 21l-57 114l-8 54l-10 16v76l18 47l12 41l74 82l92 45l88 20l72 -8l94 -53l80 -86l39 -84l6 -53l-6 -49l-35 -17l-76 4l-37 23l-49 104l-57 54 h-78l-35 -33l-6 -29l-8 -10v-74l8 -43l31 -45l31 -31l30 -43l131 -135l105 -127l33 -96l-9 -119l-49 -100l-26 -41l-31 -17l-31 -22l-143 -19l-133 41l-43 25l-37 49l-29 31l-26 113v24z" />
<glyph unicode="&#x406;" horiz-adv-x="403" d="M111 25v45l8 163v66l14 231l6 60v65l6 144l-10 26l-8 70l6 53v51l-10 78l16 31l66 39l86 -66l10 -20l-10 -70l-2 -131l-13 -55v-500l9 -31l-15 -41v-208l-43 -31l-65 6z" />
<glyph unicode="&#x407;" horiz-adv-x="454" d="M-25 1348l48 63l18 12h72l45 -12l26 -35v-37l-18 -22l18 -43l-41 -35h-16l-21 -27l-88 17l-8 31l-28 32zM123 819l10 101v153l8 31l54 31l73 -7l33 -65l8 -88l-4 -57l4 -590l17 -115l4 -107l-19 -57l-30 -39l-64 -30l-55 24l-23 53l6 217v299l-10 220zM248 1305v59l26 41 l17 16h88l41 -8l16 -8l27 -49l8 -23l-4 -78l-16 -26h-41l-39 -27l-49 8l-35 19l-25 31z" />
<glyph unicode="&#x408;" d="M102 293l17 33l37 26h69l43 -59l6 -96l35 -45l45 -19l47 12l52 33l39 58l12 151l-10 33v115l-7 122v93l-4 176l4 49l9 12l-15 78l45 72l62 -9l28 -28h13l35 -94l12 -109l-8 -23v-120l-4 -92l-11 -152l11 -82l-13 -127l8 -53l-30 -103l-25 -55l-67 -76l-52 -16l-16 -12 l-80 -9l-24 -4l-134 33l-77 82l-43 64z" />
<glyph unicode="&#x409;" horiz-adv-x="1265" d="M63 10v70l27 37l33 16l47 12l51 33l39 58l12 151l-10 33v115l-6 122v93l-4 176l4 49l8 12l4 14l4 74l37 35l39 16h8l109 13h235l39 -13l33 -41l6 -47l13 -37l-11 -38l-2 -80l-10 -99l-4 -125l2 -34l8 -7l39 -6l80 9l96 -21l62 -29l79 -69l37 -64v-20l7 -12l14 -93l-6 -82 l-15 -45l-45 -96l-12 -8l-18 -27l-88 -41l-136 -22h-59l-104 -8l-62 12l-10 4l-23 27l-6 30l-16 56l4 176v82l4 141l-8 20l12 70l-12 66l8 186l8 92l-24 25l-39 8l-37 -8l-51 -4l-9 -9l-6 -4l6 -57l-8 -23v-120l-4 -92l-10 -152l10 -82l-12 -127l8 -53l-31 -103l-24 -55 l-68 -76l-51 -16l-16 -12l-80 -9l-25 -4zM772 334l4 -172l107 -10h28l60 22l41 16l37 56l6 98l-15 45l-20 35l-6 16l-74 33l-68 10l-63 -2l-25 -8l-12 -20l8 -101z" />
<glyph unicode="&#x40a;" horiz-adv-x="1202" d="M119 201l22 393l-10 313l-12 199l49 24l68 -8l24 -12l27 -66l-19 -339l17 -35l20 -15h154l49 21l14 20l-16 391l8 25l33 21l53 16l29 -4l33 -45l8 -62l6 -20l-10 -47l10 -92l-6 -107l4 -39l-2 -61l33 -33l79 8l97 -20l61 -29l80 -70l37 -63v-21l6 -12l14 -119l-6 -82 l-14 -45l-45 -96l-13 -8l-18 -27l-88 -41l-135 -22h-60l-43 16l-14 2l-14 -12l-8 2l-29 -4l-35 4l-39 29l-10 57l14 356l-8 47l-20 15l-199 -8l-19 -15l-4 -182l13 -147l6 -111l-25 -33l-35 -28l-90 20l-14 25zM664 276l4 -114l106 -10h29l59 22l41 16l37 56l6 125l-14 45 l-21 35l-6 16l-74 33l-67 10l-64 -2l-24 -8l-12 -21l8 -100l-8 -19v-84z" />
<glyph unicode="&#x40b;" horiz-adv-x="935" d="M39 1055l12 24l29 4l8 21l41 33l158 -9l145 -16l117 12l24 -4l41 -28l21 -37v-37l-49 -33l-131 12l-23 -18l-8 -10l-14 -60l14 -41l-8 -30l8 -88l-8 -7l4 -14l49 29h68l14 8l27 -16l30 8h10l39 -29l45 -20l33 -13l17 -26l32 -21l29 -47l16 -47l-8 -12l13 -51l-9 -142 l-4 -2l-4 -4l12 -49l5 -102l6 -136l-56 -45l-24 -6l-53 6l-41 33l-17 49l8 53h2l11 9v12l-21 12l8 41l2 45l7 49v27v170l-13 20v33l-8 17l-70 26h-59l-41 -14l-45 -51l-10 -25l-12 -31l6 -14l-8 -6l10 -129l12 -55l2 -131l10 -70l-10 -21l-86 -65l-65 39l-17 31l10 77v52 l-6 53l8 69l11 27l-6 143v66l-7 59l-14 232l2 80l-4 55l-8 14h-45l-37 -24h-70l-33 24l-12 17v32z" />
<glyph unicode="&#x40c;" d="M88 967l12 61v37l52 45l53 4h12l43 -53l-6 -103l-8 -57l-2 -53l-8 -25l12 -45v-35l6 -10l29 33l55 94l14 45l29 62l14 57l33 66l55 45l62 4l10 12h18l52 -74l-13 -53l-51 -88l-82 -123l-2 -20l-31 -41l-24 -62l8 -39l39 -84l10 -47l35 -69l33 -82l26 -47l5 -37l51 -70 l8 -53l41 -41l-6 -70l-49 -49l-103 12l-49 58l-18 41l-4 30l-13 19l-2 37l-20 24l-4 29l-17 24l-43 175l-22 47l-4 2l-45 -49l-27 -74l8 -35v-61l23 -181l8 -61l-8 -25l-45 -28l-25 -13l-29 17l-32 4l-37 57l2 58l10 73l-12 54l2 106l-11 158l-4 110v45l-8 21l6 178l-6 96z M289 1264l10 39l84 81l86 105l68 20l32 -16l19 -31l-4 -41l-43 -53l-11 -14l-149 -148l-53 2l-23 37z" />
<glyph unicode="&#x40d;" horiz-adv-x="747" d="M100 1053l9 -99l20 -63l4 -62l4 -118l-2 -129l-6 -148l-2 -135l-4 -231l24 -64l50 -22l34 -2h13l47 59l67 225l11 37l26 61l51 150l15 43l2 4l14 2l12 -20l-18 -185l4 -67l-10 -96l8 -150l12 -27l72 -34l45 12l25 33l12 59l4 98l-4 131l4 54l-16 288v58l8 43l-4 51l6 39 l-4 47l-4 123l-17 18v17l-55 43l-29 10l-69 -14l-29 -45l-33 -203l-61 -207l-25 -41l-14 -74l-14 -26l-7 -9l-14 27l8 84l13 186l-2 43l4 131l-6 91l-17 22l-10 31l-25 14l-73 -6l-27 -20l-8 -3zM102 1452l17 18l22 37l54 2l149 -147l10 -14l43 -54l4 -41l-18 -30l-33 -17 l-67 21l-86 104l-84 82z" />
<glyph unicode="&#x40e;" horiz-adv-x="774" d="M102 1028l4 72l27 24l29 9l4 -5l24 13h11l45 -29l41 -43l35 -117l10 -12l14 -70l23 -77l8 -37l16 -51h13l20 45l2 43l12 20l60 252l26 51l27 19h68l4 -7l26 -12l6 -26l15 -37l-21 -97l-20 -51l-6 -35l-13 -8l-4 -41l-8 -12l-4 -27l-18 -20l-9 -57l-16 -23l-4 -37l-23 -55 l-14 -29l-23 -147v-60l3 -39v-20l-11 -33l4 -59l13 -45h-6l-7 -6l13 -54l-9 -14v-12l3 -4l-19 -13l-16 -41v-10l-25 -8h-20l-15 -16l-37 16h-38l-33 55l-8 92l8 103l16 86l-8 14l8 47l-4 117l-43 139l-51 148l-21 59l-28 16l-21 37l41 -28l4 4l-41 108l-12 8zM102 1356l9 33 l41 30l49 8l49 -38l76 -89l57 -2l68 25l43 49l24 55l10 3l11 8l43 -11l36 -20l9 -41l-6 -27l-60 -69l-35 -31l-24 -12l-17 -21l-39 -22l-59 -17l-16 2l-33 5l-70 22l-61 53l-84 86z" />
<glyph unicode="&#x40f;" horiz-adv-x="780" d="M119 926l8 176l14 24l90 21l35 -29l25 -33l-6 -110l-13 -148l4 -182l11 -76l-19 -340l15 -55v-14l12 -6l199 -9l20 15l-6 41l14 20l-16 391l8 25l8 47l-14 356l10 58l39 49l35 4l14 -8l-12 -23l14 -10l13 8v8l8 2l14 -12l2 -37l17 -26l6 -72l-6 -295l12 -266l-4 -66 l6 -106l-10 -92l10 -47l-6 -21l-8 -61l-33 -45l-29 -5l-53 17l-47 -4l-8 -10v-84l-48 -86l-55 -9l-45 23l-16 22l-9 70v70l-18 10l-65 8l-54 -4l-49 25l-2 194l10 313z" />
<glyph unicode="&#x410;" horiz-adv-x="866" d="M102 59l4 19l3 37l36 71l7 37l18 56l23 114l18 70l12 29l6 69l15 41l6 57l12 19l8 37l58 307l26 68l29 30l16 2l115 -8l37 -29l27 -59l36 -219l35 -156l4 -53l29 -100v-39l8 -25l12 -84l11 -26l6 -41l18 -43v-33l17 -68l8 -71l-29 -50l-39 -24l-51 6l-33 18l-32 37l-7 49 l-32 103l-17 12l-71 8h-54l-43 -12l-20 -27l-6 -53l-9 -80l-36 -55l-39 -29l-72 4l-33 9l-20 30zM379 383l18 -16h13l92 4l16 16v31l-10 65l-12 31l-2 96l-11 25l-2 43l-14 20h-8l-21 -26l-4 -27l-10 -27l-14 -116l-13 -19z" />
<glyph unicode="&#x411;" horiz-adv-x="813" d="M90 74l6 170v143l-6 68l8 20l-8 41l6 49v158l2 82l4 82l-4 155l19 52l35 14l20 -4l16 6l45 -4l11 4l20 -8l37 6l31 -6l28 8l35 6l39 -6l90 8l43 -6l35 -16h31l39 -17l10 -20l8 -29l-4 -37l-18 -35l-35 -10l-35 10l-172 -2l-88 7l-16 -5l-19 -4l-16 -10l-4 -20v-58l-9 -32 l-4 -70l-10 -21v-116l21 -27h14l45 8l86 13l102 -15l115 -76l45 -81l12 -62l13 -63l-13 -25l9 -27l-29 -104l-66 -111l-122 -65l-78 -17l-21 9l-37 -9l-12 9h-172l-49 24l-27 41zM262 176l4 -26l17 -11l53 2h49h29l24 19l37 8l62 70l16 45l-12 110l-21 29l-16 12l-41 8 l-37 23l-53 -10l-62 14h-16l-21 -20v-76l-4 -183z" />
<glyph unicode="&#x412;" horiz-adv-x="849" d="M98 897l4 150l13 24l63 37l68 6l43 6l141 -6l102 -37l86 -76l52 -98l20 -96l-2 -156l-59 -90l4 -31l76 -84l28 -96l8 -92l-20 -82l-47 -92l-92 -76l-117 -24l-131 -13l-125 4l-43 25l-25 35l-12 55l-10 84l6 209l-8 55l-10 232l-9 32zM262 918l14 -295l13 -21h8l129 4 l96 51l23 41l12 84l-22 68l-97 111l-45 12l-114 -12l-13 -15zM289 414l2 -232l12 -47l23 -20l12 -4l88 8l45 12l70 33l41 63l10 45l-19 107l-45 51l-43 25l-125 4l-47 -4l-24 -17v-24z" />
<glyph unicode="&#x413;" horiz-adv-x="718" d="M104 997l11 33v51l30 39l27 15l303 6l66 -13l49 -30l20 -29l4 -41l-16 -43l-82 -24l-20 8h-127l-29 16l-51 -24l2 -97v-129l8 -8l-4 -109v-32l4 -29v-31l-4 -133l8 -31l-8 -26l16 -176l-20 -97l-33 -36l-10 2l-15 -15l-32 -6l-35 -12l-31 39l-10 41l-6 63v45l12 41l-6 11 l2 112v62l8 36l-10 119l10 84l-10 33l2 158l-8 12l-4 39l-4 92z" />
<glyph unicode="&#x414;" horiz-adv-x="948" d="M61 0l5 80l26 37l33 16l47 12l41 33l14 58l13 151l-11 33v115l-6 122v93l6 41l-6 20l6 66l25 104l35 47l119 92l88 17l206 -4l39 -103l-4 -137l8 -25l-10 -84l-4 -125v-57l8 -22l-4 -152l4 -231l4 -64l19 4l78 -2l22 -26l8 -54l-4 -28l4 -88l-8 -74l-18 -25l-60 -24 l-61 43l-6 57v23l-15 12l-26 2l-21 -8l-53 12l-65 -12l-187 8l-92 8l-25 -24l3 -60l-17 -47l-22 -12l-74 4l-35 37l-16 39l-6 8v86zM365 145l6 -24l49 4l125 -4h10l4 168v82l4 141l-8 20l12 70l-12 66l10 196l8 13l-2 86l-20 28l-23 2l-32 -6l-45 -20l-41 -37l-19 -53 l-2 -121l6 -41l-8 -21l-2 -82l4 -102l10 -82l-12 -127l8 -53z" />
<glyph unicode="&#x415;" horiz-adv-x="811" d="M104 162l13 78v194l-4 109l-4 358l-5 133l33 47l47 27l43 8l244 -14h168l33 -25l39 -39l-6 -57l-21 -31l-51 -20l-109 8l-63 12h-133l-31 -2l-16 -18l4 -189l-4 -94v-29l36 -20l107 -4l61 12l121 4l66 -20l20 -51v-50l-45 -43h-287l-57 -4l-22 -24l4 -148v-67l6 -47 l14 -21l12 -8l148 12l57 11h121l21 -11l28 -41l10 -47l-6 -16l-49 -51l-155 -13l-312 4l-35 13l-20 26l-12 21z" />
<glyph unicode="&#x416;" horiz-adv-x="909" d="M94 1044l10 39l35 25l29 8l59 -8l43 -37l15 -37l14 -8v-29l25 -67l24 -76l23 -76l8 -16l12 -8l8 274l29 55l51 29l15 6l32 -8l35 -29v-20l-10 -60l-4 -94l-6 -69l16 -84l21 24l18 72l14 37l13 47l-7 24l29 58l6 43l11 31l69 49l43 -15h29l22 -57l-10 -41l2 -8v-10 l-22 -29l-9 -35l-104 -266l-29 -88l-12 -27l64 -135l26 -72l39 -108l27 -60l34 -67l15 -60l-43 -45l-41 -8l-17 -12l-14 4l-16 20l-13 -4l-20 9l-29 36l-12 72l-39 131l-33 92l-12 6l-18 -8l12 -53v-94l-4 -53l12 -111v-41l-53 -29l-37 9l-37 28l-29 78l-4 143v121l-20 10 l-31 -61l-37 -188l-24 -68l-29 -37l-10 -12l-33 -4l-39 -19l-45 9l-33 51l8 51l33 61l19 82l26 45l19 70l33 59l20 62l35 72l-4 43l-8 24l-31 60l-21 61l-24 27l-8 32l-19 76l-26 41l-31 109z" />
<glyph unicode="&#x417;" horiz-adv-x="780" d="M102 205l4 33l25 49l14 16l50 -6l8 10h4l8 -28l27 -13l10 -20l4 -41l8 -23l12 -53l33 -29l129 9l8 12l46 20l36 43l17 37v86l-8 45l-17 41l-69 60l-95 12h-18l-4 -6l-45 18l-21 29l13 72l81 32l64 17l74 71l16 60l8 43v51l-20 47l-29 43l-61 37l-45 4h-27l-37 -29 l-29 -55l-24 -123l-16 -16h-64l-33 28l-24 33l8 117l33 82l45 55v6l30 2l11 13l18 8l21 20l81 4l5 5l63 -9l12 -8l41 -4l37 -10l60 -41l61 -90l25 -92l12 -15l-8 -22l-13 -125l-16 -19l-4 -28l-21 -52l-24 -12v-12l-27 -37v-29l88 -100l13 -41l12 -51l-8 -33l8 -41l-16 -92 h-5l-8 -8l4 -19v-10l-47 -74l-90 -57l-53 -8l-4 -4l-45 -2l-31 -8l-41 8h-49l-17 14h-24l-31 27h-14l-80 100l-8 41l-4 27z" />
<glyph unicode="&#x418;" horiz-adv-x="747" d="M98 725l4 53l-4 131l4 99l13 59l24 33l45 12l72 -35l12 -26l8 -150l-10 -96l4 -68l-18 -184l12 -21l15 3l2 4l14 43l51 149l27 62l10 36l68 226l47 59h12l35 -2l49 -22l24 -64l-4 -231l-2 -136l-6 -147l-2 -129l4 -119l4 -61l21 -64l8 -98l-18 -35l-9 -2l-26 -20l-74 -7 l-25 15l-10 31l-16 22l-6 90l4 131l-2 43l12 187l8 84l-14 26l-6 -8l-15 -27l-14 -73l-24 -41l-62 -207l-33 -203l-28 -45l-70 -14l-29 10l-55 43v16l-16 19l-4 123l-5 47l7 39l-5 51l9 43v57z" />
<glyph unicode="&#x419;" horiz-adv-x="753" d="M96 170l13 8l-3 139l9 33v70l6 61l-6 15l12 249l2 115l-12 158l24 49l35 27l64 14l32 -21l17 -28l4 -146l-17 -120l-8 -256l13 -13l69 123l12 45l13 53l57 136l21 112l49 94l26 17l52 10l20 -6l37 -21l20 -69v-74l-6 -61v-31l-2 -119v-69l17 -99l-21 -139l-8 -150l20 -81 l-26 -152l-27 -45l-20 -12h-70l-37 32l-8 91l8 36l4 117l13 172l4 68l8 76l-17 16l-16 -12l-37 -99l-37 -92l-69 -172l-54 -156l-18 -28l-72 -37l-59 45v29l-18 24zM127 1356l8 33l41 30l49 8l49 -38l76 -89l58 -2l67 25l43 49l25 55l10 3l10 8l43 -11l37 -20l8 -41l-6 -27 l-59 -69l-35 -31l-25 -12l-16 -21l-39 -22l-59 -17l-17 2l-33 5l-69 22l-62 53l-84 86z" />
<glyph unicode="&#x41a;" d="M88 967l12 61v37l52 45l53 4h12l43 -53l-6 -103l-8 -57l-2 -53l-8 -25l12 -45v-35l6 -10l29 33l55 94l14 45l29 62l14 57l33 66l55 45l62 4l10 12h18l52 -74l-13 -53l-51 -88l-82 -123l-2 -20l-31 -41l-24 -62l8 -39l39 -84l10 -47l35 -69l33 -82l26 -47l5 -37l51 -70 l8 -53l41 -41l-6 -70l-49 -49l-103 12l-49 58l-18 41l-4 30l-13 19l-2 37l-20 24l-4 29l-17 24l-43 175l-22 47l-4 2l-45 -49l-27 -74l8 -35v-61l23 -181l8 -61l-8 -25l-45 -28l-25 -13l-29 17l-32 4l-37 57l2 58l10 73l-12 54l2 106l-11 158l-4 110v45l-8 21l6 178l-6 96z " />
<glyph unicode="&#x41b;" horiz-adv-x="798" d="M39 86l33 33l53 12l33 16l28 39l15 33l8 84l-4 103l-4 538l-4 12l-7 74l11 43l28 35l39 22l6 7h2l113 2h236l39 -13l32 -41l6 -47l13 -37l-10 -38l-3 -80l-10 -99l-4 -125v-57l8 -22l-4 -152l4 -231l9 -105l-9 -16v-31l-41 -51l-51 18l-47 13l-29 32l-16 56l4 176v82 l4 141l-8 20l12 70l-12 66l8 186l8 92l-24 25l-39 8l-37 -8l-51 -4l-19 -11l-6 -12l-4 -158v-104l4 -248l4 -139l-6 -25l-6 -55l-10 -57l-21 -45l-39 -62l-69 -51l-82 -12l-27 -17l-33 9l-20 24z" />
<glyph unicode="&#x41c;" horiz-adv-x="944" d="M94 1004l10 38v35l29 39l47 17h49l13 -21l-4 -4l2 -8l47 -23l26 -53l11 -43l26 -121l27 -149l14 -43l23 -113l12 -55l25 -84l12 -10l18 6l13 16l6 57l24 109l8 27l11 69l28 94l2 64l13 20l2 43l47 148l33 49l39 22h38l41 -22l41 -66l9 -36l-11 -56l13 -53l-4 -145l-3 -78 l-2 -203l-8 -96l6 -86l-4 -131v-90l-12 -48l-47 -49h-55l-45 49l-2 72l16 49v60l12 16l-8 21l-2 73l6 27l-4 113l-8 26l-8 8l-13 -8l-18 -43v-49l-23 -31l-20 -135l-23 -129l-10 -47l-4 -37l-47 -26l-47 -3l-39 17l-29 33l-8 36l-20 170l-31 117l-15 35l-20 96l-16 19h-19 l-18 -29l-4 -68l10 -65l-2 -49v-25l18 -119v-24l15 -49v-27l-31 -55l-35 -19l-74 6l-32 35l8 13l-17 34l11 39l-7 264v175l-6 200l2 131l9 23l-15 55l21 39zM172 872l10 -12h17l30 8l33 29l-12 6l-57 -8l-13 -10z" />
<glyph unicode="&#x41d;" d="M111 199l8 129l-8 24l14 125l-12 37l10 39l-4 22l-2 107l10 35l-8 76l10 14l-16 108v142l65 67l45 -4l56 -63l12 -29v-70l-10 -22l8 -43l-6 -74l-4 -180l8 -12l12 -9h172l31 31l4 29l-4 125l-4 201l12 22v51l27 35l18 12l76 -4l33 -39l-7 -176l-2 -43l9 -106l2 -43 l-4 -160l8 -76v-26l8 -13l-14 -108l6 -68l8 -223l-39 -45l-14 -14l-68 14l-43 41h-6l-10 14l-6 76l8 39l10 250l-31 28l-49 9l-14 8l-94 -13l-21 -8l-22 -24l-7 -23l9 -112v-162l-2 -27l14 -20l-6 -56l-39 -39l-94 -4l-19 4l-8 33l-14 27z" />
<glyph unicode="&#x41e;" horiz-adv-x="772" d="M102 227l9 158l6 117l6 133v137l10 205l29 35v24l43 33h12l55 39l74 22l103 -6l100 -45l51 -39l35 -55l8 -51l12 -12l7 -117l2 -492v-24l-9 -15l15 -47l-35 -123l-47 -63l-96 -55l-99 -13l-106 17l-27 22l-20 2l-86 68v18l-25 25l-6 43l-12 18zM252 309l8 -123l55 -55 l58 -22l63 -5l41 29l29 49l18 80v29l-4 47l8 27l-4 161v76l-8 55l4 222l-20 55l-58 59h-84l-51 -20l-20 -39l-21 -98l-14 -498v-29z" />
<glyph unicode="&#x41f;" d="M111 199l8 129l-8 24l14 125l-12 37l10 39l-4 22l-2 107l10 35l-8 76l10 14l-16 108v142l65 67l45 -4l64 -10l12 8h172l21 8l14 -4l49 2l76 -4l33 -39l-7 -176l-2 -43l9 -106l2 -43l-4 -160l8 -76v-26l8 -13l-14 -108l6 -68l8 -223l-39 -45l-14 -14l-68 14l-43 41h-6 l-10 14l-6 76l8 39l10 250l4 28l-4 125l-12 285l12 22v52l-31 28l-49 9l-14 8l-94 -13l-21 -8l-22 -24l-7 -23l13 -29v-69l-11 -23v-125l-6 -73l-4 -181l8 -12l9 -112v-162l-2 -27l14 -20l-6 -56l-39 -39l-94 -4l-19 4l-8 33l-14 27z" />
<glyph unicode="&#x420;" horiz-adv-x="813" d="M90 569l8 41l-8 21l6 67v144l-6 170l6 24l27 41l49 25h172l12 8l37 -8l21 8l78 -16l122 -66l66 -110l29 -105l-9 -27l13 -24l-13 -64l-12 -61l-45 -82l-115 -76l-102 -14l-86 12l-45 8h-14l-21 -26v-117l10 -20l4 -70l9 -33v-57l8 -66l-25 -82l-37 -32l-8 -9l-49 9 l-20 -5h-13l-41 66l4 156l-4 82l-2 81v158zM262 909l8 -14l4 -182v-76l21 -21h16l62 15l53 -10l37 22l41 8l16 13l21 28l12 111l-16 45l-62 70l-37 8l-24 18h-29h-49l-53 2l-17 -10z" />
<glyph unicode="&#x421;" horiz-adv-x="819" d="M96 678l6 33l4 204l25 64l12 12v21l25 26l51 45l12 -4l29 21l37 12h14l13 6h32l6 15l29 -9l21 9h12v-9l59 -6l68 -35l20 -4l62 -67l37 -68l-6 -12l20 -45l-12 -23l-2 -41l-19 -30l-39 -27l-51 6l-33 23l-45 71l-20 66l-23 22l-84 13l-37 -13l-36 -51l-15 -47l2 -29 l-8 -28l17 -33l-3 -152l7 -59v-143l8 -41l6 -121l6 -12l8 -9v-39l25 -34l47 -27l80 -4l35 12l22 29l21 55v53l16 37l43 23h62l26 -23l17 -35l12 -34l-8 -60l-13 -26l-12 -39l4 -4l-37 -60l-102 -69l-41 -15h-31l-6 -4l-59 -12l-33 12l-10 -8l-27 16h-31l-41 31l-18 6h-12 l-4 10l-46 33l-28 31l-35 98l-10 64l-11 196l-4 224z" />
<glyph unicode="&#x422;" horiz-adv-x="763" d="M100 1059l21 37l59 39l150 -5l12 9l53 -9l15 5l116 -9h72l29 -16l35 -43l-3 -57l-8 -23l-35 -16l-141 4l-12 -12l-8 -54l8 -63v-225l8 -215v-58l8 -31v-172l-16 -69l4 -58l-51 -45l-21 2l-28 25l-31 4l-35 21l-14 55v67l4 29l8 37l-8 51l8 21l-4 28l12 101l-8 14l8 16 l-8 101l8 61v240l2 100l-2 17l-26 18l-74 -2h-57l-41 29z" />
<glyph unicode="&#x423;" horiz-adv-x="772" d="M102 1022v70l45 38l50 13l59 -31l35 -55l33 -107l16 -39l8 -57l14 -37l29 -106l6 -6l11 6l41 151l28 66l23 78l61 127l29 22l41 -2l24 -18l17 -23l-8 -57l-29 -74l-12 -49l-21 -53l-12 -17l-10 -82l-21 -35l-6 -32l-82 -213l-22 -115l-39 -49l-84 -236l-45 -94l-54 -37 l-32 -12l-56 33l-14 37l4 39l94 219l49 125l31 79l-63 213l-21 19v24l-31 105l-16 47l-25 80l-12 14h-4l-8 13z" />
<glyph unicode="&#x424;" horiz-adv-x="1038" d="M102 553v274l21 78l12 25v12l64 70l73 30l19 9h20l11 8l106 -12l2 -3v-2l23 39l22 27l19 16l43 13l34 -4l7 -17l22 -8l6 -23l4 -32l43 16l43 4l117 -26l43 -31l45 -70l19 -74v-36l10 -88l-4 -43l2 -109l6 -41l-8 -131l8 -72l4 -4l-8 -12l8 -23l-12 -55l-6 -41l-15 -31 l-41 -57l-51 -31l-137 -18l-49 8v-78l-31 -26l-39 -13l-22 13h-35l-23 8l-24 69l4 15l-4 12l-97 -20l-57 10l-35 12l-28 27l-21 4l-47 47l-25 43l-26 102l-11 62zM250 705l8 -19v-149l4 -33v-53l10 -91l19 -61l37 -31l65 -8l33 14l23 50l4 8l4 61l2 8l-2 111l-6 197l-5 6 l-40 88l-11 39l-28 20l-62 4l-22 -14l-31 -61zM598 756l8 -25l2 -158l2 -124l4 -7l4 -51v-33l3 -30l34 -56l41 -22l39 6l51 51l7 39l-7 16l-6 95l-6 286l-14 109l-8 14l-25 25l-57 8l-13 -6l-43 -51l-6 -27z" />
<glyph unicode="&#x425;" d="M94 1044l10 39l35 25l29 8l59 -8l43 -37l15 -37l14 -8v-29l25 -67l24 -76l23 -76l8 -16l12 -8l21 24l18 72l14 37l-24 8l24 12l13 27l-6 24l14 13v18l14 27l6 43l11 31v26l69 23l43 -15h29l22 -57l-10 -41l2 -8v-10l-22 -29l-8 -35l-105 -266l-29 -88l-12 -27l64 -135 l26 -72l39 -108l27 -60l35 -67l14 -60l-43 -45l-41 -8l-16 -12l-15 4l-16 20l-12 -4l-21 9l-29 36l-12 72l-39 131l-33 92l-12 6h-12l-31 -61l-37 -188l-24 -68l-29 -37l-10 -12l-33 -4l-39 -19l-45 9l-33 51l8 51l33 61l19 82l26 45l19 70l33 59l20 62l35 72l-4 43l-8 24 l-31 60l-21 61l-24 27l-8 32l-19 76l-26 41l-31 109z" />
<glyph unicode="&#x426;" d="M113 659l14 109l-6 68l-8 223l39 45l14 14l67 -14l43 -41h7l10 -14l6 -76l-8 -39l-10 -250l-5 -29l5 -125l12 -284l-12 -23v-51l30 -29l49 -8l15 -8l94 12l20 8l23 25l6 23l-12 28v70l10 22v125l6 74l4 180l-8 13l-8 112v162l2 27l-14 20l6 55l39 39l94 4l18 -4l9 -32 l14 -27l2 -164l-8 -129l8 -25l-14 -124l12 -37l-10 -39l4 -23l2 -106l-10 -35l8 -76l-10 -14l14 -101l6 -2l18 -24l9 -74l-4 -78v-26l-5 -35l9 -14l-9 -54l-22 -26l-49 -15l-35 15l-51 6l-23 22l-16 35l6 23l-6 34l-15 17l-20 -6l-8 -8h-142l-20 -9l-14 4l-49 -2l-76 4 l-33 39l6 177l2 43l-8 106l-2 43l4 160l-8 76v26z" />
<glyph unicode="&#x427;" horiz-adv-x="772" d="M106 627l35 -123l47 -64l97 -55l98 -12l106 16l27 23l14 -13l-2 -45l-12 -53v-94l-20 -74v-45l12 -45l12 -39l41 -31l37 9l37 28l29 78l4 143l-4 316l8 131l-4 350l-29 55l-51 29l-15 6l-32 -8l-35 -29v-20l10 -60l-10 -67l14 -27l-8 -20l14 -49v-238l-65 -70l-58 -22 l-63 -4l-41 28l-29 50l-18 80l8 116l-4 221v54l-16 37l-43 22h-62l-26 -22l12 -48l-6 -116l-2 -213v-25l8 -14z" />
<glyph unicode="&#x428;" horiz-adv-x="958" d="M111 770l8 25l-8 129l2 163l14 27l8 33l19 4l94 -4l39 -39l6 -55l-14 -21l2 -26v-162l-9 -113l-8 -12l4 -180l6 -74v-125l11 -23v-69l-13 -29l7 -22l22 -25l37 -12l59 8l31 29v51l-12 22l12 285l4 125l-4 29l-10 249l-8 39l6 76l10 14h6l43 41l68 15l14 -15l39 -45 l-8 -223l-6 -67l14 -109l-8 -12v-27l-8 -76l4 -159l-2 -43l-9 -107l2 -100l13 -15l90 -4l20 15l-6 41l15 20l-17 391l8 25l9 47l-15 356l10 58l39 49l35 4l15 -8l-13 -23l15 -10l12 8v8l8 2l14 -12l2 -37l17 -26l6 -72l-6 -295l12 -266l-4 -66l6 -106l-10 -92l10 -48l-6 -20 l-8 -61l-33 -46l-29 -4l-53 17l-59 -10l-193 10l-61 10l-8 -6l-25 6h-20l-35 4h-31l-12 8l-64 -10l-45 -4l-65 68v141l16 108l-10 15l8 76l-10 34l2 107l4 22l-10 39l12 37z" />
<glyph unicode="&#x429;" horiz-adv-x="968" d="M111 66l6 141l4 233l2 107l4 22l-10 39l12 37l-14 125l8 25l-8 129l2 163l14 27l8 33l19 4l94 -4l31 -115l2 -26v-162l-9 -113l-8 -12l4 -180l7 -74v-125l10 -23l-6 -120l22 -25l37 -12l59 8l19 102l2 285l4 125l-4 29l-10 249l-9 39l7 76l10 14h6l43 41l68 15l14 -15 l39 -45l-8 -223l-7 -67l15 -109l-8 -12v-27l-9 -76l15 -159l-2 -43l-8 -107l2 -100l12 -15l90 -4l20 15l-6 41l15 20l-17 391l8 25l9 47l-15 356l11 58l38 49l35 4l51 -35l19 -63l6 -72l-6 -295l12 -266l-4 -66l6 -106l-8 -72l41 -74v-98l-14 -70l6 -51l-19 -18l-39 -6 l-32 -15l-58 13l-18 24l-2 64l-2 34l-17 9l-26 -4l-193 10l-82 -13l-16 7l-94 4l-12 8l-115 -2l-47 35z" />
<glyph unicode="&#x42a;" horiz-adv-x="911" d="M35 1012l12 12v33l12 12l50 21l202 6l15 4l55 -21l12 -28l6 -78l-12 -45l-10 -25l-6 -82l-4 -63l-5 -27l9 -35l-9 -10v-24l5 -58l24 -41l66 -8l45 16l35 4l100 -16l39 -16l16 -13l86 -116l21 -86l4 -70l-12 -102l-13 -13l-8 -24l-74 -82l-71 -37l-64 -12l-108 -8h-33 l-123 -13l-37 13l-24 16l-17 24l-6 50l12 147v74l-2 313l8 74l-8 20v95l-10 94l-18 31l-58 8l-20 10l-47 -10l-33 22zM362 285l13 -39l-8 -23l8 -30l-8 -37l12 -25l29 -20l122 8l54 20l32 21l29 43l21 88l-11 61l-10 27l-33 29v14l-90 33l-12 -6l-111 6l-24 -33l-13 -84 l9 -41z" />
<glyph unicode="&#x42b;" horiz-adv-x="1071" d="M90 74l6 170v143l-6 68l8 20l-8 41l6 49v158l2 82l4 82l-4 155l41 66h13l20 -4l49 8l8 -8l37 -33l25 -82l-8 -65v-58l-9 -32l-4 -70l-10 -21v-116l21 -27h14l45 8l86 13l102 -15l115 -76l45 -81l12 -62l13 -63l-13 -25l9 -27l-29 -104l-66 -111l-122 -65l-78 -17l-21 9 l-37 -9l-12 9h-172l-49 24l-27 41zM262 176l4 -26l17 -11l53 2h49h29l24 19l37 8l62 70l16 45l-12 110l-21 29l-16 12l-41 8l-37 23l-53 -10l-62 14h-16l-21 -20v-76l-4 -183zM801 1059v45l51 24l66 7l43 -31v-209l12 -41l-8 -31l-2 -499l12 -56v-131l10 -69l-10 -21 l-86 -65l-66 38l-16 31l10 78v51l-6 53l10 70l10 27l-6 143v66l-4 59l-14 231l2 66z" />
<glyph unicode="&#x42c;" horiz-adv-x="808" d="M113 154l6 24l6 131v41l-6 21v47l6 35l-12 65l12 27l-8 35l-4 53l4 35l2 108l8 41l-10 35l2 68l-6 51l4 84l18 12l4 23l49 36l48 -8l43 -39l14 -32l-6 -84l-8 -56l8 -12l-8 -25v-73l6 -45l-11 -13v-80l21 -34l16 -13h25l80 9l96 -21l61 -29l80 -69l37 -64v-20l6 -12 l15 -93l-6 -82l-15 -45l-45 -96l-12 -8l-19 -27l-88 -41l-135 -22h-59l-121 -2l-74 16l-12 27v47zM274 340l5 -186l12 -17l145 6l58 31l41 16l36 56l7 98l-15 45l-20 35l-6 16l-74 33l-68 10l-63 -2l-25 -8l-12 -20l-12 -95z" />
<glyph unicode="&#x42d;" horiz-adv-x="819" d="M98 844l8 59l13 27l12 39l-4 4l37 59l102 70l41 14h31l6 4l59 13l33 -13l10 8l27 -16h31l41 -31l18 -6h12l5 -10l45 -33l28 -31l35 -98l10 -63l11 -197l4 -223l6 -12l-6 -33l-4 -205l-25 -64l-12 -12v-20l-25 -27l-51 -45l-12 4l-29 -20l-37 -13h-14l-12 -6h-33l-6 -14 l-29 8l-21 -8h-12v8l-59 6l-68 35l-20 4l-62 68l-37 67l7 13l-21 45l12 22l2 41l19 31l39 26l51 -6l33 -22l45 -72l20 -65l23 -23l84 -12l37 12l36 51l15 47l-2 29l8 29l-16 32l6 140l-29 22l-125 4l-78 -16l-61 16l-19 54l13 53l49 41l106 10l25 2l92 -8l16 37l-8 41 l-6 121l-6 12l-8 8v39l-25 35l-47 26l-80 5l-35 -13l-22 -28l-21 -56v-53l-16 -37l-43 -22h-61l-27 22l-16 35z" />
<glyph unicode="&#x42e;" horiz-adv-x="978" d="M59 1061v45l52 24l65 7l43 -31v-209l14 -41l-8 -31l-2 -145l8 -16l52 10l24 2l21 16l-6 201l22 96l39 74l57 45l56 12l57 19l53 4l137 -27l52 -31l53 -69l20 -74l2 -37l13 -88l-6 -43l2 -108l8 -41l-10 -131l10 -72l4 -166l-8 -12l8 -23l-14 -55l-9 -41l-16 -31l-49 -57 l-60 -31l-163 -18l-74 10l-84 47l-51 64l-21 57l-16 129l-4 215l-97 -10l-8 -15v-159l13 -56l2 -131l10 -69l-10 -21l-86 -65l-66 39l-16 30l10 78v51l-6 54l8 69l10 27l-6 143v66l-6 59l-14 231v66zM475 846l8 -27l4 -178l11 -57l-6 -82l4 -168l8 -129l45 -64l57 -24l49 8 l68 55l10 45l-8 19l-8 266l-10 321l-17 123l-12 17l-33 26l-76 9l-14 -7l-59 -57l-9 -31z" />
<glyph unicode="&#x42f;" horiz-adv-x="792" d="M104 811l9 16l4 70l12 18l8 35l33 54l20 14l27 33l92 61l113 12l8 -4l41 -6h176l41 -29l4 -41l-8 -294v-95l-8 -125l-4 -198l4 -182v-54l4 -61l-53 -53l-33 -9l-41 13l-37 28l-8 29l16 156l15 202l10 25l-10 49l-15 25l-16 8h-72l-47 2l-14 -6l-6 -41l-15 -137v-95 l-6 -73l-6 -49l-8 -70l-12 -12l-50 -33l-34 -8l-27 8l-47 57l-6 107l20 61l12 72l15 76l12 28l2 72l12 20v62l-14 22l-33 27l-61 111zM258 819l23 -106l53 -49l90 -21l108 4l13 21l4 90l-4 198l-21 15h-155l-47 -25l-41 -41l-13 -69z" />
<glyph unicode="&#x430;" horiz-adv-x="821" d="M102 37l15 113l35 102l32 133l11 82l61 297l16 125l17 153l24 48l54 26l28 12l56 -12l61 -65l16 -58l29 -145l16 -37l21 -109v-28l16 -25l13 -65l10 -29l6 -76l14 -20l6 -45l27 -70v-68l25 -126l12 -15l-8 -67l-4 -39l-17 -25l-20 -12l-70 -8l-14 8l-45 74l-21 153 l-12 12l-166 5l-12 -9l-21 -127l-4 -41l-8 -20l-53 -47l-33 -12l-72 4l-20 12zM367 418l8 -21l88 -4l20 21l-45 243l-10 21l-12 4l-8 -8z" />
<glyph unicode="&#x431;" horiz-adv-x="808" d="M113 170l6 8v72l6 59v41l-12 12l6 9v47l6 35l-12 65l12 27l-8 35l8 24l-12 29l4 35l2 71v37l8 41l-10 35l2 68l-6 51l12 12l-8 72l22 35l62 28l26 -6l15 8l34 -6l115 6l39 -6l90 8l43 -8l53 6l33 -6l31 -31l10 -20l8 -29l-4 -39l-18 -18l-35 -12l-10 6l-209 -13l-88 9 l-19 4l-18 -6l-12 -11l-6 -47l8 -12l-8 -25v-73l6 -45l-11 -13v-80l21 -34l16 -13h25l80 9l96 -21l61 -29l80 -69l37 -64v-20l6 -12l15 -93l-6 -82l-15 -45l-45 -96l-12 -8l-19 -27l-88 -41l-135 -22h-59h-101l-32 14l-23 6l-49 54l-2 14zM295 334l4 -172l107 -10h28l60 22 l41 16l36 56l7 98l-15 45l-20 35l-6 16l-74 33l-68 10l-63 -2l-25 -8l-12 -20l8 -101z" />
<glyph unicode="&#x432;" horiz-adv-x="843" d="M104 872l9 170l12 37l76 35l30 8h154l104 -18l91 -53l45 -39l53 -92l18 -107l2 -80l-2 -24l-8 -72l-57 -74l-2 -31l80 -81l26 -107l6 -92l-4 -29l-37 -92l-12 -8v-19l-104 -88l-45 -16h-27l-12 -8l-158 -12l-98 2l-60 10l-45 51l-4 20l-12 31l-2 103l10 14l-4 94l-6 109 l-6 28l8 27v113l-14 143l8 12l-11 107l5 4zM274 944l2 -188l3 -135l12 -13l59 -6l92 10l84 41l23 49l16 80l-18 68l-41 55l-60 58l-53 8l-106 -6zM283 430l12 -63l-10 -21l2 -96l8 -25l-10 -43l24 -53l43 -10l54 6l102 22l47 41h-12l-13 5v10l13 8l20 -10l17 32l8 60l-8 51 l-21 59l-20 15l-13 16l-37 21l-92 12l-100 -10z" />
<glyph unicode="&#x433;" horiz-adv-x="722" d="M98 1001l13 37l6 47l33 41l38 13h236l117 -13l39 -16l36 -35l5 -74l-13 -22l-47 -16l-125 4l-51 4l-37 8l-39 -8l-24 -25l8 -92l8 -186l-12 -66l12 -70l-8 -20l4 -141v-82l4 -176l-16 -56l-29 -32l-47 -13l-51 -18l-41 51v31l-8 16l8 105l4 231l-4 152l8 22v57l-4 125 l-10 99l-2 80z" />
<glyph unicode="&#x434;" horiz-adv-x="929" d="M57 18l11 -86v-16l22 -84l55 -10l54 22l16 23l8 70v10l10 8l101 -4l20 -8l70 12l65 -12l115 8l70 8l24 -25v-45l17 -47l22 -12l66 4l35 37l16 39l12 35l-8 110l-8 66l-10 8l-82 4l-25 6l-4 58l-4 231l4 152l-8 22l-4 80l6 80v121l8 14l-8 41v92l-12 39l-66 51l-43 10 l-59 -2h-60l-108 -14l-60 -33l-69 -94l-8 -45l-13 -20v-33l-14 -64l-6 -63l16 -33v-72l-10 -12l10 -239l4 -103l-8 -84l-14 -33l-13 -39l-32 -16l-47 -10h-17l-24 -33l-13 -31l4 -28zM350 133l15 25l10 57l6 55l6 25l-4 139l-4 248l-17 27l3 57l2 96l22 39l41 49l49 4l13 13 l43 6l28 -35l-8 -188l-10 -82l12 -66l-12 -70l8 -20l-4 -141v-82v-152l-14 -14l-127 -4l-54 -2z" />
<glyph unicode="&#x435;" horiz-adv-x="788" d="M98 133l19 21v55l4 348l8 37l-4 240v215l16 26l41 27l123 16l137 8l107 -12l22 8l60 -20l47 -33v-80l-47 -31l-185 9l-124 10h-37l-21 -35l2 -319l19 -13l129 4l194 7l35 -19l27 -33v-39l-17 -32l-51 -29l-88 -8l-20 8l-117 4l-39 4h-49l-31 -45l6 -43l8 -16l-14 -107 l6 -98l35 -27l70 6l65 13h180l27 -19l14 -24l-2 -54l-30 -38l-37 -21l-164 -4h-248l-45 41l-20 22z" />
<glyph unicode="&#x436;" horiz-adv-x="974" d="M98 57l19 62l20 28l6 31l50 107l20 61l43 74l18 65l29 62l-2 45l-33 63l-30 93l-23 71l-45 121l-29 64l-16 75l16 27l35 24l29 3l31 14l59 -31l31 -41l2 -47l12 -51l22 -94l35 -103l21 45l-8 31l14 41v209l43 31l65 -7l52 -24v-45l-9 -164v-66l3 -51l6 -8l14 -2l29 45 l18 66l14 47l13 73l16 33l12 37l35 51l92 33l41 -10l37 -62l-14 -49l-31 -59l-35 -96l-37 -72l-10 -37l-92 -184l2 -60l31 -51l18 -78l29 -39l18 -73l7 -47l20 -29l2 -31l12 -16l6 -37l33 -80l-10 -29l-35 -22l-65 -6l-37 10l-39 47l-19 43l-30 92l-6 41l-19 51l-8 52l-8 20 l-17 12l-22 -24l10 -27l8 -69l-6 -54v-51l10 -78l-16 -30l-66 -39l-86 65l-10 21l10 69l3 131l12 56l-8 20l-19 10l-22 -18l-19 -68l-14 -30l2 -21l-12 -20l-21 -76l-14 -21l-21 -98l-55 -27l-45 13l-25 8l-32 6z" />
<glyph unicode="&#x437;" horiz-adv-x="780" d="M102 909l13 9l4 26l8 41l80 100h14l31 27h24l17 14h49l41 9l31 -9l45 -2l4 -4l53 -8l90 -57l47 -74v-10l-4 -19l8 -8h5l16 -92l-8 -41l8 -33l-12 -51l-13 -41l-88 -100v-29l27 -37v-12l24 -12l21 -52l4 -28l16 -19l13 -125l8 -22l-12 -14l-25 -93l-61 -90l-60 -41 l-37 -10l-41 -4l-12 -8l-63 -8l-5 4l-81 4l-21 20l-18 8l-11 13l-30 2v6l-45 55l-33 82l-8 117l24 33l33 28h64l16 -16l24 -123l29 -55l37 -29h27l45 4l61 37l29 43l20 47v51l-8 43l-16 60l-74 71l-64 17l-81 33l-13 71l21 29l45 18l4 -6h18l95 13l69 59l17 41l8 45v86 l-17 37l-36 43l-46 20l-8 13l-129 8l-33 -29l-12 -53l-8 -23l-4 -41l-10 -20l-27 -12l-8 -29h-4l-8 10l-50 -6l-14 16l-25 50z" />
<glyph unicode="&#x438;" horiz-adv-x="737" d="M109 137l4 318l8 198l4 244l12 141l29 56l35 28l30 6l39 -26l19 -29l2 -127l-23 -223l-12 -186l12 -17h8l13 12l67 207l35 113l21 115l43 96l43 51l41 14l47 -8l24 -18l21 -51l-21 -236l-4 -213l-2 -215l-6 -328l-12 -36l-27 -33h-63l-45 45l-7 20v68l7 102l4 76l12 252 l-16 20l-13 -12v-4l-14 -45l-21 -51l-24 -55l-64 -201l-34 -137l-25 -45l-39 -33l-49 6l-29 18l-22 54z" />
<glyph unicode="&#x439;" horiz-adv-x="710" d="M109 70l4 147v215l8 66l-12 192l10 19l-6 157l-4 146l10 61l35 45l26 4l35 -8l49 -33l19 -53l-9 -217l-18 -272l12 -31h8l11 10l41 115l30 117l31 67l57 236l37 49l33 12l37 4l53 -20l8 -13l9 -32l-9 -166l9 -850l-29 -43l-37 -14l-20 20l-21 4l-41 29l-12 45l-4 127 l12 37v49l8 39l13 241l-13 17h-8l-18 -17l-7 -45l-20 -39l-4 -20l-51 -109l-23 -102l-31 -92l-8 -49l-33 -74l-49 -41h-61l-37 25zM113 1356l8 33l41 30l49 8l49 -38l76 -89l57 -2l68 25l43 49l24 55l11 3l10 8l43 -11l37 -20l8 -41l-6 -27l-60 -69l-34 -31l-25 -12l-16 -21 l-39 -22l-60 -17l-16 2l-33 5l-69 22l-62 53l-84 86z" />
<glyph unicode="&#x43a;" horiz-adv-x="761" d="M104 37l7 268l8 152l-2 516l-6 86v26l26 35l47 8l54 -12l20 -49l-2 -133l-14 -78v-117l4 -6l16 10l96 168l39 78l31 88l59 51l35 17l31 6l27 -6l51 -49l-13 -66l-22 -53l-37 -49l-10 -21l-49 -65v-17l-37 -65l-27 -51l4 -74l78 -168l47 -162l53 -98l21 -27l14 -47l17 -61 v-31l-25 -39l-86 -27l-53 37l-55 86l-37 129l-47 156l-19 41l-6 43l-23 20l-20 -4l-41 -57l-12 -20v-84l12 -142l10 -39l-10 -112l-55 -45l-70 22z" />
<glyph unicode="&#x43b;" horiz-adv-x="851" d="M63 10v70l27 37l33 16l47 12l51 33l39 58l12 151l-10 33v115l-6 122v93l-4 176l4 49l8 12l4 14l4 74l37 35l39 16h8l109 13h235l39 -13l33 -41l6 -47l13 -37l-11 -38l-2 -80l-10 -99l-4 -125v-57l8 -22l-4 -152l4 -231l8 -105l-8 -16v-31l-41 -51l-51 18l-47 13l-29 32 l-16 56l4 176v82l4 141l-8 20l12 70l-12 66l8 186l8 92l-24 25l-39 8l-37 -8l-51 -4l-9 -9l-6 -4l6 -57l-8 -23v-120l-4 -92l-10 -152l10 -82l-12 -127l8 -53l-31 -103l-24 -55l-68 -76l-51 -16l-16 -12l-80 -9l-25 -4z" />
<glyph unicode="&#x43c;" horiz-adv-x="927" d="M98 969l8 41v53l21 41l43 31l37 8l84 -53l12 -21l2 -72l27 -86l37 -206l16 -19l8 -45l45 -154l13 -36l6 -9l6 -8l16 8l21 37l10 84l12 90l8 25l9 74l12 30l8 82l16 27l5 33l8 12v33l12 67l16 62l27 32l47 25l64 -8l53 -64l8 -110l-8 -45l8 -23v-61l-4 -29v-405l8 -203 l-4 -76l-4 -65l-25 -33l-28 -17l-74 4l-18 37l-13 13l-4 49v26l8 41l-4 86l13 21l-2 31l12 55l-6 14l16 29l-16 16l8 54l-2 32l-19 15l-28 -39l-4 -82l-17 -25l-4 -80l-12 -49l-8 -53l-19 -66l-6 -51l-8 -12v-45l-39 -31l-49 -2l-45 33l-17 33v34l-16 76l-47 205l-25 45v25 l-16 45l-25 24l-8 -4l-8 -10l-4 -55l8 -142l16 -53l5 -186l-9 -54l-36 -20h-70l-55 61l-7 64l13 82l-11 16l13 37l-8 139v35l8 21l-13 55l13 115l-2 104l-6 121v35l-7 8l13 31z" />
<glyph unicode="&#x43d;" horiz-adv-x="780" d="M119 201l22 393l-10 313l-12 199l49 24l68 -8l24 -12l27 -66l-19 -339l17 -35l20 -15h154l49 21l14 20l-16 391l8 25l33 21l53 16l29 -4l33 -45l8 -62l6 -20l-10 -47l10 -92l-6 -107l4 -65l-12 -267l6 -295l-6 -71l-17 -27l-2 -37l-14 -12l-8 2v8l-13 8l-14 -10l12 -22 l-14 -9l-35 5l-39 49l-10 57l14 356l-8 47l-20 15l-199 -8l-19 -15l-4 -182l13 -147l6 -111l-25 -33l-35 -28l-90 20l-14 25z" />
<glyph unicode="&#x43e;" d="M102 893l23 96l39 74l57 45l55 12l58 19l53 4l137 -27l51 -31l54 -69l20 -74l2 -37l13 -88l-7 -43l2 -108l9 -41l-11 -131l11 -72l4 -166l-8 -12l8 -23l-15 -55l-8 -41l-16 -31l-49 -57l-60 -31l-164 -18l-73 10l-84 47l-51 64l-21 57l-16 129l-4 283zM256 846l8 -27 l4 -178l11 -57l-7 -82l4 -168l9 -129l45 -64l57 -24l49 8l68 55l10 45l-8 19l-8 266l-11 321l-16 123l-12 17l-33 26l-76 9l-14 -7l-60 -57l-8 -31z" />
<glyph unicode="&#x43f;" horiz-adv-x="780" d="M119 201l22 393l-10 313l2 195l49 24l54 -4l69 11l182 10l60 -10l53 16l29 -4l33 -45l8 -62l6 -20l-10 -47l10 -92l-6 -107l4 -65l-12 -267l6 -295l-6 -71l-17 -27l-2 -37l-14 -12l-8 2v8l-13 8l-14 -10l12 -22l-14 -9l-35 5l-39 49l-10 57l14 356l-8 47l-8 25l16 391 l-14 21l6 41l-20 14l-199 -8l-12 -6v-15l-15 -55l19 -340l-11 -76l-4 -182l13 -147l6 -111l-25 -33l-35 -28l-90 20l-14 25z" />
<glyph unicode="&#x440;" horiz-adv-x="808" d="M109 426l8 16l-4 35l12 29l-8 24l8 35l-12 27l12 65l-6 35v47l-6 9l12 12v41l-6 59v72l-6 8v16l14 11v12l-14 8v17l20 12l-8 14l2 14l45 35l4 19l23 6h14l14 22l105 -8h59l135 -22l88 -41l19 -27l12 -8l45 -96l15 -45l6 -82l-15 -92l-6 -13v-20l-37 -64l-80 -69l-61 -29 l-96 -21l-80 9h-25l-16 -13l-21 -34v-80l11 -13l-6 -45v-73l8 -25l-8 -12l8 -56l6 -84l-14 -32l-43 -39l-48 -8l-20 28l-29 8l-4 23l-10 6l-8 6l8 72l-12 12l6 51l-2 68l10 35l-8 41v37l-2 51h-4zM295 657l12 -20l25 -8l63 -2l68 10l74 33l6 16l20 35l15 45l-7 98l-36 56 l-41 16l-60 22h-28l-107 -10l-4 -172l8 -18z" />
<glyph unicode="&#x441;" horiz-adv-x="802" d="M102 623v274l25 78l14 24v13l76 69l86 31l23 8h24l12 8l125 -12l78 -43l66 -74l28 -51l11 -69l-19 -68l-12 -20l-39 -19h-47l-35 27l-51 96l-16 41l-35 22l-82 7l-27 -17l-41 -67l-2 -93l10 -20v-162l9 -198v-58l12 -98l22 -68l48 -32l84 -9l43 15l34 63l4 66l11 26 l45 33h65l27 -18l24 -60v-71l-20 -27l-8 -55l-35 -52l-109 -65l-127 -23l-69 11l-39 12l-35 27l-24 4l-56 47l-30 43l-31 102l-13 62z" />
<glyph unicode="&#x442;" horiz-adv-x="800" d="M102 1055l13 24l28 4l9 21l41 33l157 -9l146 -16l116 12l25 -4l41 -28l20 -37v-37l-49 -33l-131 12l-22 -18l-9 -10v-201l7 -248v-473l-13 -49l-35 -33v-8l-26 -12l-35 12h-25v8l-41 21l-2 32l-14 9v65l-12 17l20 36l6 29l-14 25l14 28l2 54l5 55l8 6l-15 29l7 84v45 l-7 6l2 63l-16 37l16 33v68l9 51l-4 166l-5 55l-8 14h-45l-37 -24h-69l-33 24l-12 17v32z" />
<glyph unicode="&#x443;" horiz-adv-x="774" d="M102 -4l4 35l99 233l45 88l51 158l-43 139l-51 148l-21 59l-8 25l4 4l-41 108l-12 8l-27 27l4 72l27 24l29 9l4 -5l24 13h11l45 -29l41 -43l35 -117l10 -12l14 -70l23 -77l8 -37l16 -51h13l20 45l2 43l12 20l52 115l22 67l64 133l26 21l41 -2l25 -12l24 -33v-23l-47 -102 l-12 -41l-19 -45l-10 -17l-20 -92l-33 -63l-4 -29l-21 -33l-43 -114l-18 -21l-12 -45l-25 -39l-72 -207l-34 -45l-35 -90l-49 -106l-35 -39l-29 2l-55 27z" />
<glyph unicode="&#x444;" horiz-adv-x="1026" d="M92 436l4 10l4 191l9 168l10 55l28 84l25 27l39 26l4 11h10l17 4l34 26h27l23 15l8 -9l28 13l52 -13l4 -2h26l25 -8l14 82l52 27l14 6l33 -10l34 -31l-2 -21l4 -47l44 15l88 -6l86 -39l43 -33l30 -47l6 -43l11 -13l6 -98l2 -422v-20l-8 -12l12 -41l-29 -105l-41 -55 l-82 -47l-84 -11l-92 15l-10 8v-2l-22 -57l-7 -4l-8 -41l-41 -23l-37 10l-34 29l-11 68l-16 -9l-51 -4v-6h-11l-18 6l-25 -6l-4 10h-28l-11 6h-12l-33 11l-24 18l-10 -4l-43 39l-21 23v18l-12 10l-21 53l-4 177zM246 375l8 -21l-2 -20l10 -33l29 -37l28 -8l66 8l16 17h9 l30 73l11 197l-2 131l6 121l-9 20l-16 21l-29 8l-61 -2l-37 -19l-18 -26v-27l-6 -4l-5 -10l-6 -86l-6 -29v-102l-4 -41l2 -107zM594 385l4 -66v-22h4l39 -41l45 -14l49 -4l31 20l22 35l15 59v21l-2 33l4 22l-2 115v55l-6 41l4 160l-17 41l-45 43h-65l-39 -15l-17 -28 l-10 -52l8 -49l-12 -22l10 -37l-16 -49l-2 -86l2 -6l-2 -2v-50l4 -12l-4 -6l-2 -63v-21z" />
<glyph unicode="&#x445;" horiz-adv-x="825" d="M98 47l15 49l30 60l35 96l37 72l10 36l92 185l-2 59l-30 51l-19 78l-28 39l-19 74l-6 47l-20 29l-3 30l-12 17l-6 37l-33 79l11 29l34 23l66 6l37 -10l39 -48l18 -43l31 -92l6 -41l18 -51l9 -51l8 -21l16 -12l23 19l18 67l14 31l-2 20l13 21l20 76l14 20l21 98l55 27 l45 -12l25 -8l33 -7l14 -53l-18 -61l-21 -29l-6 -31l-49 -106l-21 -62l-43 -73l-18 -66l-29 -61l2 -45l33 -64l31 -92l22 -72l45 -121l29 -63l16 -76l-16 -26l-35 -25l-29 -2l-30 -14l-60 30l-30 41l-2 47l-13 52l-22 94l-35 102l-6 8l-14 2l-29 -45l-19 -65l-14 -47 l-12 -74l-17 -33l-12 -37l-35 -51l-92 -33l-41 11z" />
<glyph unicode="&#x446;" d="M111 745l8 25l-8 129l2 164l14 27l8 32l19 4l94 -4l39 -39l6 -55l-14 -20l2 -27v-162l-9 -112l-8 -13l4 -180l6 -74v-125l11 -22v-70l-13 -28l7 -23l22 -25l21 -8l94 -12l14 8l49 8l31 29v51l-12 23l12 284l4 125l-4 29l-10 250l-8 39l6 76l10 14h6l43 41l68 14l14 -14 l39 -45l-8 -223l-6 -68l14 -109l-8 -12v-26l-8 -76l4 -160l-2 -43l-9 -106l2 -43v-3l33 -90v-102l-14 -68l4 -57l-23 -23l-51 -20l-63 14l-23 27l6 78l-20 26l-14 -4l-21 9h-172l-12 8l-64 -11l-45 -4l-65 68v141l16 109l-10 14l8 76l-10 35l2 106l4 23l-10 39l12 37z" />
<glyph unicode="&#x447;" horiz-adv-x="784" d="M111 1085l6 -135l4 -102l12 -49l-4 -4l-4 -2l-8 -142l12 -51l-8 -12l16 -47l29 -47l33 -21l16 -27l33 -12l45 -20l39 -29h10l31 8l26 -16l15 8h67l49 29l5 -15l-9 -6l9 -88l-9 -31l15 -41v-208l43 -31l65 6l51 25v45l-8 163v66l-14 231l-6 60v65l-6 144l10 26l8 70l-6 53 v51l10 78l-16 31l-66 39l-86 -66l-10 -20l10 -70l2 -131l13 -55l10 -129l-8 -6l6 -15l-13 -30l-10 -25l-45 -51l-41 -14h-59l-70 26l-8 17v32l-12 21v170v26l6 50l2 45l8 41l-20 12v12l10 8h2l8 54l-16 49l-41 32l-54 7l-24 -7z" />
<glyph unicode="&#x448;" horiz-adv-x="968" d="M111 244l6 106l-4 66l12 266l-6 295l6 72l18 63l52 35l34 -4l39 -49l11 -58l-15 -356l8 -47l9 -25l-17 -391l15 -20l-7 -41l21 -15l90 4l12 15l2 100l-8 107l-2 43l14 159l-8 76v27l-8 12l14 109l-6 67l-8 223l39 45l14 15l68 -15l43 -41h6l10 -14l6 -76l-8 -39l-10 -249 l-4 -29l4 -125l2 -285l18 -102l60 -8l37 12l22 25l-6 120l10 23v125l6 74l5 180l-9 12l-8 113v162l2 26l31 115l94 4l19 -4l8 -33l14 -27l2 -163l-8 -129l8 -25l-14 -125l12 -37l-10 -39l4 -22l2 -107l4 -233l6 -141l-6 -37l-47 -35l-115 2l-12 -8l-94 -4l-17 -7l-81 13 l-193 -10l-59 10l-41 4l-29 4l-33 45l-8 61l-6 21l-2 27z" />
<glyph unicode="&#x449;" horiz-adv-x="958" d="M111 104l10 48l-10 92l6 106l-4 66l12 266l-6 295l6 72l16 26l2 37l15 12l37 23l34 -4l39 -49l11 -58l-15 -356l8 -47l9 -25l-17 -391l15 -20l-7 -41l21 -15l90 4l12 15l2 100l-8 107l-2 43l4 159l-8 76v27l-8 12l14 109l-6 67l-8 223l39 45l14 15l68 -15l43 -41h6 l10 -14l6 -76l-8 -39l-10 -249l-4 -29l4 -125l12 -285l-12 -22v-51l30 -29l60 -8l37 12l22 25l6 22l-12 29v69l10 23v125l6 74l5 180l-9 12l-8 113v162l2 26l-14 21l6 55l39 39l94 4l19 -4l8 -33l14 -27l2 -163l-8 -129l8 -25l-14 -125l12 -37l-10 -39l4 -22l2 -107l-10 -34 l8 -76l-10 -15l16 -108v-17l10 -6l19 -22l8 -51l-16 -111l10 -27l-2 -84l-17 -22l-36 -23l-56 11l-61 84l14 47l-18 20l-29 6l-12 -8h-31l-35 -4h-20l-25 -6l-8 6l-61 -10l-193 -10l-59 10l-54 -17l-28 4l-33 46l-8 61z" />
<glyph unicode="&#x44a;" horiz-adv-x="858" d="M33 997l12 41l29 37l24 6l62 6h73l50 -2l41 -2l14 -10l6 -45l10 -35l-6 -26l6 -29l-2 -4l-4 -35l-14 -203l-10 -24l10 -49l14 -25l17 -8h71l47 -2l15 6l90 -6l53 -39l14 -23l33 -26l62 -111l18 -102l-8 -17l-4 -69l-13 -19l-8 -35l-33 -53l-20 -14l-27 -33l-92 -61 l-112 -13l-9 4l-41 7h-176l-41 28l-4 41l8 295v94l9 125l4 199l-4 154l-33 12l-49 2h-6l-21 12l-47 19zM324 340l4 -199l20 -14h156l47 25l41 41l12 69l10 17l-22 106l-53 49l-90 21l-109 -4l-12 -21z" />
<glyph unicode="&#x44b;" horiz-adv-x="1067" d="M113 154l6 24l6 131v41l-6 21v47l6 35l-12 65l12 27l-8 35l-4 53l4 35l2 108l8 41l-10 35l2 68l-6 51l4 84l18 12l4 23l49 36l48 -8l43 -39l14 -32l-6 -84l-8 -56l8 -12l-8 -25v-73l6 -45l-11 -13v-80l21 -34l16 -13h25l80 9l96 -21l61 -29l80 -69l37 -64v-20l6 -12 l15 -93l-6 -82l-15 -45l-45 -96l-12 -8l-19 -27l-88 -41l-135 -22h-59l-121 -2l-74 16l-12 27v47zM274 340l5 -186l12 -17l145 6l58 31l41 16l36 56l7 98l-15 45l-20 35l-6 16l-74 33l-68 10l-63 -2l-25 -8l-12 -20l-12 -95zM809 416l8 131l-4 315l4 144l29 77l37 29l37 8 l53 -28v-41l12 -45v-45l-4 -46l-8 -290l-4 -9l-15 -43l11 -20l-11 -59l21 -84l-10 -35l10 -25l-6 -143l2 -31l4 -16l-10 -68l10 -59v-21l-35 -28l-33 -9l-14 7l-51 28l-29 56z" />
<glyph unicode="&#x44c;" horiz-adv-x="813" d="M90 74l6 170v143l-6 68l8 20l-8 41l6 49v158l2 82l4 82l-4 155l41 66h13l20 -4l49 8l8 -8l37 -33l25 -82l-8 -65v-58l-9 -32l-4 -70l-10 -21v-116l21 -27h14l45 8l86 13l102 -15l115 -76l45 -81l12 -62l13 -63l-13 -25l9 -27l-29 -104l-66 -111l-122 -65l-78 -17l-21 9 l-37 -9l-12 9h-172l-49 24l-27 41zM262 176l4 -26l17 -11l53 2h49h29l24 19l37 8l62 70l16 45l-12 110l-21 29l-16 12l-41 8l-37 23l-53 -10l-62 14h-16l-21 -20v-76l-4 -183z" />
<glyph unicode="&#x44d;" horiz-adv-x="802" d="M104 838v71l21 27l8 55l35 51l108 66l127 22l70 -10l39 -12l35 -27l24 -4l56 -47l30 -43l31 -102l12 -62l5 -340v-274l-25 -78l-14 -25v-12l-76 -69l-86 -31l-23 -8h-24l-13 -9l-125 13l-77 43l-66 73l-29 52l-10 69l19 68l12 20l39 19h47l35 -27l51 -96l16 -41l35 -23 l82 -6l27 17l41 67l2 92l-11 21v137l-26 12l-232 -8l-53 33v39l-10 24l59 64l242 10l8 10l4 97l-12 98l-23 68l-47 32l-84 9l-43 -15l-34 -63l-5 -66l-10 -26l-45 -33h-65l-27 18z" />
<glyph unicode="&#x44e;" horiz-adv-x="987" d="M82 428l8 131l-4 315l4 144l29 78l37 28l37 9l53 -29v-41l-13 -115l5 -49v-94l-13 -53v-41l2 -62l13 -18l86 -6l14 96l-8 158l8 41l12 18l6 43l25 25v18l86 68l20 2l27 22l107 17l98 -13l96 -55l47 -64l35 -122l-14 -48l8 -14v-24l-2 -492l-6 -117l-13 -12l-8 -51 l-35 -55l-51 -39l-100 -45l-125 -7l-74 23l-55 39h-12l-43 33v24l-29 35l-10 205v110l-27 15l-24 2l-29 -8l-2 -31l-10 -35l10 -25l-21 -94v-129l11 -35l-11 -26l21 -33v-20l-35 -29l-33 -8l-14 6l-51 29l-29 55zM473 270l21 -98l20 -39l51 -20h107l57 59l21 55l-5 222l9 55 v76l4 161l-8 27l4 47v29l-19 80l-28 49l-41 28l-64 -4l-57 -22l-56 -55l-8 -123v-29z" />
<glyph unicode="&#x44f;" horiz-adv-x="794" d="M111 823l12 103l12 12l8 25l74 81l72 37l63 13l109 8h33l122 12l37 -12l25 -17l16 -24l6 -49l-12 -148v-73l2 -314l-8 -74l8 -20v-94l10 -94l-12 -31l6 -8l6 -131l-22 -33l-78 -17l-12 13h-33l-12 12l-21 49l8 98l13 113l4 64l4 26l-8 35l8 10v25l-4 57l-25 41l-65 8 l-45 -16l-41 -37l-13 -41l-20 -313v-66l-27 -53l-28 -8l-25 -25l-41 8l-12 17l-45 16l-6 25l10 86l20 55l11 43l6 12l-4 31l8 21l12 110l12 45l-8 17l17 32v54l-17 12l-86 117l-20 86zM248 791l10 -62l10 -27l33 -28v-15l90 -32l12 6l111 -6l25 32l12 84l-8 41l8 13l-12 39 l8 22l-8 31l8 37l-12 24l-29 21l-123 -8l-53 -21l-33 -20l-29 -43z" />
<glyph unicode="&#x450;" horiz-adv-x="811" d="M102 1452l17 18l22 37l54 2l149 -147l10 -14l43 -54l4 -41l-18 -30l-33 -17l-67 21l-86 104l-84 82zM104 55l33 -47l47 -26l43 -9l244 15h168l33 24l39 39l-6 58l-21 30l-51 21l-109 -8l-63 -13h-133l-31 2l-16 19l4 188l-4 94v29l36 21l107 4l61 -13l121 -4l66 21l20 51 v49l-45 43h-287l-57 4l-22 25l4 147v68l6 47l14 20l12 9l148 -13l57 -10h121l21 10l28 41l10 47l-6 17l-49 51l-155 12l-312 -4l-35 -12l-20 -27l-12 -20l-9 -127l13 -78v-195l-4 -108l-4 -359z" />
<glyph unicode="&#x451;" horiz-adv-x="798" d="M96 965l13 41l-9 20l33 51l64 33l73 6l11 -10l20 18l51 -8l29 -10l33 18l63 4l2 2l31 -6h59l62 -14l22 -6l29 -51l-20 -54v-18l-48 -25l-135 -4l-41 17h-78l-84 -4l-26 -29l10 -309l16 -25l58 -8l92 12l53 8l105 9l63 -21l27 -51l-19 -47l-45 -33l-71 -4h-250l-21 -53 l2 -47l15 -45l-15 -21l6 -111l5 -45l20 -16l105 8l145 17h80l47 -54v-39l-23 -45l-41 -16l-104 -10h-221l-96 -2l-9 12l-41 16l-24 25l2 20l-17 33l15 43l-19 41l9 43l-5 141l9 35v33l6 4l-10 33v10l10 6l-6 39l8 33l-2 92l-10 12v125l-9 72v29l9 12l-9 64zM217 1335l21 39 l30 17l76 -9l62 -36l6 -9l12 -2l37 39l28 12l35 13l33 -2l53 -35l17 -4l22 -41v-33l-31 -72l-59 -24l-90 14l-25 23l-18 39l-2 4l-31 -27l-10 -27l-31 -12l-45 -2l-16 8l-37 4l-25 45z" />
<glyph unicode="&#x452;" horiz-adv-x="935" d="M39 1055l12 24l29 4l8 21l41 33l158 -9l145 -16l117 12l24 -4l41 -28l21 -37v-37l-49 -33l-131 12l-23 -18l-8 -10l-14 -60l14 -41l-8 -30l8 -88l-8 -7l4 -14l49 29h68l14 8l27 -16l30 8h10l39 -29l45 -20l33 -13l17 -26l32 -21l29 -47l16 -47l-8 -12l13 -51l-9 -142 l-4 -2l-4 -4l12 -49l5 -102l-17 -105l8 -53l-30 -103l-25 -55l-68 -76l-51 -16l-16 -12l-80 -9l-25 -4l-32 17l-27 37v69l49 37l47 12l51 33l39 58l13 151l-13 47l2 45l7 49v27v170l-13 20v33l-8 17l-70 26h-59l-41 -14l-45 -51l-10 -25l-12 -31l6 -14l-8 -6l10 -129l12 -55 l2 -131l10 -70l-10 -21l-86 -65l-65 39l-17 31l10 77v52l-6 53l8 69l11 27l-6 143v66l-7 59l-14 232l2 80l-4 55l-8 14h-45l-37 -24h-70l-33 24l-12 17v32z" />
<glyph unicode="&#x453;" horiz-adv-x="722" d="M98 1001l13 37l6 47l33 41l38 13h236l117 -13l39 -16l36 -35l5 -74l-13 -22l-47 -16l-125 4l-51 4l-37 8l-39 -8l-24 -25l8 -92l8 -186l-12 -66l12 -70l-8 -20l4 -141v-82l4 -176l-16 -56l-29 -32l-47 -13l-51 -18l-41 51v31l-8 16l8 105l4 231l-4 152l8 22v57l-4 125 l-10 99l-2 80zM303 1239l31 76l41 26l20 15l45 16l9 21l63 43l39 6l22 -4l25 -31l23 -14l16 -47l-8 -25l-31 -27l-74 -30l-10 -15l-20 -16l-17 -10l-45 -33l-49 -23l-25 2l-39 27z" />
<glyph unicode="&#x454;" horiz-adv-x="819" d="M100 408l6 12l5 223l10 197l10 63l35 98l29 31l45 33l4 10h12l18 6l41 31h31l27 16l10 -8l33 13l59 -13l6 -4h31l41 -14l102 -70l37 -59l-4 -4l12 -39l13 -27l8 -59l-12 -35l-17 -35l-26 -22h-62l-43 22l-16 37v53l-21 56l-22 28l-35 13l-80 -5l-47 -26l-25 -35v-39 l-8 -8l-6 -12l-6 -121l-8 -41l16 -37l92 8l25 -2l106 -10l49 -41l13 -53l-19 -54l-61 -16l-78 16l-125 -4l-29 -22l7 -140l-17 -32l8 -29l-2 -29l15 -47l37 -51l36 -12l84 12l23 23l20 65l45 72l33 22l51 6l39 -26l19 -31l2 -41l12 -22l-20 -45l6 -13l-37 -67l-62 -68 l-20 -4l-68 -35l-59 -6v-8h-12l-21 8l-28 -8l-7 14h-32l-13 6h-14l-37 13l-28 20l-13 -4l-51 45l-25 27v20l-12 12l-24 64l-5 205z" />
<glyph unicode="&#x455;" horiz-adv-x="737" d="M113 283l8 24l39 21l43 -13l16 -8l25 -129l32 -41l60 -18l53 6l41 25l31 43l12 51l-4 53l-23 51l-59 68l-65 59l-158 168l-31 64l-12 163l4 99l18 86l45 39h13l8 12l14 12l37 8l55 13l72 -6l62 -23l83 -76h13l8 -20l43 -33l22 -37l9 -55l8 -12l-2 -43l-37 -31l-80 2 l-31 24l-45 86l-14 29l-72 47l-51 -2l-35 -26l-28 -31l-21 -55l8 -23v-49l9 -23l16 -28l39 -47l131 -134l94 -106l29 -51h14l8 -21l17 15l12 -9l-12 -26l12 -17v-10l10 -8l6 -147l-45 -99l-35 -24l-24 -31l-68 -39l-121 -14l-32 18l-60 16l-30 19l-47 59l-17 31l-4 51z" />
<glyph unicode="&#x456;" horiz-adv-x="380" d="M102 678l4 350l29 55l51 29l15 6l32 -8l35 -29v-20l-20 -33l10 -27l-10 -34l20 -33l-14 -27l8 -20l-14 -49l20 -95l-10 -24l10 -35l-20 -84l10 -59l-10 -21l14 -43l-14 -20l-2 -62v-41l12 -53v-94l16 -17v-12l-20 -20v-8l25 -17v-45l-13 -45l-12 -12l12 -29l-53 -29 l-37 9l-37 28l-28 78l-5 143l5 316z" />
<glyph unicode="&#x457;" horiz-adv-x="442" d="M-10 1348l47 63l18 12h74l43 -12l29 -35v-37l-19 -22l19 -43l-41 -35h-17l-22 -27l-86 17l-10 31l-27 32zM123 178l10 25v35l-10 14l12 55l6 45v39l-8 86l2 82v354l6 115l23 45l51 27l55 -10l37 -27l19 -68l6 -51l-13 -29v-75l-2 -324l9 -22l-7 -109l7 -94l-9 -12l2 -121 l-8 -13l27 -41l-4 -63l-12 -18l-74 -43l-53 2l-48 41l-10 14l-10 37zM262 1305v59l29 41l16 16h88l39 -8l19 -8l26 -49l8 -23l-6 -78l-16 -26h-39l-39 -27l-49 8l-35 19l-24 31z" />
<glyph unicode="&#x458;" horiz-adv-x="737" d="M98 231l8 31l23 21l84 4l33 -33l26 -76l54 -43l43 -4h30l33 16l29 39l14 33l8 84l-4 103l-4 538l-14 60l-8 28l10 43l29 35l43 20l71 -28l25 -39l-4 -119l-4 -158v-104l4 -248l4 -139l-6 -25l-7 -55l-10 -57l-20 -45l-39 -62l-70 -51l-82 -12l-104 8l-72 43l-94 117 l-14 47z" />
<glyph unicode="&#x459;" horiz-adv-x="1222" d="M59 86l33 33l53 12l33 16l29 39l14 33l8 84l-4 103l-4 538l-4 12l-6 74l10 43l29 35l39 22l6 7h2l113 2h235l39 -13l33 -41l6 -47l12 -37l-10 -38l-2 -80l-10 -99l-4 -125l-4 -41l4 -8l39 -10l45 8l86 13l102 -15l115 -76l45 -81l12 -62l12 -63l-12 -25l8 -27l-28 -104 l-66 -111l-123 -65l-78 -17l-20 9l-37 -9l-12 9l-129 6l-43 22l-47 13l-29 32l-17 56l5 176v82l4 141l-9 20l13 70l-13 66l9 186l8 92l-25 25l-39 8l-36 -8l-52 -4l-18 -11l-6 -12l-4 -158v-104l4 -248l4 -139l-6 -25l-6 -55l-11 -57l-20 -45l-39 -62l-70 -51l-82 -12 l-26 -17l-33 9l-21 24zM702 156l9 -17l77 2h78l25 19l37 8l61 70l17 45l-13 110l-20 29l-17 12l-41 8l-36 23l-54 -10l-61 14h-41l-21 -20v-76v-217z" />
<glyph unicode="&#x45a;" horiz-adv-x="1183" d="M111 199l8 129l-8 24l14 125l-12 37l10 39l-4 22l-2 107l10 35l-8 76l10 14l-16 108v142l65 67l45 -4l56 -63l12 -29v-70l-10 -22l8 -43l-6 -74l-4 -180l8 -12l12 -9h172l31 31l4 29l-4 125l-4 201l12 22v51l27 35l18 12l76 -4l33 -39l-7 -176l-2 -43l9 -106l2 -43 l-4 -82l8 -27l20 -4l45 8l86 13l103 -15l114 -76l45 -81l13 -62l12 -63l-12 -25l8 -27l-29 -104l-65 -111l-123 -65l-78 -17l-21 9l-36 -9l-13 9h-123l-59 10l-43 41h-6l-10 14l-6 76l8 39l10 250l-31 28l-49 9l-14 8l-94 -13l-21 -8l-22 -24l-7 -23l9 -112v-162l-2 -27 l14 -20l-6 -56l-39 -39l-94 -4l-19 4l-8 33l-14 27zM657 176l5 -26l16 -11l53 2h49h29l25 19l36 8l62 70l16 45l-12 110l-21 29l-16 12l-41 8l-37 23l-53 -10l-61 14h-17l-20 -18l8 -13l-14 -108l6 -68z" />
<glyph unicode="&#x45b;" horiz-adv-x="923" d="M47 1055l12 24l29 4l8 21l41 33l158 -9l145 -16l117 12l25 -4l41 -28l20 -37v-37l-49 -33l-131 12l-23 -18l-14 -25l-6 -67v-94l-12 -54l-2 -45l14 -12l26 23l107 16l98 -12l97 -56l47 -63l34 -123l-14 -47l8 -14v-25l-2 -213l-6 -117l12 -47l-26 -22h-62l-43 22l-16 37 v53l-4 221l8 117l-18 80l-29 49l-41 29l-64 -4l-57 -23l-65 -69v-238l14 -49l-8 -21l14 -26l-10 -68l10 -59v-21l-35 -28l-33 -9l-14 7l-51 28l-29 56l-4 350l8 131l-4 315v62l-4 55l-8 14h-45l-37 -24h-70l-32 24l-13 17v32z" />
<glyph unicode="&#x45c;" horiz-adv-x="761" d="M104 37l7 268l8 152l-2 516l-6 86v26l26 35l47 8l54 -12l20 -49l-2 -133l-14 -78v-117l4 -6l16 10l96 168l39 78l31 88l59 51l35 17l31 6l27 -6l51 -49l-13 -66l-22 -53l-37 -49l-10 -21l-49 -65v-17l-37 -65l-27 -51l4 -74l78 -168l47 -162l53 -98l21 -27l14 -47l17 -61 v-31l-25 -39l-86 -27l-53 37l-55 86l-37 129l-47 156l-19 41l-6 43l-23 20l-20 -4l-41 -57l-12 -20v-84l12 -142l10 -39l-10 -112l-55 -45l-70 22zM299 1264l10 39l84 81l86 105l68 20l33 -16l18 -31l-4 -41l-43 -53l-10 -14l-150 -148l-53 2l-23 37z" />
<glyph unicode="&#x45d;" horiz-adv-x="737" d="M102 1452l17 18l22 37l54 2l149 -147l10 -14l43 -54l4 -41l-18 -30l-33 -17l-67 21l-86 104l-84 82zM111 68l20 235l4 213l2 215l6 328l13 37l26 32h64l45 -45l6 -20v-68l-6 -102l-4 -76l-13 -252l17 -20l12 12v4l14 45l21 51l24 56l64 200l35 138l24 45l39 32l49 -6 l29 -18l23 -53l8 -70l-4 -317l-8 -199l-5 -244l-12 -141l-29 -55l-34 -29l-31 -6l-39 26l-18 29l-2 127l22 223l12 187l-12 16h-8l-12 -12l-68 -207l-35 -113l-20 -114l-43 -97l-43 -51l-41 -14l-47 8l-25 18z" />
<glyph unicode="&#x45e;" horiz-adv-x="772" d="M102 1022v70l45 38l50 13l59 -31l35 -55l33 -107l16 -39l8 -57l14 -37l29 -106l6 -6l11 6l16 26l80 334l24 47l35 21h58l32 -25l25 -59l-29 -125l-41 -113l-8 -41l-20 -22l-11 -58l-12 -14l-14 -57l-43 -123l-8 -158v-68l-15 -36l15 -90l-3 -95l-32 -47l-8 -20l-37 -8 l-15 -13l-37 17h-36l-41 65v123l14 117l6 200l-63 213l-4 9l-13 10l-12 -8h-12l20 32l-31 105l-28 27l12 20l-25 80l-12 14h-4l-8 -35h-4l-2 19l6 29zM102 1356l9 33l41 30l49 8l49 -38l76 -89l57 -2l68 25l43 49l24 55l10 3l11 8l43 -11l36 -20l9 -41l-6 -27l-60 -69 l-35 -31l-24 -12l-17 -21l-39 -22l-59 -17l-16 2l-33 5l-70 22l-61 53l-84 86z" />
<glyph unicode="&#x45f;" d="M113 659l14 109l-6 68l-8 223l39 45l14 14l67 -14l43 -41h7l10 -14l6 -76l-8 -39l-10 -250l-5 -29l5 -125l12 -284l-12 -23v-51l30 -29l49 -8l15 -8l94 12l20 8l23 25l6 23l-12 28v70l10 22v125l6 74l4 180l-8 13l-8 112v162l2 27l-14 20l6 55l39 39l94 4l18 -4l9 -32 l14 -27l2 -164l-8 -129l8 -25l-14 -124l12 -37l-10 -39l4 -23l2 -106l-10 -35l8 -76l-10 -14l16 -109v-141l-66 -68l-45 4l-63 11l-8 -4l-9 -64l-8 -70l-16 -22l-39 -23l-55 11l-47 84v63l-7 14l-16 -6l-14 4l-49 -2l-76 4l-33 39l6 177l2 43l-8 106l-2 43l4 160l-8 76v26z " />
<glyph unicode="&#x48a;" horiz-adv-x="747" d="M98 725l4 53l-4 131l4 99l13 59l24 33l45 12l72 -35l12 -26l8 -150l-10 -96l4 -68l-18 -184l12 -21l15 3l2 4l14 43l51 149l27 62l10 36l68 226l47 59h12l35 -2l49 -22l24 -64l-4 -231l-2 -136l-6 -147l-2 -129l4 -119l4 -61l21 -64l4 -65l25 -2l38 -47l-18 -72l-6 -29 l-35 -49l6 -14l-10 -23l-27 -63l-16 -33l-19 -8l-36 14h-27l-35 27l-4 22l10 37l47 70l2 20l11 25l6 16l-2 15l-33 -3l-25 15l-10 31l-16 22l-6 90l4 131l-2 43l12 187l8 84l-14 26l-6 -8l-15 -27l-14 -73l-24 -41l-62 -207l-33 -203l-28 -45l-70 -14l-29 10l-55 43v16 l-16 19l-4 123l-5 47l7 39l-5 51l9 43v57zM104 1356l9 33l41 30l49 8l49 -38l76 -89l57 -2l68 25l43 49l24 55l10 3l11 8l43 -11l37 -20l8 -41l-6 -27l-60 -69l-35 -31l-24 -12l-17 -21l-38 -22l-60 -17l-16 2l-33 5l-70 22l-61 53l-84 86z" />
<glyph unicode="&#x48b;" horiz-adv-x="737" d="M104 1356l9 33l41 30l49 8l49 -38l76 -89l57 -2l68 25l43 49l24 55l10 3l11 8l43 -11l37 -20l8 -41l-6 -27l-60 -69l-35 -31l-24 -12l-17 -21l-38 -22l-60 -17l-16 2l-33 5l-70 22l-61 53l-84 86zM109 137l4 318l8 198l4 244l12 141l29 56l35 28l30 6l39 -26l19 -29 l2 -127l-23 -223l-12 -186l12 -17h8l13 12l67 207l35 113l21 115l43 96l43 51l41 14l47 -8l24 -18l21 -51l-21 -236l-4 -213l-2 -215l-6 -303l10 -6l37 -15h27l35 -26l4 -23l-11 -37l-47 -69l-2 -21l-10 -24l-8 -17l-23 -55l-26 -45l-19 -8l-43 2l-35 24l-6 70l17 14l16 52 l23 51l-5 24l-12 15h-24l-45 45l-7 20v68l7 102l4 76l12 252l-16 20l-13 -12v-4l-14 -45l-21 -51l-24 -55l-64 -201l-34 -137l-25 -45l-39 -33l-49 6l-29 18l-22 54z" />
<glyph unicode="&#x48c;" horiz-adv-x="808" d="M35 844v71l22 31l45 8h11v17l4 84l18 12l4 23l49 36l48 -8l43 -39l14 -32l-6 -84l10 -15l35 2l18 -24l6 -49l-16 -56l-55 -39l-11 -2l11 -28l-11 -13v-80l21 -34l16 -13h25l80 9l96 -21l61 -29l80 -69l37 -64v-20l6 -12l15 -93l-6 -82l-15 -45l-45 -96l-12 -8l-19 -27 l-88 -41l-135 -22h-59l-121 -2l-74 16l-12 27v47l-12 74l6 24l6 131v41l-6 21v47l6 35l-12 65l12 27l-8 35l-4 53l4 35l2 108l-4 19l-19 -2l-39 12zM274 340l5 -186l12 -17l145 6l58 31l41 16l36 56l7 98l-15 45l-20 35l-6 16l-74 33l-68 10l-63 -2l-25 -8l-12 -20l-12 -95z " />
<glyph unicode="&#x48d;" horiz-adv-x="813" d="M29 864l8 51l43 37l20 2l-2 88l41 66h13l20 -4l49 8l8 -8l37 -33l25 -82l-2 -33l26 2l17 -8h2l18 -57l-4 -47l-26 -41l-31 -17l-25 -4l4 -20l-10 -21v-116l21 -27h14l45 8l86 13l102 -15l115 -76l45 -81l12 -62l13 -63l-13 -25l9 -27l-29 -104l-66 -111l-122 -65l-78 -17 l-21 9l-37 -9l-12 9h-172l-49 24l-27 41l-6 25l6 170v143l-6 68l8 20l-8 41l6 49v158l4 65l-26 15l-6 8l-31 6zM262 176l4 -26l17 -11l53 2h49h29l24 19l37 8l62 70l16 45l-12 110l-21 29l-16 12l-41 8l-37 23l-53 -10l-62 14h-16l-21 -20v-76l-4 -183z" />
<glyph unicode="&#x48e;" horiz-adv-x="813" d="M90 569l8 41l-8 21l6 67v144l-6 170l6 24l27 41l49 25h172l12 8l37 -8l21 8l78 -16l122 -66l66 -110l29 -105l-9 -27l13 -24l-13 -64l-12 -61l-37 -70l15 -20l67 -66l-18 -57l-35 -27l-66 11l-41 20l-20 31l-25 20l-102 -14l-86 12l-45 8h-14l-21 -26v-117l10 -20l4 -70 l9 -33v-57l8 -66l-25 -82l-37 -32l-8 -9l-49 9l-20 -5h-13l-41 66l4 156l-4 82l-2 81v158zM262 909l8 -14l4 -182v-76l21 -21h16l62 15l18 8l-35 49l23 37l37 23l65 -21l47 -49l13 14l12 111l-16 45l-62 70l-37 8l-24 18h-29h-49l-53 2l-17 -10z" />
<glyph unicode="&#x48f;" horiz-adv-x="808" d="M109 426l8 16l-4 35l12 29l-8 24l8 35l-12 27l12 65l-6 35v47l-6 9l12 12v41l-6 59v72l-6 8v16l14 11v12l-14 8v17l20 12l-8 14l2 14l45 35l4 19l23 6h14l14 22l105 -8h59l135 -22l88 -41l19 -27l12 -8l45 -96l15 -45l6 -82l-15 -92l-6 -13v-20l-57 -82l31 -35l59 -76 l2 -35l-25 -36l-51 -17l-76 31l-18 20l-51 66l-88 -19l-80 9h-25l-16 -13l-21 -34v-80l11 -13l-6 -45v-73l8 -25l-8 -12l8 -56l6 -84l-14 -32l-43 -39l-48 -8l-20 28l-29 8l-4 23l-10 6l-8 6l8 72l-12 12l6 51l-2 68l10 35l-8 41v37l-2 51h-4zM295 657l12 -20l25 -8h53 l-23 30l3 48l43 43l41 -5l49 -38l39 -37l6 16l20 35l15 45l-7 98l-36 56l-41 16l-60 22h-28l-107 -10l-4 -172l8 -18z" />
<glyph unicode="&#x490;" horiz-adv-x="718" d="M104 997l11 33v51l30 39l27 15l240 4l14 8l-2 43l8 70l17 22l53 23l55 -9l61 -86v-63v-35l-8 -43l4 -41l-16 -43l-82 -24l-20 8h-127l-29 16l-51 -24l2 -97v-129l8 -8l-4 -109v-32l4 -29v-31l-4 -133l8 -31l-8 -26l16 -176l-20 -97l-33 -36l-10 2l-15 -15l-32 -6l-35 -12 l-31 39l-10 41l-6 63v45l12 41l-6 11l2 112v62l8 36l-10 119l10 84l-10 33l2 158l-8 12l-4 39l-4 92z" />
<glyph unicode="&#x491;" horiz-adv-x="722" d="M98 1001l13 37l6 47l33 41l38 13h228l4 8l-2 78l18 45l19 18l51 6l33 15l57 -13l18 -22l9 -51l-17 -111l10 -27l2 -34l3 -50l-13 -22l-47 -16l-125 4l-51 4l-37 8l-39 -8l-24 -25l8 -92l8 -186l-12 -66l12 -70l-8 -20l4 -141v-82l4 -176l-16 -56l-29 -32l-47 -13l-51 -18 l-41 51v31l-8 16l8 105l4 231l-4 152l8 22v57l-4 125l-10 99l-2 80z" />
<glyph unicode="&#x492;" horiz-adv-x="718" d="M-8 563l22 -39l39 -12l37 10l23 -6l20 -2l2 -68l-8 -36v-62l-2 -112l6 -11l-12 -41v-45l6 -63l10 -41l31 -39l35 12l32 6l15 15l10 -2l33 36l20 97l-16 176l8 26l-8 31l2 103l10 8l123 -2l55 39l17 55l-6 49l-19 25l-31 4l-149 4l2 49l-8 8v129l-2 97l51 24l29 -16h127 l20 -8l82 24l16 43l-4 41l-20 29l-49 30l-66 13l-303 -6l-27 -15l-30 -39v-51l-11 -33l7 -14l4 -92l4 -39l8 -12l-2 -158l-66 -8l-45 -8l-22 -31v-72z" />
<glyph unicode="&#x493;" horiz-adv-x="722" d="M-14 584l8 -47l47 -21l55 -2l6 -8l19 6v-84l-4 -231l-8 -105l8 -16v-31l41 -51l51 18l47 13l29 32l16 56l-4 176v82l-6 123l28 12l115 -4l31 16l39 47l4 47l-19 56h-2l-16 8l-59 -6l-86 -4l-25 6l-8 182l-8 92l24 25l39 8l37 -8l51 -4l125 -4l47 16l13 22l-5 74l-36 35 l-39 16l-117 13h-236l-38 -13l-33 -41l-6 -47l-13 -37l11 -38l2 -80l10 -99v-110l-84 -2l-43 -37z" />
<glyph unicode="&#x494;" horiz-adv-x="829" d="M104 997l11 33v51l30 39l27 15l303 6l66 -13l49 -30l20 -29l4 -41l-16 -43l-82 -24l-20 8h-127l-29 16l-51 -24l2 -97v-129l8 -8l55 31h68l14 8l27 -16l31 8h10l39 -29l45 -20l33 -13l16 -26l33 -21l28 -47l17 -47l-8 -12l12 -51l-8 -142l-4 -2l-5 -4l13 -49l4 -102 l-17 -105l9 -53l-31 -103l-25 -55l-67 -76l-51 -16l-17 -12l-80 -9l-24 -4l-33 17l-27 37v69l50 37l47 12l51 33l39 58l12 151l-12 47l2 45l6 49v27v170l-12 20v33l-9 17l-69 26h-60l-41 -14l-45 -51l-10 -25l-12 -31l6 -14l-8 -6l4 -74l8 -31l-8 -26l16 -176l-20 -97 l-33 -36l-10 2l-15 -15l-32 -6l-35 -12l-31 39l-10 41l-6 63v45l12 41l-6 11l2 112v62l8 36l-10 119l10 84l-10 33l2 158l-8 12l-4 39l-4 92z" />
<glyph unicode="&#x495;" horiz-adv-x="856" d="M98 1001l13 37l6 47l33 41l38 13h236l117 -13l39 -16l36 -35l5 -74l-13 -22l-47 -16l-125 4l-51 4l-37 8l-39 -8l-24 -25l8 -92l10 -115l-2 -45l14 -12l27 23l107 16l98 -12l96 -56l47 -63l35 -123l-14 -47l8 -14v-25l4 -156l4 -139l-6 -25l-6 -55l-10 -57l-21 -45 l-39 -62l-70 -51l-81 -12l-7 -4l-30 8l-21 22l-4 84l33 33h31l32 17l29 38l14 33l9 84l-5 103l-4 118l9 117l-19 80l-29 49l-40 29l-64 -4l-57 -23l-66 -69l-8 -21v-102v-82l4 -176l-16 -56l-29 -32l-47 -13l-51 -18l-41 51v31l-8 16l8 105l4 231l-4 152l8 22v57l-4 125 l-10 99l-2 80z" />
<glyph unicode="&#x496;" horiz-adv-x="909" d="M94 1044l10 39l35 25l29 8l59 -8l43 -37l15 -37l14 -8v-29l25 -67l24 -76l23 -76l8 -16l12 -8l8 274l29 55l51 29l15 6l32 -8l35 -29v-20l-10 -60l-4 -94l-6 -69l16 -84l21 24l18 72l14 37l13 47l-7 24l29 58l6 43l11 31l69 49l43 -15h29l22 -57l-10 -41l2 -8v-10 l-22 -29l-9 -35l-104 -266l-29 -88l-12 -27l64 -135l26 -72l39 -108l27 -60l34 -67l15 -60l2 -4l39 -47l-21 -71l-4 -29l-35 -49l4 -15l-10 -20l-26 -66l-17 -30l-20 -9l-35 15l-27 -2l-34 28l-5 23l11 35l47 71l4 21l8 22l8 19l17 37l-7 6l-14 4l-16 20l-13 -4l-20 9 l-29 36l-12 72l-39 131l-33 92l-12 6l-18 -8l12 -53v-94l-4 -53l12 -111v-41l-53 -29l-37 9l-37 28l-29 78l-4 143v121l-20 10l-31 -61l-37 -188l-24 -68l-29 -37l-10 -12l-33 -4l-39 -19l-45 9l-33 51l8 51l33 61l19 82l26 45l19 70l33 59l20 62l35 72l-4 43l-8 24l-31 60 l-21 61l-24 27l-8 32l-19 76l-26 41l-31 109z" />
<glyph unicode="&#x497;" horiz-adv-x="974" d="M98 57l19 62l20 28l6 31l50 107l20 61l43 74l18 65l29 62l-2 45l-33 63l-30 93l-23 71l-45 121l-29 64l-16 75l16 27l35 24l29 3l31 14l59 -31l31 -41l2 -47l12 -51l22 -94l35 -103l21 45l-8 31l14 41v209l43 31l65 -7l52 -24v-45l-9 -164v-66l3 -51l6 -8l14 -2l29 45 l18 66l14 47l13 73l16 33l12 37l35 51l92 33l41 -10l37 -62l-14 -49l-31 -59l-35 -96l-37 -72l-10 -37l-92 -184l2 -60l31 -51l18 -78l29 -39l18 -73l7 -47l20 -29l2 -31l12 -16l6 -37l33 -80l33 -25l4 -22l-12 -35l-47 -69l-2 -23l-11 -23l-8 -18l-22 -53l-29 -45l-18 -11 l-43 5l-35 24l-4 70l14 14l18 51l23 52l-4 24l12 35l-16 2l-39 47l-19 43l-30 92l-6 41l-19 51l-8 52l-8 20l-17 12l-22 -24l10 -27l8 -69l-6 -54v-51l10 -78l-16 -30l-66 -39l-86 65l-10 21l10 69l3 131l12 56l-8 20l-19 10l-22 -18l-19 -68l-14 -30l2 -21l-12 -20l-21 -76 l-14 -21l-21 -98l-55 -27l-45 13l-25 8l-32 6z" />
<glyph unicode="&#x498;" horiz-adv-x="780" d="M102 205l4 33l25 49l14 16l50 -6l8 10h4l8 -28l27 -13l10 -20l4 -41l8 -23l12 -53l33 -29l129 9l8 12l46 20l36 43l17 37v86l-8 45l-17 41l-69 60l-95 12h-18l-4 -6l-45 18l-21 29l13 72l81 32l64 17l74 71l16 60l8 43v51l-20 47l-29 43l-61 37l-45 4h-27l-37 -29 l-29 -55l-24 -123l-16 -16h-64l-33 28l-24 33l8 117l33 82l45 55v6l30 2l11 13l18 8l21 20l81 4l5 5l63 -9l12 -8l41 -4l37 -10l60 -41l61 -90l25 -92l12 -15l-8 -22l-13 -125l-16 -19l-4 -28l-21 -52l-24 -12v-12l-27 -37v-29l88 -100l13 -41l12 -51l-8 -33l8 -41l-16 -92 h-5l-8 -8l4 -19v-10l-47 -74l-90 -57l-45 -6l-4 -4l10 -19l58 -20h6l47 -53l4 -17l6 -8l4 -41l-10 -70l-21 -32l-41 -31l-81 -12l-62 2v10l-25 14l-28 39v33l2 18l59 27l51 -20l15 4l10 18l-4 16h-2l-14 11l-74 20l-19 17h-16l-12 22l6 57l-6 11h-37l-17 14h-24l-31 27h-14 l-80 100l-8 41l-4 27z" />
<glyph unicode="&#x499;" horiz-adv-x="780" d="M102 909l13 9l4 26l8 41l80 100h14l31 27h24l17 14h49l41 9l31 -9l45 -2l4 -4l53 -8l90 -57l47 -74v-10l-4 -19l8 -8h5l16 -92l-8 -41l8 -33l-12 -51l-13 -41l-88 -100v-29l27 -37v-12l24 -12l21 -52l4 -28l16 -19l13 -125l8 -22l-12 -14l-25 -93l-61 -90l-60 -41 l-37 -10l-14 -2l-2 -8l10 -19l58 -20h6l47 -53l4 -17l6 -8l4 -41l-10 -70l-21 -32l-41 -31l-81 -12l-62 2v10l-25 14l-28 39v33l2 18l59 27l51 -20l15 4l10 18l-4 16h-2l-14 11l-74 20l-19 17h-16l-12 22l6 68l-55 2l-21 20l-18 8l-11 13l-30 2v6l-45 55l-33 82l-8 117 l24 33l33 28h64l16 -16l24 -123l29 -55l37 -29h27l45 4l61 37l29 43l20 47v51l-8 43l-16 60l-74 71l-64 17l-81 33l-13 71l21 29l45 18l4 -6h18l95 13l69 59l17 41l8 45v86l-17 37l-36 43l-46 20l-8 13l-129 8l-33 -29l-12 -53l-8 -23l-4 -41l-10 -20l-27 -12l-8 -29h-4 l-8 10l-50 -6l-14 16l-25 50z" />
<glyph unicode="&#x49a;" d="M88 967l12 61v37l52 45l53 4h12l43 -53l-6 -103l-8 -57l-2 -53l-8 -25l12 -45v-35l6 -10l29 33l55 94l14 45l29 62l14 57l33 66l55 45l62 4l10 12h18l52 -74l-13 -53l-51 -88l-82 -123l-2 -20l-31 -41l-24 -62l8 -39l39 -84l10 -47l35 -69l33 -82l26 -47l5 -37l51 -70 l8 -53l41 -41l-6 -60l22 -24l-14 -74l-4 -29l-31 -51l4 -14l-8 -23l-25 -65l-12 -33l-20 -8l-35 10h-27l-37 25l-6 22l8 37l43 72l2 22l9 23l6 18l12 35l-39 10l-49 58l-18 41l-4 30l-13 19l-2 37l-20 24l-4 29l-17 24l-43 175l-22 47l-4 2l-45 -49l-27 -74l8 -35v-61 l23 -181l8 -61l-8 -25l-45 -28l-25 -13l-29 17l-32 4l-37 57l2 58l10 73l-12 54l2 106l-11 158l-4 110v45l-8 21l6 178l-6 96z" />
<glyph unicode="&#x49b;" horiz-adv-x="761" d="M104 37l7 268l8 152l-2 516l-6 86v26l26 35l47 8l54 -12l20 -49l-2 -133l-14 -78v-117l4 -6l16 10l96 168l39 78l31 88l59 51l35 17l31 6l27 -6l51 -49l-13 -66l-22 -53l-37 -49l-10 -21l-49 -65v-17l-37 -65l-27 -51l4 -74l78 -168l47 -162l53 -98l21 -27l14 -47l17 -61 l4 -11l26 -18l7 -23l-9 -36l-45 -72v-23l-8 -22l-8 -19l-21 -55l-22 -47l-19 -10l-45 2l-34 20l-9 70l13 16l16 52l19 53l-7 22l-4 27l-18 14l-55 86l-37 129l-47 156l-19 41l-6 43l-23 20l-20 -4l-41 -57l-12 -20v-84l12 -142l10 -39l-10 -112l-55 -45l-70 22z" />
<glyph unicode="&#x49c;" horiz-adv-x="950" d="M88 967l12 61v37l52 45l53 4h12l43 -53l-6 -103l-8 -57l-2 -53l-8 -25l12 -45v-35l6 -10l-6 -63l43 4h22l9 39l-13 67l13 39l38 23h72l31 -23l8 -45l-6 -112l24 12l7 -8l16 41v86l47 67l14 45l29 62l14 57l33 66l56 45l61 4l10 12h19l51 -74l-12 -53l-52 -88l-82 -123 l-2 -20l-30 -41l-25 -62l-16 -86l20 -37l10 -47l35 -69l33 -82l27 -47l4 -37l51 -70l8 -53l41 -41l-6 -70l-49 -49l-103 12l-49 58l-18 41l-4 30l-13 19l-2 37l-20 24l-4 29l-17 24l-43 175l-22 47l-35 8v-80l-4 -31l-25 -18l-49 -6l-55 16l-39 55l-2 58l-29 -2l-6 -68 l-10 -53l8 -35v-61l23 -181l8 -61l-8 -25l-45 -28l-25 -13l-29 17l-32 4l-37 57l2 58l10 73l-12 54l2 106l-11 158l-4 110v45l-8 21l6 178l-6 96z" />
<glyph unicode="&#x49d;" horiz-adv-x="972" d="M104 37l7 268l8 152l-2 516l-6 86v26l26 35l47 8l54 -12l20 -49l-2 -133l-14 -78v-117l4 -6v-61l30 -15l23 5l-8 24l8 6l2 56l21 47l47 8l51 -8l37 -43l-4 -109l14 -4l12 8l41 96l96 168l39 78l31 88l59 51l35 17l31 6l27 -6l51 -49l-12 -66l-23 -53l-37 -49l-10 -21 l-49 -65v-17l-37 -65l-23 -78l-47 -90l33 -125l47 -162l53 -98l21 -27l14 -47l17 -61v-31l-25 -39l-86 -27l-53 37l-56 86l-36 129l-48 156l-18 41l-6 43l-23 20l-20 -4v-8l6 -108l-8 -17v-2l-66 -18l-47 4l-47 39l-16 30l4 82l-31 2l-16 -16l4 -37l10 -8l-12 -20v-84 l12 -142l10 -39l-10 -112l-55 -45l-70 22z" />
<glyph unicode="&#x49e;" d="M-2 936l12 53l49 41l43 2l-2 33l52 45l53 4h12l43 -53l8 -29l43 -8l29 -53l-10 -64l-54 -33l-40 -4v-47l12 -45v-35l6 -10l29 33l55 94l14 45l29 62l14 57l33 66l55 45l62 4l10 12h18l52 -74l-13 -53l-51 -88l-82 -123l-2 -20l-31 -41l-24 -62l8 -39l39 -84l10 -47 l35 -69l33 -82l26 -47l5 -37l51 -70l8 -53l41 -41l-6 -70l-49 -49l-103 12l-49 58l-18 41l-4 30l-13 19l-2 37l-20 24l-4 29l-17 24l-43 175l-22 47l-4 2l-45 -49l-27 -74l8 -35v-61l23 -181l8 -61l-8 -25l-45 -28l-25 -13l-29 17l-32 4l-37 57l2 58l10 73l-12 54l2 106 l-11 158l-4 110v45l-8 21l4 192l-26 -2l-56 17z" />
<glyph unicode="&#x49f;" horiz-adv-x="761" d="M14 965l9 36l53 33l37 -4l-2 55l26 35l47 8l54 -12l20 -49v-23l78 -18l18 -53l-12 -53l-49 -41l-51 -2v-21v-117l4 -6l16 10l96 168l39 78l31 88l59 51l35 17l31 6l27 -6l51 -49l-13 -66l-22 -53l-37 -49l-10 -21l-49 -65v-17l-37 -65l-27 -51l4 -74l78 -168l47 -162 l53 -98l21 -27l14 -47l17 -61v-31l-25 -39l-86 -27l-53 37l-55 86l-37 129l-47 156l-19 41l-6 43l-23 20l-20 -4l-41 -57l-12 -20v-84l12 -142l10 -39l-10 -112l-55 -45l-70 22l-29 31l7 268l8 152l-4 413l-43 4l-45 29z" />
<glyph unicode="&#x4a0;" d="M-47 999v72l22 31l45 8h189l33 -12l18 -37l-6 -103l-8 -57l-2 -53l-8 -25l12 -45v-35l6 -10l29 33l55 94l14 45l29 62l14 57l33 66l55 45l62 4l10 12h18l52 -74l-13 -53l-51 -88l-82 -123l-2 -20l-31 -41l-24 -62l8 -39l39 -84l10 -47l35 -69l33 -82l26 -47l5 -37l51 -70 l8 -53l41 -41l-6 -70l-49 -49l-103 12l-49 58l-18 41l-4 30l-13 19l-2 37l-20 24l-4 29l-17 24l-43 175l-22 47l-4 2l-45 -49l-27 -74l8 -35v-61l23 -181l8 -61l-8 -25l-45 -28l-25 -13l-29 17l-32 4l-37 57l2 58l10 73l-12 54l2 106l-11 158l-4 110v45l-8 21l6 178l-6 96 l-12 11l-68 -13l-39 13z" />
<glyph unicode="&#x4a1;" horiz-adv-x="761" d="M-53 1024l8 51l43 37h27l90 8l78 6l45 -10l20 -49l-2 -133l-14 -78v-117l4 -6l16 10l96 168l39 78l31 88l59 51l35 17l31 6l27 -6l51 -49l-13 -66l-22 -53l-37 -49l-10 -21l-49 -65v-17l-37 -65l-27 -51l4 -74l78 -168l47 -162l53 -98l21 -27l14 -47l17 -61v-31l-25 -39 l-86 -27l-53 37l-55 86l-37 129l-47 156l-19 41l-6 43l-23 20l-20 -4l-41 -57l-12 -20v-84l12 -142l10 -39l-10 -112l-55 -45l-70 22l-29 31l7 268l8 152l-4 489h-52l-6 8l-55 2l-47 21z" />
<glyph unicode="&#x4a2;" d="M111 199l8 129l-8 24l14 125l-12 37l10 39l-4 22l-2 107l10 35l-8 76l10 14l-16 108v142l65 67l45 -4l56 -63l12 -29v-70l-10 -22l8 -43l-6 -74l-4 -180l8 -12l12 -9h172l31 31l4 29l-4 125l-4 201l12 22v51l27 35l18 12l76 -4l33 -39l-7 -176l-2 -43l9 -106l2 -43 l-4 -160l8 -76v-26l8 -13l-14 -108l6 -68l-2 -119l110 -2h13l18 -24l6 -49l-16 -56l-56 -39l-18 2l-70 17l-18 -8l-14 12l-68 -12l-39 12l-22 39v71l-2 19l8 39l10 250l-31 28l-49 9l-14 8l-94 -13l-21 -8l-22 -24l-7 -23l9 -112v-162l-2 -27l14 -20l-6 -56l-39 -39l-94 -4 l-19 4l-8 33l-14 27z" />
<glyph unicode="&#x4a3;" horiz-adv-x="780" d="M119 201l22 393l-10 313l-12 199l49 24l68 -8l24 -12l27 -66l-19 -339l17 -35l20 -15h154l49 21l14 20l-16 391l8 25l33 21l53 16l29 -4l33 -45l8 -62l6 -20l-10 -47l10 -92l-6 -107l4 -65l-12 -267l4 -293l108 7l17 -9h2l18 -65l-4 -47l-39 -47l-31 -17l-26 8l-64 9 l-43 -13l-12 2l-35 5l-39 49l-10 57l14 356l-8 47l-20 15l-199 -8l-19 -15l-4 -182l13 -147l6 -111l-25 -33l-35 -28l-90 20l-14 25z" />
<glyph unicode="&#x4a4;" d="M111 199l8 129l-8 24l14 125l-12 37l10 39l-4 22l-2 107l10 35l-8 76l10 14l-16 108v142l65 67l45 -4l56 -63l12 -29v-70l-10 -22l8 -43l-6 -74l-4 -180l8 -12l12 -9h172l31 31l4 29l-4 125l-4 201l-4 10v71l22 31l45 8l217 -4h13l18 -24l6 -49l-16 -56l-56 -39l-18 2 l-66 -6l-2 -43l-2 -43l9 -106l2 -43l-4 -160l8 -76v-26l8 -13l-14 -108l6 -68l8 -223l-39 -45l-14 -14l-68 14l-43 41h-6l-10 14l-6 76l8 39l10 250l-31 28l-49 9l-14 8l-94 -13l-21 -8l-22 -24l-7 -23l9 -112v-162l-2 -27l14 -20l-6 -56l-39 -39l-94 -4l-19 4l-8 33l-14 27 z" />
<glyph unicode="&#x4a5;" horiz-adv-x="780" d="M119 201l22 393l-10 313l-12 199l49 24l68 -8l24 -12l27 -66l-19 -339l17 -35l20 -15h154l49 21l14 20l-16 391l8 25l33 33l127 6l108 6l17 -8h2l18 -66l-4 -47l-39 -47l-31 -16l-26 8l-51 4l-2 -14l10 -92l-6 -107l4 -65l-12 -267l6 -295l-6 -71l-17 -27l-2 -37l-14 -12 l-8 2v8l-13 8l-14 -10l12 -22l-14 -9l-35 5l-39 49l-10 57l14 356l-8 47l-20 15l-199 -8l-19 -15l-4 -182l13 -147l6 -111l-25 -33l-35 -28l-90 20l-14 25z" />
<glyph unicode="&#x4a6;" horiz-adv-x="1220" d="M111 199l8 129l-8 24l14 125l-12 37l10 39l-4 22l-2 107l10 35l-8 76l10 14l-16 108v142l65 67l45 -4l64 -10l12 8h172l21 8l14 -4l49 2l76 -4l33 -39l-7 -176l-2 -43l9 -106l-5 -21l9 -8l55 31h68l14 8l26 -16l31 8h10l39 -29l45 -20l33 -13l17 -26l32 -21l29 -47 l16 -47l-8 -12l12 -51l-8 -142l-4 -2l-4 -4l12 -49l4 -102l-16 -105l8 -53l-30 -103l-25 -55l-68 -76l-51 -16l-16 -12l-80 -9l-25 -4l-32 17l-27 37v69l49 37l47 12l51 33l39 58l13 151l-13 47l2 45l7 49v27v170l-13 20v33l-8 17l-70 26h-59l-41 -14l-45 -51l-10 -25 l-12 -31l6 -14l2 -22l8 -13l-14 -108l6 -68l8 -223l-39 -45l-14 -14l-68 14l-43 41h-6l-10 14l-6 76l8 39l10 250l4 28l-4 125l-12 285l12 22v52l-31 28l-49 9l-14 8l-94 -13l-21 -8l-22 -24l-7 -23l13 -29v-69l-11 -23v-125l-6 -73l-4 -181l8 -12l9 -112v-162l-2 -27 l14 -20l-6 -56l-39 -39l-94 -4l-19 4l-8 33l-14 27z" />
<glyph unicode="&#x4a7;" horiz-adv-x="1218" d="M119 201l22 393l-10 313l2 195l49 24l54 -4l69 11l182 10l60 -10l53 16l29 -4l33 -45l8 -62l6 -20l-10 -47l10 -92l-6 -107v-59l14 -13l27 23l106 16l98 -12l97 -55l47 -64l35 -123l-15 -47l8 -14v-25l5 -155l4 -140l-6 -24l-7 -55l-10 -58l-20 -45l-39 -61l-70 -51 l-82 -13l-6 -4l-31 8l-20 23l-4 84l33 33h30l33 16l29 39l14 33l8 84l-4 102l-4 119l8 117l-18 79l-29 50l-41 28l-63 -4l-58 -22l-65 -70l-8 -20l-4 -52l6 -295l-6 -71l-17 -27l-2 -37l-14 -12l-8 2v8l-13 8l-14 -10l12 -22l-14 -9l-35 5l-39 49l-10 57l14 356l-8 47l-8 25 l16 391l-14 21l6 41l-20 14l-199 -8l-12 -6v-15l-15 -55l19 -340l-11 -76l-4 -182l13 -147l6 -111l-25 -33l-35 -28l-90 20l-14 25z" />
<glyph unicode="&#x4a8;" horiz-adv-x="907" d="M102 227l9 -41l12 -18l6 -43l25 -25v-18l86 -68l20 -2l27 -22l63 -6l2 -119l4 -103l25 -55l68 -76l51 -16l16 -12l80 -9l51 -4l78 17l98 82l43 63l8 142l-16 32l-37 27h-69l-43 -59l-7 -97l-26 -28l-45 -19l-47 12l-52 33l-12 58l-6 122l84 11l96 55l47 63l35 123l-14 47 l8 15v24l-2 471l-6 117l-12 12l-9 52l-59 77l-51 39l-164 43l-121 -12l-74 -31l-55 -39h-12l-43 -32v-25l-29 -35l-10 -178v-137l-6 -133l-6 -117zM252 309v29l14 471l21 98l20 39l37 17l4 -11v-63l-12 -375l8 -22v-121l4 -92l10 -152l-43 4l-55 55zM516 870l14 78l17 17 l39 -13l41 -94l-4 -201l8 -55v-76l4 -161l-8 -27l4 -47v-29l-19 -80l-28 -49l-41 -29l-25 7l6 163v93l4 176l-4 315z" />
<glyph unicode="&#x4a9;" horiz-adv-x="929" d="M102 870l9 -292l4 -283l16 -129l21 -57l51 -64l98 -59l59 -13l11 -143l10 -57l20 -45l39 -62l70 -51l82 -12l104 8l72 43l94 117l15 47l14 28l-8 31l-23 21l-84 4l-33 -33l-26 -76l-53 -43l-43 -4h-31l-33 16l-29 39l-14 33l-4 164l135 8l60 31l49 57l16 31l8 41l15 55 l-9 23l9 12l-5 166l-10 72l10 131l-8 41l-2 108l6 43l-12 88l-2 37l-20 55l-54 70l-51 31l-74 26l-114 17h-80l-60 -15l-65 -36l-31 -5l-57 -45l-39 -73zM256 846l12 65l27 54l43 10l22 -6l-2 -80l4 -330l5 -158v-104l-2 -154l-35 -2l-45 64l-9 129l-4 168l7 82l-11 57 l-4 178zM508 150l6 409l14 270l-2 64l-8 25l8 63l52 -29l12 -16l18 -105l10 -321l9 -266l2 -60l-62 -47z" />
<glyph unicode="&#x4aa;" horiz-adv-x="753" d="M98 233l6 37l-6 41l6 23v53l9 12l-9 13l13 28l-8 125l4 80l4 60l4 4l-17 16l17 57l4 123l20 41v25l33 53l51 43l54 23h18l18 14l66 6h21l6 6l55 -6l76 -27l90 -73l14 -27l-4 -4l25 -33l8 -104l-12 -33l-39 -33h-37l-25 10l-37 39l-12 37l-14 35l-17 21l-4 28l-33 25h-79 l-56 -33l-18 -64l-2 -92l8 -16l-6 -125l-2 -86l-6 -92l6 -101v-59l-8 -20l22 -58l6 -22l19 -25l4 -24l24 -23l54 -12l51 4l51 76l8 88l45 39l74 -7l23 -28l20 -45l-20 -123l-39 -66l-58 -47l-12 -12l-43 -8l-8 -8l-47 -2l-4 -7l57 -20h6l19 -25l12 -8l16 -20l2 -17l6 -8 l4 -41l-2 -20l-8 -50l-20 -32l-41 -31l-55 -12l-87 2v10l-26 14l-19 25l-6 12l-4 2l2 51l60 27l39 -12l14 -8l14 4l8 18l-2 16h-2l-14 11l-74 20l-18 17h-17l-12 22l-2 21l6 45l-4 10l-6 6h-25l-49 31h-16l-64 80v12l-24 25l-8 40l8 21v8l-17 6z" />
<glyph unicode="&#x4ab;" horiz-adv-x="749" d="M102 279l9 122v31l8 21l-8 32l4 433l8 26l12 49l82 78l94 51l51 2l21 11l80 -5l90 -53l45 -61l37 -80l8 -105l-33 -28l-71 6l-41 65l-13 41l-69 66l-25 8h-49l-37 -28l-29 -50l3 -274v-23l-3 -96l9 -16l-9 -74l9 -12v-62l-9 -20l13 -101l8 -28l35 -64l22 -20h103l41 33 l26 47l4 73l29 29l45 10l41 -30l14 -21v-80l-22 -76l-78 -83l-25 -17l-71 -12l8 -14l-6 -7l49 -22h6l19 -25l12 -8l16 -20l4 -17l6 -8l5 -41l-5 -10l-18 -78l-41 -31l-57 -12h-25l-61 12l-25 15l-31 26l5 41l30 23l66 -8l14 -9l21 15l10 18l-10 23h-2l-15 10l-74 20l-18 17 h-16l-13 22l7 60l-5 10v4l-16 2l-63 37h-15l-84 102l-24 60l-4 65z" />
<glyph unicode="&#x4ac;" horiz-adv-x="763" d="M100 1059l21 37l59 39l150 -5l12 9l53 -9l15 5l116 -9h72l29 -16l35 -43l-3 -57l-8 -23l-35 -16l-141 4l-12 -12l-8 -54l8 -63v-225l8 -215v-58l8 -31v-172l2 -12l90 -2h13l18 -25l6 -49l-16 -55l-55 -39l-19 2l-69 17l-19 -9l-14 13l-68 -13l-39 13l-22 39v55v67l4 29 l8 37l-8 51l8 21l-4 28l12 101l-8 14l8 16l-8 101l8 61v240l2 100l-2 17l-26 18l-74 -2h-57l-41 29z" />
<glyph unicode="&#x4ad;" horiz-adv-x="800" d="M102 1055l13 24l28 4l9 21l41 33l157 -9l146 -16l116 12l25 -4l41 -28l20 -37v-37l-49 -33l-131 12l-22 -18l-9 -10v-201l7 -248v-387l6 -10l67 4l17 -8h2l18 -66l-4 -47l-39 -47l-31 -16l-26 8l-107 -4l-6 8l-55 2l-35 23l-8 47l10 65l8 53l6 29l-14 25l14 28l2 54l5 55 l8 6l-15 29l7 84v45l-7 6l2 63l-16 37l16 33v68l9 51l-4 166l-5 55l-8 14h-45l-37 -24h-69l-33 24l-12 17v32z" />
<glyph unicode="&#x4ae;" horiz-adv-x="772" d="M102 1022v70l45 38l50 13l59 -31l35 -55l33 -107l16 -39l8 -57l14 -37l29 -106l6 -6l11 6l16 26l80 334l24 47l35 21h58l32 -25l25 -59l-29 -125l-41 -113l-8 -41l-20 -22l-11 -58l-12 -14l-14 -57l-43 -123l-8 -158v-68l-15 -36l15 -90l-3 -95l-32 -47l-8 -20l-37 -8 l-15 -13l-37 17h-36l-41 65v123l14 117l6 200l-63 213l-4 9l-13 10l-12 -8h-12l20 32l-31 105l-28 27l12 20l-25 80l-12 14h-4l-8 -35h-4l-2 19l6 29z" />
<glyph unicode="&#x4af;" horiz-adv-x="774" d="M102 1028l4 72l27 24l29 9l4 -5l24 13h11l45 -29l41 -43l35 -117l10 -12l14 -70l23 -77l8 -37l16 -51h13l20 45l2 43l12 20l60 252l26 51l27 19h68l4 -7l26 -12l6 -26l15 -37l-21 -97l-20 -51l-6 -35l-13 -8l-4 -41l-8 -12l-4 -27l-18 -20l-9 -57l-16 -23l-4 -37l-23 -55 l-14 -29l-23 -147v-60l3 -39v-20l-11 -33l4 -59l13 -45h-6l-7 -6l13 -54l-9 -14v-12l3 -4l-19 -13l-16 -41v-10l-25 -8h-20l-15 -16l-37 16h-38l-33 55l-8 92l8 103l16 86l-8 14l8 47l-4 117l-43 139l-51 148l-21 59l-28 16l-21 37l41 -28l4 4l-41 108l-12 8z" />
<glyph unicode="&#x4b0;" horiz-adv-x="772" d="M102 543v71l23 31l45 8l82 -2l-4 8l-12 11l-13 -8h-12l20 32l-43 156l-28 27l12 20l-25 80l-12 14h-4l-8 -35h-4l-2 19l6 29l-21 18v70l45 38l50 13l59 -31l35 -55l33 -107l16 -39l8 -57l14 -37l29 -106l6 -6l11 6l16 26l80 334l24 47l35 21h58l32 -25l25 -59l-29 -125 l-41 -113l-8 -41l-20 -22l-11 -58l-18 -37l65 -6l31 -4l19 -24l6 -50l-17 -55l-55 -39l-104 6l-4 -143v-68l-15 -36l15 -90l-3 -95l-32 -47l-8 -20l-37 -8l-15 -13l-37 17h-36l-41 65v123l14 117l6 200l-57 3l-15 12l-67 -12l-39 12z" />
<glyph unicode="&#x4b1;" horiz-adv-x="774" d="M96 561l8 51l43 37h111l-51 148l-21 59l-8 25l4 4l-41 108l-12 8l-27 27l4 72l27 24l29 9l4 -5l24 13h11l45 -29l41 -43l35 -117l10 -12l14 -70l23 -77l8 -37l16 -51h13l20 45l2 43l12 20l60 252l26 51l27 19h68l4 -7l26 -12l6 -26l15 -37l-21 -97l-20 -51l-6 -35l-13 -8 l-4 -41l-8 -12l-4 -27l-18 -20l-9 -57l-16 -23v-20l78 2l16 -9h2l19 -65l-4 -47l-39 -47l-31 -17l-94 2l-11 -67v-60l3 -39v-20l-11 -33l4 -59l13 -45h-6l-7 -6l13 -54l-9 -14v-12l3 -4l-19 -13l-16 -41v-10l-25 -8h-20l-15 -16l-37 16h-38l-33 55l-8 92l8 103l16 86l-8 14 l-2 143l-39 7l-43 -13l-6 9l-55 2l-48 20z" />
<glyph unicode="&#x4b2;" d="M94 1044l10 39l35 25l29 8l59 -8l43 -37l15 -37l14 -8v-29l25 -67l24 -76l23 -76l8 -16l12 -8l21 24l18 72l14 37l-24 8l24 12l13 27l-6 24l14 13v18l14 27l6 43l11 31v26l69 23l43 -15h29l22 -57l-10 -41l2 -8v-10l-22 -29l-8 -35l-105 -266l-29 -88l-12 -27l64 -135 l26 -72l39 -108l27 -60l18 -28l129 -4h13l18 -25l6 -49l-16 -55l-56 -39l-18 2l-70 16l-18 -8l-14 12l-68 -12l-39 12l-22 39l-7 12l-12 72l-39 131l-33 92l-12 6h-12l-31 -61l-37 -188l-24 -68l-29 -37l-10 -12l-33 -4l-39 -19l-45 9l-33 51l8 51l33 61l19 82l26 45l19 70 l33 59l20 62l35 72l-4 43l-8 24l-31 60l-21 61l-24 27l-8 32l-19 76l-26 41l-31 109z" />
<glyph unicode="&#x4b3;" horiz-adv-x="825" d="M98 47l15 49l30 60l35 96l37 72l10 36l92 185l-2 59l-30 51l-19 78l-28 39l-19 74l-6 47l-20 29l-3 30l-12 17l-6 37l-33 79l11 29l34 23l66 6l37 -10l39 -48l18 -43l31 -92l6 -41l18 -51l9 -51l8 -21l16 -12l23 19l18 67l14 31l-2 20l13 21l20 76l14 20l21 98l55 27 l45 -12l25 -8l33 -7l14 -53l-18 -61l-21 -29l-6 -31l-49 -106l-21 -62l-43 -73l-18 -66l-29 -61l2 -45l33 -64l31 -92l22 -72l45 -121l13 -20l108 6l17 -8h2l18 -66l-4 -47l-39 -47l-31 -16l-26 8l-68 -6l-25 4l-30 -14l-60 30l-30 41l-2 47l-13 52l-22 94l-35 102l-6 8 l-14 2l-29 -45l-19 -65l-14 -47l-12 -74l-17 -33l-12 -37l-35 -51l-92 -33l-41 11z" />
<glyph unicode="&#x4b4;" d="M37 1001v72l22 31l45 8l218 -4h12l18 -25l6 -49l-16 -55l-55 -39l4 -6l-10 -250l-5 -29l5 -125l12 -284l-12 -23v-51l30 -29l49 -8l15 -8l94 12l20 8l23 25l6 23l-12 28v70l10 22v125l6 74l4 180l-8 13l-8 112v162l2 27l-14 20l6 55l39 39l94 4l18 -4l9 -32l14 -27 l2 -164l-8 -129l8 -25l-14 -124l12 -37l-10 -39l4 -23l2 -106l-10 -35l8 -76l-10 -14l14 -101l6 -2l18 -24l9 -74l-4 -78v-26l-5 -35l9 -14l-9 -54l-22 -26l-49 -15l-35 15l-51 6l-23 22l-16 35l6 23l-6 34l-15 17l-20 -6l-8 -8h-142l-20 -9l-14 4l-49 -2l-76 4l-33 39 l6 177l2 43l-8 106l-2 43l4 160l-8 76v26l-8 12l14 109l-6 68l-4 114h-19l-39 13z" />
<glyph unicode="&#x4b5;" d="M31 1026l8 51l43 37l127 8l108 6l17 -8h2l18 -65l-4 -47l-39 -47l-32 -3l2 -139l-9 -112l-8 -13l4 -180l6 -74v-125l11 -22v-70l-13 -28l7 -23l22 -25l21 -8l94 -12l14 8l49 8l31 29v51l-12 23l12 284l4 125l-4 29l-10 250l-8 39l6 76l10 14h6l43 41l68 14l14 -14l39 -45 l-8 -223l-6 -68l14 -109l-8 -12v-26l-8 -76l4 -160l-2 -43l-9 -106l2 -43v-3l33 -90v-102l-14 -68l4 -57l-23 -23l-51 -20l-63 14l-23 27l6 78l-20 26l-14 -4l-21 9h-172l-12 8l-64 -11l-45 -4l-65 68v141l16 109l-10 14l8 76l-10 35l2 106l4 23l-10 39l12 37l-14 124l8 25 l-8 129l2 57l-27 2l-47 21z" />
<glyph unicode="&#x4b6;" horiz-adv-x="772" d="M106 627l35 -123l47 -64l97 -55l98 -12l106 16l27 23l14 -13l-2 -45l-12 -53v-94l-20 -74v-45l12 -45l12 -39l35 -35l68 13l14 -13l18 8l70 -16l18 -2l56 39l16 55l-6 49l-18 25h-13l-102 2l-14 12l6 90l-4 316l8 131l-4 350l-29 55l-51 29l-15 6l-32 -8l-35 -29v-20 l10 -60l-10 -67l14 -27l-8 -20l14 -49v-238l-65 -70l-58 -22l-63 -4l-41 28l-29 50l-18 80l8 116l-4 221v54l-16 37l-43 22h-62l-26 -22l12 -48l-6 -116l-2 -213v-25l8 -14z" />
<glyph unicode="&#x4b7;" horiz-adv-x="784" d="M111 1085l6 -135l4 -102l12 -49l-4 -4l-4 -2l-8 -142l12 -51l-8 -12l16 -47l29 -47l33 -21l16 -27l33 -12l45 -20l39 -29h10l31 8l26 -16l15 8h67l49 29l5 -15l-9 -6l9 -88l-9 -31l15 -41l2 -149l-8 -51l8 -47l47 -21l55 -2l6 -8l43 12l64 -8l26 -8l31 16l39 47l4 47 l-18 66h-2l-17 8l-108 -6l-19 10l-2 94v66l-14 231l-6 60v65l-6 144l10 26l8 70l-6 53v51l10 78l-16 31l-66 39l-86 -66l-10 -20l10 -70l2 -131l13 -55l10 -129l-8 -6l6 -15l-13 -30l-10 -25l-45 -51l-41 -14h-59l-70 26l-8 17v32l-12 21v170v26l6 50l2 45l8 41l-20 12v12 l10 8h2l8 54l-16 49l-41 32l-54 7l-24 -7z" />
<glyph unicode="&#x4b8;" horiz-adv-x="772" d="M106 627l35 -123l47 -64l105 -59l-4 -96l16 -31l47 -39l47 -4l52 18v2l8 17l8 57l-8 80l30 4l27 23l14 -13l-2 -45l-12 -53v-94l-20 -74v-45l12 -45l12 -39l41 -31l37 9l37 28l29 78l4 143l-4 316l8 131l-4 350l-29 55l-51 29l-15 6l-32 -8l-35 -29v-20l10 -60l-10 -67 l14 -27l-8 -20l14 -49v-238l-65 -70l-2 150l-37 43l-51 8l-47 -8l-21 -47l-2 -55l-8 -7l12 -43l-6 -39l-29 50l-18 80l8 116l-4 221v54l-16 37l-43 22h-62l-26 -22l12 -48l-6 -116l-2 -213v-25l8 -14z" />
<glyph unicode="&#x4b9;" horiz-adv-x="784" d="M111 1085l6 -135l4 -102l12 -49l-4 -4l-4 -2l-8 -142l12 -51l-8 -12l16 -47l29 -47l33 -21l16 -27l33 -12l45 -20l31 -19l-2 -108l38 -56l56 -16l49 6l24 19l5 30l-2 119l38 25l5 -15l-9 -6l9 -88l-9 -31l15 -41v-208l43 -31l65 6l51 25v45l-8 163v66l-14 231l-6 60v65 l-6 144l10 26l8 70l-6 53v51l10 78l-16 31l-66 39l-86 -66l-10 -20l10 -70l2 -131l13 -55l10 -129l-8 -6l6 -15l-13 -30l-10 -25l-28 -35l2 92l-9 45l-30 23h-72l-39 -23l-12 -38l12 -68l-12 -14l8 -19l-35 -2l-8 17v32l-12 21v170v26l6 50l2 45l8 41l-20 12v12l10 8h2l8 54 l-16 49l-41 32l-54 7l-24 -7z" />
<glyph unicode="&#x4ba;" horiz-adv-x="772" d="M106 416l5 -350l28 -56l51 -28l15 -7l33 9l34 28v21l-10 59l10 68l-14 26l8 21l-14 49v238l65 69l58 23l63 4l41 -29l29 -49l18 -80l-8 -117l4 -221v-53l17 -37l43 -22h61l27 22l-13 47l7 117l2 213v25l-9 14l15 47l-35 123l-47 63l-96 56l-99 12l-106 -16l-27 -23 l-14 12l2 45l12 54v94l21 74v45l-13 45l-12 39l-41 30l-37 -8l-37 -29l-28 -77l-4 -144l4 -315z" />
<glyph unicode="&#x4bb;" horiz-adv-x="784" d="M111 1073l8 -164v-65l14 -232l6 -59v-66l6 -143l-10 -27l-8 -69l6 -53v-52l-10 -77l16 -31l66 -39l86 65l10 21l-10 70l-2 131l-13 55l-10 129l8 6l-6 14l13 31l10 25l45 51l41 14h59l70 -26l8 -17v-33l12 -20v-170v-27l-6 -49l-2 -45l-8 -41l20 -12v-12l-10 -9h-2 l-8 -53l16 -49l41 -33l54 -6l24 6l55 45l-6 136l-4 102l-12 49l4 4l4 2l8 142l-12 51l8 12l-16 47l-29 47l-33 21l-16 26l-33 13l-45 20l-39 29h-10l-31 -8l-26 16l-15 -8h-67l-49 -29l-5 14l9 7l-9 88l9 30l-15 41v209l-43 31l-65 -6l-51 -25v-45z" />
<glyph unicode="&#x4bc;" horiz-adv-x="1112" d="M80 707l12 53l41 24l49 9l49 -7l27 -32l10 -41l15 -35l24 -23l33 4l14 19l6 33l5 204l24 64l12 12v21l25 26l51 45l12 -4l29 21l37 12h14l13 6h32l7 15l28 -9l21 9h12v-9l59 -6l68 -35l20 -4l62 -67l37 -68l-6 -12l20 -45l-12 -23l6 -59l20 -29l-4 -153l6 -50l-16 -55 l-55 -39l-266 2l-70 17l-19 -9l9 -77l8 -41l6 -121l6 -12l8 -9v-39l25 -34l47 -27l80 -4l35 12l22 29l21 55v53l16 37l43 23h62l26 -23l17 -35l12 -34l-8 -60l-13 -26l-12 -39l4 -4l-37 -60l-102 -69l-41 -15h-31l-6 -4l-59 -12l-33 12l-10 -8l-27 16h-31l-41 31l-18 6h-12 l-4 10l-45 33l-29 31l-35 98l-10 64l-10 196l-9 27l-51 4l-86 31l-92 53l-41 92zM520 799l17 -33l-7 -117l144 -2l123 8l-13 82l2 58l-45 71l-20 66l-23 22l-84 13l-36 -13l-37 -51l-15 -47l2 -29z" />
<glyph unicode="&#x4bd;" horiz-adv-x="1058" d="M61 707l19 49l53 22l51 -8l31 -37l25 -37l45 -26h30l9 18l-2 213l24 78l14 25v12l76 69l86 31l23 8h24l13 9l125 -13l77 -43l66 -73l29 -52l10 -69l16 -60l-4 -157l19 -27l-13 -23l2 -34l-4 -47l-39 -48l-30 -16l-164 4l-111 4l-47 6l-12 -73v-58l12 -98l23 -68l47 -32 l84 -9l43 15l34 63l5 66l10 26l45 33h65l27 -18l25 -60v-71l-21 -27l-8 -55l-35 -51l-108 -66l-127 -22l-70 10l-39 12l-35 27l-24 4l-56 47l-30 43l-31 102l-12 62l-4 192h-39l-88 17l-64 47l-51 80zM483 793l11 -21l2 -129l178 -2l67 10l9 29l-13 123l-51 96l-16 41 l-35 23l-82 6l-27 -17l-41 -67z" />
<glyph unicode="&#x4be;" horiz-adv-x="1112" d="M80 707l12 53l41 24l49 9l49 -7l27 -32l10 -41l15 -35l24 -23l33 4l14 19l6 33l5 204l24 64l12 12v21l25 26l51 45l12 -4l29 21l37 12h14l13 6h32l7 15l28 -9l21 9h12v-9l59 -6l68 -35l20 -4l62 -67l37 -68l-6 -12l20 -45l-12 -23l6 -59l20 -29l-4 -153l6 -50l-16 -55 l-55 -39l-266 2l-70 17l-19 -9l9 -77l8 -41l6 -121l6 -12l8 -9v-39l25 -34l47 -27l80 -4l35 12l22 29l21 55v53l16 37l43 23h62l26 -23l17 -35l12 -34l-8 -60l-13 -26l-12 -39l4 -4l-37 -60l-49 -30l-16 -25l-17 -12l-88 -92l-32 -48l-9 -16l-6 -35l15 -20l22 2l8 10l2 16 l6 15l-2 28l9 23l20 16l45 6l62 -24l14 -47l-6 -10v-7l-17 -65l-18 -21l-21 -26l-28 -17l-74 -22l-82 10l-20 14l-19 11l-18 28l-29 56l-4 69l21 58l34 45l2 22l-14 8h-31l-41 31l-18 6h-12l-4 10l-45 33l-29 31l-35 98l-10 64l-10 196l-9 27l-51 4l-86 31l-92 53l-41 92z M520 799l17 -33l-7 -117l144 -2l123 8l-13 82l2 58l-45 71l-20 66l-23 22l-84 13l-36 -13l-37 -51l-15 -47l2 -29z" />
<glyph unicode="&#x4bf;" horiz-adv-x="1058" d="M61 707l19 49l53 22l51 -8l31 -37l25 -37l45 -26h30l9 18l-2 213l24 78l14 25v12l76 69l86 31l23 8h24l13 9l125 -13l77 -43l66 -73l29 -52l10 -69l16 -60l-4 -157l19 -27l-13 -23l2 -34l-4 -47l-39 -48l-30 -16l-164 4l-111 4l-47 6l-12 -73v-58l12 -98l23 -68l47 -32 l84 -9l43 15l34 63l5 66l10 26l45 33h65l27 -18l25 -60v-71l-21 -27l-8 -55l-35 -51l-70 -37l-12 -33l-16 -12l-88 -92l-33 -48l-8 -16l-6 -35l14 -20l23 2l8 10l2 16l6 15l-2 28l8 23l21 16l45 6l61 -24l14 -47l-6 -10v-7l-16 -65l-19 -21l-20 -26l-29 -17l-73 -22l-82 10 l-21 14l-18 11l-19 28l-28 56l-5 69l21 58l53 63l2 19l-12 10l-39 12l-35 27l-24 4l-56 47l-30 43l-31 102l-12 62l-4 192h-39l-88 17l-64 47l-51 80zM483 793l11 -21l2 -129l178 -2l67 10l9 29l-13 123l-51 96l-16 41l-35 23l-82 6l-27 -17l-41 -67z" />
<glyph unicode="&#x4c0;" horiz-adv-x="380" d="M102 678l4 350l29 55l51 29l15 6l32 -8l35 -29v-20l-20 -33l10 -27l-10 -34l20 -33l-14 -27l8 -20l-14 -49l20 -95l-10 -24l10 -35l-20 -84l10 -59l-10 -21l14 -43l-14 -20l-2 -62v-41l12 -53v-94l16 -17v-12l-20 -20v-8l25 -17v-45l-13 -45l-12 -12l12 -29l-53 -29 l-37 9l-37 28l-28 78l-5 143l5 316z" />
<glyph unicode="&#x4c1;" horiz-adv-x="909" d="M94 1044l10 39l35 25l29 8l59 -8l43 -37l15 -37l14 -8v-29l25 -67l24 -76l23 -76l8 -16l12 -8l8 274l29 55l51 29l15 6l32 -8l35 -29v-20l-10 -60l-4 -94l-6 -69l16 -84l21 24l18 72l14 37l13 47l-7 24l29 58l6 43l11 31l69 49l43 -15h29l22 -57l-10 -41l2 -8v-10 l-22 -29l-9 -35l-104 -266l-29 -88l-12 -27l64 -135l26 -72l39 -108l27 -60l34 -67l15 -60l-43 -45l-41 -8l-17 -12l-14 4l-16 20l-13 -4l-20 9l-29 36l-12 72l-39 131l-33 92l-12 6l-18 -8l12 -53v-94l-4 -53l12 -111v-41l-53 -29l-37 9l-37 28l-29 78l-4 143v121l-20 10 l-31 -61l-37 -188l-24 -68l-29 -37l-10 -12l-33 -4l-39 -19l-45 9l-33 51l8 51l33 61l19 82l26 45l19 70l33 59l20 62l35 72l-4 43l-8 24l-31 60l-21 61l-24 27l-8 32l-19 76l-26 41l-31 109zM193 1380l8 33l41 31l49 8l49 -39l76 -88l57 -2l68 25l43 49l24 55l10 2l11 8 l43 -10l37 -20l8 -41l-6 -27l-60 -70l-35 -30l-24 -13l-17 -20l-38 -23l-60 -16l-16 2l-33 4l-70 23l-61 53l-84 86z" />
<glyph unicode="&#x4c2;" horiz-adv-x="974" d="M98 57l19 62l20 28l6 31l50 107l20 61l43 74l18 65l29 62l-2 45l-33 63l-30 93l-23 71l-45 121l-29 64l-16 75l16 27l35 24l29 3l31 14l59 -31l31 -41l2 -47l12 -51l22 -94l35 -103l21 45l-8 31l14 41v209l43 31l65 -7l52 -24v-45l-9 -164v-66l3 -51l6 -8l14 -2l29 45 l18 66l14 47l13 73l16 33l12 37l35 51l92 33l41 -10l37 -62l-14 -49l-31 -59l-35 -96l-37 -72l-10 -37l-92 -184l2 -60l31 -51l18 -78l29 -39l18 -73l7 -47l20 -29l2 -31l12 -16l6 -37l33 -80l-10 -29l-35 -22l-65 -6l-37 10l-39 47l-19 43l-30 92l-6 41l-19 51l-8 52l-8 20 l-17 12l-22 -24l10 -27l8 -69l-6 -54v-51l10 -78l-16 -30l-66 -39l-86 65l-10 21l10 69l3 131l12 56l-8 20l-19 10l-22 -18l-19 -68l-14 -30l2 -21l-12 -20l-21 -76l-14 -21l-21 -98l-55 -27l-45 13l-25 8l-32 6zM244 1380l8 33l41 31l49 8l49 -39l76 -88l57 -2l68 25l43 49 l24 55l11 2l10 8l43 -10l37 -20l8 -41l-6 -27l-60 -70l-34 -30l-25 -13l-16 -20l-39 -23l-60 -16l-16 2l-33 4l-69 23l-62 53l-84 86z" />
<glyph unicode="&#x4c3;" d="M88 967l6 -17l6 -96l-6 -178l8 -21v-45l4 -110l11 -158l-2 -106l12 -54l-10 -73l-2 -58l37 -57l32 -4l29 -17l25 13l45 28l8 25l-8 61l-23 181v61l-8 35l27 74l45 49l4 -2l22 -47l43 -175l17 -24l4 -29l20 -24l2 -37l13 -19l4 -30l18 -41l31 -107l41 -47l4 -33l-23 -24 l-35 -15l-40 -10l-33 -26l-6 -50l8 -49l24 -41l54 -12l57 6l92 41l53 92l31 86l-10 90l-27 90l-41 62l-14 37l-8 53l-51 70l-5 37l-26 47l-33 82l-35 69l-10 47l-39 84l-8 39l24 62l31 41l2 20l82 123l51 88l13 53l-52 74h-18l-10 -12l-62 -4l-55 -45l-33 -66l-14 -57 l-29 -62l-14 -45l-55 -94l-29 -33l-6 10v35l-12 45l8 25l2 53l8 57l6 103l-43 53h-12l-53 -4l-52 -45v-37z" />
<glyph unicode="&#x4c4;" horiz-adv-x="761" d="M104 37l29 -31l70 -22l55 45l10 112l-10 39l-12 142v84l12 20l41 57l20 4l23 -20l6 -43l19 -41l47 -156l37 -129l55 -86l18 -80l2 -49l-26 -45l-37 -24l-37 -31l-8 -51l22 -54l49 -18l84 18l80 52l47 63l17 88l-2 80l-43 131l-19 41l-14 47l-21 27l-53 98l-47 162 l-78 168l-4 74l27 51l37 65v17l49 65l10 21l37 49l22 53l13 66l-51 49l-27 6l-31 -6l-35 -17l-59 -51l-31 -88l-39 -78l-96 -168l-16 -10l-4 6v117l14 78l2 133l-20 49l-54 12l-47 -8l-26 -35v-26l6 -86l2 -516l-8 -152z" />
<glyph unicode="&#x4c5;" horiz-adv-x="798" d="M39 86l33 33l53 12l33 16l28 39l15 33l8 84l-4 103l-4 538l-4 12l-7 74l11 43l28 35l39 22l6 7h2l113 2h236l39 -13l32 -41l6 -47l13 -37l-10 -38l-3 -80l-10 -99l-4 -125v-57l8 -22l-4 -152l4 -231l9 -105l8 -6h8l43 -41l-8 -76l-2 -28l-27 -54l6 -12l-8 -22l-18 -68 l-11 -35l-18 -10l-37 8l-27 -2l-39 23l-8 20l6 37l37 76v22l6 25l7 18l6 27l-6 12l-19 6l-47 13l-29 32l-16 56l4 176v82l4 141l-8 20l12 70l-12 66l8 186l8 92l-24 25l-39 8l-37 -8l-51 -4l-19 -11l-6 -12l-4 -158v-104l4 -248l4 -139l-6 -25l-6 -55l-10 -57l-21 -45 l-39 -62l-69 -51l-82 -12l-27 -17l-33 9l-20 24z" />
<glyph unicode="&#x4c6;" horiz-adv-x="851" d="M63 10v70l27 37l33 16l47 12l51 33l39 58l12 151l-10 33v115l-6 122v93l-4 176l4 49l8 12l4 14l4 74l37 35l39 16h8l109 13h235l39 -13l33 -41l6 -47l13 -37l-11 -38l-2 -80l-10 -99l-4 -125v-57l8 -22l-4 -152l4 -231l8 -105l2 -10l39 -25l8 -20l-6 -37l-39 -76v-22 l-6 -25l-4 -18l-16 -56l-21 -49l-18 -10l-43 -4l-37 18l-14 70l12 16l12 54l15 55l-9 20v45l-22 7l-29 32l-16 56l4 176v82l4 141l-8 20l12 70l-12 66l8 186l8 92l-24 25l-39 8l-37 -8l-51 -4l-9 -9l-6 -4l6 -57l-8 -23v-120l-4 -92l-10 -152l10 -82l-12 -127l8 -53 l-31 -103l-24 -55l-68 -76l-51 -16l-16 -12l-80 -9l-25 -4z" />
<glyph unicode="&#x4c7;" d="M111 199l2 -164l14 -27l8 -33l19 -4l94 4l39 39l6 56l-14 20l2 27v162l-9 112l7 23l22 24l21 8l94 13l14 -8l49 -9l31 -28l-10 -250l-8 -39l6 -76l6 -33l-4 -59l-11 -76l-4 -61l-20 -27h-35l-35 14l-35 21l-43 4l-38 -29l-29 -41l-12 -47l30 -47l43 -35l95 -36l104 28 l82 39l57 70l19 108l14 72l2 111l-6 14l-8 223l-6 68l14 108l-8 13v26l-8 76l4 160l-2 43l-9 106l2 43l7 176l-33 39l-76 4l-18 -12l-27 -35v-51l-12 -22l4 -201l4 -125l-4 -29l-31 -31h-172l-12 9l-8 12l4 180l6 74l-8 43l10 22v70l-12 29l-56 63l-45 4l-65 -67v-142 l16 -108l-10 -14l8 -76l-10 -35l2 -107l4 -22l-10 -39l12 -37l-14 -125l8 -24z" />
<glyph unicode="&#x4c8;" horiz-adv-x="780" d="M119 201l8 -176l14 -25l90 -20l35 28l25 33l-6 111l-13 147l4 182l19 15l199 8l20 -15l8 -47l-14 -356l2 -74l-18 -108l-15 -72l-35 -37l-51 -12l-43 8l-47 4l-43 -31l-20 -53l20 -47l74 -47l92 -20l78 12l73 51l56 57l39 148l4 61l2 129l-14 19l6 71l-6 295l12 267 l-4 65l6 107l-10 92l10 47l-6 20l-8 62l-33 45l-29 4l-53 -16l-33 -21l-8 -25l16 -391l-14 -20l-49 -21h-154l-20 15l-17 35l19 339l-27 66l-24 12l-68 8l-49 -24l12 -199l10 -313z" />
<glyph unicode="&#x4c9;" d="M111 199l8 129l-8 24l14 125l-12 37l10 39l-4 22l-2 107l10 35l-8 76l10 14l-16 108v142l65 67l45 -4l56 -63l12 -29v-70l-10 -22l8 -43l-6 -74l-4 -180l8 -12l12 -9h172l31 31l4 29l-4 125l-4 201l12 22v51l27 35l18 12l76 -4l33 -39l-7 -176l-2 -43l9 -106l2 -43 l-4 -160l8 -76v-26l8 -13l-14 -108l6 -68l8 -172l20 -2l43 -43l-10 -74l-4 -28l-29 -54l7 -12l-9 -22l-20 -68l-12 -33l-19 -10l-37 10l-26 -4l-39 25l-6 22l8 37l39 74v22l8 23l6 18l-4 15l-37 8l-43 41h-6l-10 14l-6 76l8 39l10 250l-31 28l-49 9l-14 8l-94 -13l-21 -8 l-22 -24l-7 -23l9 -112v-162l-2 -27l14 -20l-6 -56l-39 -39l-94 -4l-19 4l-8 33l-14 27z" />
<glyph unicode="&#x4ca;" horiz-adv-x="780" d="M119 201l22 393l-10 313l-12 199l49 24l68 -8l24 -12l27 -66l-19 -339l17 -35l20 -15h154l49 21l14 20l-16 391l8 25l33 21l53 16l29 -4l33 -45l8 -62l6 -20l-10 -47l10 -92l-6 -107l4 -65l-12 -267l6 -295l-6 -61l18 -6l25 2l38 -25l7 -20l-7 -37l-41 -76v-20l-6 -25 l-6 -18l-18 -56l-23 -47l-16 -12l-45 -2l-37 20l-12 70l14 16l12 54l19 53l-9 22l-18 3l-39 49l-10 57l14 356l-8 47l-20 15l-199 -8l-19 -15l-4 -182l13 -147l6 -111l-25 -33l-35 -28l-90 20l-14 25z" />
<glyph unicode="&#x4cb;" horiz-adv-x="772" d="M106 627l15 47l-8 14v25l2 213l6 116l-12 48l26 22h62l43 -22l16 -37v-54l4 -221l-8 -116l18 -80l29 -50l41 -28l63 4l58 22l65 70v238l-14 49l8 20l-14 27l10 67l-10 60v20l35 29l32 8l15 -6l51 -29l29 -55l4 -350l-8 -131l4 -316l-4 -143l-2 -29l-17 -55l-55 -39l-19 2 l-69 17l-19 -9l-14 13l-68 -13l-39 13l-22 39v71l22 31l46 8l88 -4l20 74v94l12 53l2 45l-14 13l-27 -23l-106 -16l-98 12l-97 55l-47 64z" />
<glyph unicode="&#x4cc;" horiz-adv-x="784" d="M111 1085l55 45l24 7l54 -7l41 -32l16 -49l-8 -54h-2l-10 -8v-12l20 -12l-8 -41l-2 -45l-6 -50v-26v-170l12 -21v-32l8 -17l70 -26h59l41 14l45 51l10 25l13 30l-6 15l8 6l-10 129l-13 55l-2 131l-10 70l10 20l86 66l66 -39l16 -31l-10 -78v-51l6 -53l-8 -70l-10 -26 l6 -144v-65l6 -60l14 -231v-66l8 -163l-2 -37l-39 -47l-30 -17l-27 8l-63 9l-43 -13l-7 9l-55 2l-47 20l-8 47l8 51l43 37l113 2l-2 92l-15 41l9 31l-9 88l9 6l-5 15l-49 -29h-67l-15 -8l-26 16l-31 -8h-10l-39 29l-45 20l-33 12l-16 27l-33 21l-29 47l-16 47l8 12l-12 51 l8 142l4 2l4 4l-12 49l-4 102z" />
<glyph unicode="&#x4cd;" horiz-adv-x="944" d="M94 1004l10 38v35l29 39l47 17h49l13 -21l-4 -4l2 -8l47 -23l26 -53l11 -43l26 -121l27 -149l14 -43l23 -113l12 -55l25 -84l12 -10l18 6l13 16l6 57l24 109l8 27l11 69l28 94l2 64l13 20l2 43l47 148l33 49l39 22h38l41 -22l41 -66l9 -36l-11 -56l13 -53l-4 -145l-3 -78 l-2 -203l-8 -96l6 -86l-4 -131l-2 -74l19 -4l41 -45l-15 -74l-4 -29l-31 -51l7 -14l-11 -23l-22 -65l-12 -33l-19 -8l-37 10l-26 -2l-39 27l-4 20l8 37l41 74l2 20l8 25l6 18l-12 4h-12l-45 49l-2 72l16 49v60l12 16l-8 21l-2 73l6 27l-4 113l-8 26l-8 8l-13 -8l-18 -43v-49 l-23 -31l-20 -135l-23 -129l-10 -47l-4 -37l-47 -26l-47 -3l-39 17l-29 33l-8 36l-20 170l-31 117l-15 35l-20 96l-16 19h-19l-18 -29l-4 -68l10 -65l-2 -49v-25l18 -119v-24l15 -49v-27l-31 -55l-35 -19l-74 6l-32 35l8 13l-17 34l11 39l-7 264v175l-6 200l2 131l9 23 l-15 55l21 39zM172 872l10 -12h17l30 8l33 29l-12 6l-57 -8l-13 -10z" />
<glyph unicode="&#x4ce;" horiz-adv-x="927" d="M98 969l8 41v53l21 41l43 31l37 8l84 -53l12 -21l2 -72l27 -86l37 -206l16 -19l8 -45l45 -154l13 -36l6 -9l6 -8l16 8l21 37l10 84l12 90l8 25l9 74l12 30l8 82l16 27l5 33l8 12v33l12 67l16 62l27 32l47 25l64 -8l53 -64l8 -110l-8 -45l8 -23v-61l-4 -29v-405l8 -203 l-4 -76l-4 -53l12 -12l27 4l37 -27l6 -20l-8 -37l-43 -74v-23l-8 -22l-9 -19l-18 -55l-25 -47l-18 -10h-43l-37 20l-8 72l14 14l15 54l18 51l-6 24l14 39l-8 8l-39 2l-18 37l-13 13l-4 49v26l8 41l-4 86l13 21l-2 31l12 55l-6 14l16 29l-16 16l8 54l-2 32l-19 15l-28 -39 l-4 -82l-17 -25l-4 -80l-12 -49l-8 -53l-19 -66l-6 -51l-8 -12v-45l-39 -31l-49 -2l-45 33l-17 33v34l-16 76l-47 205l-25 45v25l-16 45l-25 24l-8 -4l-8 -10l-4 -55l8 -142l16 -53l5 -186l-9 -54l-36 -20h-70l-55 61l-7 64l13 82l-11 16l13 37l-8 139v35l8 21l-13 55 l13 115l-2 104l-6 121v35l-7 8l13 31z" />
<glyph unicode="&#x4cf;" horiz-adv-x="403" d="M111 25v45l8 163v66l14 231l6 60v65l6 144l-10 26l-8 70l6 53v51l-10 78l16 31l66 39l86 -66l10 -20l-10 -70l-2 -131l-13 -55v-500l9 -31l-15 -41v-208l-43 -31l-65 6z" />
<glyph unicode="&#x4d0;" horiz-adv-x="866" d="M102 59l4 19l3 37l36 71l7 37l18 56l23 114l18 70l12 29l6 69l15 41l6 57l12 19l8 37l58 307l26 68l29 30l16 2l115 -8l37 -29l27 -59l36 -219l35 -156l4 -53l29 -100v-39l8 -25l12 -84l11 -26l6 -41l18 -43v-33l17 -68l8 -71l-29 -50l-39 -24l-51 6l-33 18l-32 37l-7 49 l-32 103l-17 12l-71 8h-54l-43 -12l-20 -27l-6 -53l-9 -80l-36 -55l-39 -29l-72 4l-33 9l-20 30zM172 1356l8 33l41 30l49 8l49 -38l76 -89l58 -2l67 25l43 49l25 55l10 3l10 8l43 -11l37 -20l8 -41l-6 -27l-59 -69l-35 -31l-25 -12l-16 -21l-39 -22l-59 -17l-17 2l-32 5 l-70 22l-62 53l-83 86zM379 383l18 -16h13l92 4l16 16v31l-10 65l-12 31l-2 96l-11 25l-2 43l-14 20h-8l-21 -26l-4 -27l-10 -27l-14 -116l-13 -19z" />
<glyph unicode="&#x4d1;" horiz-adv-x="821" d="M102 37l15 113l35 102l32 133l11 82l61 297l16 125l17 153l24 48l54 26l28 12l56 -12l61 -65l16 -58l29 -145l16 -37l21 -109v-28l16 -25l13 -65l10 -29l6 -76l14 -20l6 -45l27 -70v-68l25 -126l12 -15l-8 -67l-4 -39l-17 -25l-20 -12l-70 -8l-14 8l-45 74l-21 153 l-12 12l-166 5l-12 -9l-21 -127l-4 -41l-8 -20l-53 -47l-33 -12l-72 4l-20 12zM143 1356l9 33l41 30l49 8l49 -38l76 -89l57 -2l68 25l43 49l24 55l10 3l11 8l43 -11l36 -20l9 -41l-6 -27l-60 -69l-35 -31l-24 -12l-17 -21l-39 -22l-59 -17l-16 2l-33 5l-70 22l-61 53 l-84 86zM367 418l8 -21l88 -4l20 21l-45 243l-10 21l-12 4l-8 -8z" />
<glyph unicode="&#x4d2;" horiz-adv-x="866" d="M102 59l4 19l3 37l36 71l7 37l18 56l23 114l18 70l12 29l6 69l15 41l6 57l12 19l8 37l58 307l26 68l29 30l16 2l115 -8l37 -29l27 -59l36 -219l35 -156l4 -53l29 -100v-39l8 -25l12 -84l11 -26l6 -41l18 -43v-33l17 -68l8 -71l-29 -50l-39 -24l-51 6l-33 18l-32 37l-7 49 l-32 103l-17 12l-71 8h-54l-43 -12l-20 -27l-6 -53l-9 -80l-36 -55l-39 -29l-72 4l-33 9l-20 30zM186 1348l47 63l19 12h72l45 -12l26 -35v-37l-18 -22l18 -43l-41 -35h-16l-21 -27l-88 17l-8 31l-28 32zM379 383l18 -16h13l92 4l16 16v31l-10 65l-12 31l-2 96l-11 25l-2 43 l-14 20h-8l-21 -26l-4 -27l-10 -27l-14 -116l-13 -19zM459 1305v59l26 41l17 16h88l41 -8l16 -8l27 -49l8 -23l-4 -78l-16 -26h-41l-39 -27l-50 8l-34 19l-25 31z" />
<glyph unicode="&#x4d3;" horiz-adv-x="821" d="M102 37l15 113l35 102l32 133l11 82l61 297l16 125l17 153l24 48l54 26l28 12l56 -12l61 -65l16 -58l29 -145l16 -37l21 -109v-28l16 -25l13 -65l10 -29l6 -76l14 -20l6 -45l27 -70v-68l25 -126l12 -15l-8 -67l-4 -39l-17 -25l-20 -12l-70 -8l-14 8l-45 74l-21 153 l-12 12l-166 5l-12 -9l-21 -127l-4 -41l-8 -20l-53 -47l-33 -12l-72 4l-20 12zM186 1350l21 39l31 16l75 -8l60 -37l8 -8l10 -2l37 39l29 12l35 12l34 -2l52 -35l16 -4l22 -41v-31l-30 -73l-60 -23l-90 15l-24 20l-17 41l-4 2l-29 -27l-10 -24l-33 -14h-45l-14 8l-39 2 l-24 47zM367 418l8 -21l88 -4l20 21l-45 243l-10 21l-12 4l-8 -8z" />
<glyph unicode="&#x4d4;" horiz-adv-x="1159" d="M57 4l6 59l21 64l35 63l6 25l20 35l7 20h2l28 49l11 43l14 19l24 65l27 48l21 55l94 199l8 32l20 43l2 8l23 64l10 8l10 43l33 58l4 18l35 63l47 25h27l10 8l51 -6h37l39 6l182 -4l11 -8h92l63 -55l-12 -33l8 -19l-16 -28l-47 -17l-68 -8l-12 8l-84 4l-19 5l-59 8l-51 -4 l-12 -15l2 -6l-7 -47l5 -61l8 -17l-6 -12l6 -88v-8l4 -4l-6 -23l-2 -18l6 -35l-2 -10l16 -13l246 8l12 -8l39 4l31 -32l20 -47l-67 -64l-68 -12l-111 2l-98 10l-16 -10l-4 -17l2 -18l-10 -45v-8l10 -60l-2 -51v-53l-2 -49l2 -2l14 -8l96 14l174 10l27 -4l33 -39l12 -55 l-4 -25l-21 -8l-6 -12v-6l-32 -15l-119 -6l-27 -8h-16l-4 -4l-25 12l-76 -12l-49 8l-41 -4l-12 -12h-12l-13 12l-16 -4l-55 26h-9l-6 29v152l-6 12l-51 12l-70 -2l-18 -10l-37 10l-31 -31l-34 -106l-54 -66l-61 -34h-76zM393 383l105 -2l28 8l13 21l-7 106l7 29l12 155 l-10 58h-15l-20 -45l-23 -113l-26 -47l-19 -64l-32 -45z" />
<glyph unicode="&#x4d5;" horiz-adv-x="1157" d="M63 59l7 19l10 37l47 71l14 37l29 56l45 114l29 70l18 29l19 69l22 41l16 57l15 19l16 37l105 301l39 65l32 31l19 2h121l51 2l8 -8l20 18l52 -10l28 -8l33 18l27 2l2 5l31 -7h57l63 -14l21 -8l28 -49l-20 -54v-18l-47 -25l-133 -4l-41 17h-41l-84 -4l-25 -29l9 -307 l16 -25l57 -8l92 12l17 8l104 9l62 -21l26 -49l-18 -47l-43 -33l-72 -4h-213l-14 -37v-2l-2 -63l14 -43l-10 -15v-30l8 -43l-6 -33l6 -55l16 -15l105 8l108 17h80l45 -53v-37l-22 -45l-41 -19l-102 -8h-185l-84 -2l-6 -4l-49 6l-31 18l-26 37l4 49l-15 103l-14 12l-70 8h-55 l-43 -12l-27 -27l-14 -53l-22 -80l-48 -55l-45 -29l-69 4l-33 9l-16 30zM399 383l15 -16h12l92 4l19 16l6 31l4 65l-8 31l14 96l-4 25l4 43l-10 20h-6l-27 -26l-10 -27l-13 -27l-38 -116l-15 -19z" />
<glyph unicode="&#x4d6;" horiz-adv-x="811" d="M104 162l13 78v194l-4 109l-4 358l-5 133l33 47l47 27l43 8l244 -14h168l33 -25l39 -39l-6 -57l-21 -31l-51 -20l-109 8l-63 12h-133l-31 -2l-16 -18l4 -189l-4 -94v-29l36 -20l107 -4l61 12l121 4l66 -20l20 -51v-50l-45 -43h-287l-57 -4l-22 -24l4 -148v-67l6 -47 l14 -21l12 -8l148 12l57 11h121l21 -11l28 -41l10 -47l-6 -16l-49 -51l-155 -13l-312 4l-35 13l-20 26l-12 21zM143 1356l9 33l41 30l49 8l49 -38l76 -89l57 -2l68 25l43 49l24 55l10 3l11 8l43 -11l36 -20l9 -41l-6 -27l-60 -69l-35 -31l-24 -12l-17 -21l-39 -22l-59 -17 l-16 2l-33 5l-70 22l-61 53l-84 86z" />
<glyph unicode="&#x4d7;" horiz-adv-x="788" d="M98 133l19 21v55l4 348l8 37l-4 240v215l16 26l41 27l123 16l137 8l107 -12l22 8l60 -20l47 -33v-80l-47 -31l-185 9l-124 10h-37l-21 -35l2 -319l19 -13l129 4l194 7l35 -19l27 -33v-39l-17 -32l-51 -29l-88 -8l-20 8l-117 4l-39 4h-49l-31 -45l6 -43l8 -16l-14 -107 l6 -98l35 -27l70 6l65 13h180l27 -19l14 -24l-2 -54l-30 -38l-37 -21l-164 -4h-248l-45 41l-20 22zM143 1356l9 33l41 30l49 8l49 -38l76 -89l57 -2l68 25l43 49l24 55l10 3l11 8l43 -11l36 -20l9 -41l-6 -27l-60 -69l-35 -31l-24 -12l-17 -21l-39 -22l-59 -17l-16 2l-33 5 l-70 22l-61 53l-84 86z" />
<glyph unicode="&#x4d8;" horiz-adv-x="819" d="M98 844l8 59l13 27l12 39l-4 4l37 59l102 70l41 14h31l6 4l59 13l33 -13l10 8l27 -16h31l41 -31l18 -6h12l5 -10l45 -33l28 -31l35 -98l10 -63l11 -197l4 -223l6 -12l-6 -33l-4 -205l-25 -64l-12 -12v-20l-25 -27l-51 -45l-12 4l-29 -20l-37 -13h-14l-12 -6h-33l-6 -14 l-29 8l-21 -8h-12v8l-59 6l-68 35l-20 4l-62 68l-37 67l7 13l-21 45l12 22l-6 60l-20 28l4 154l-6 49l16 55l55 39l267 -2l69 -16l19 8l-9 78l-8 41l-6 121l-6 12l-8 8v39l-25 35l-47 26l-80 5l-35 -13l-22 -28l-21 -56v-53l-16 -37l-43 -22h-61l-27 22l-16 35zM276 430 l13 -82l-2 -57l45 -72l20 -65l23 -23l84 -12l37 12l36 51l15 47l-2 29l8 29l-16 32l6 117l-144 2z" />
<glyph unicode="&#x4d9;" horiz-adv-x="802" d="M104 838v71l21 27l8 55l35 51l108 66l127 22l70 -10l39 -12l35 -27l24 -4l56 -47l30 -43l31 -102l12 -62l5 -340v-274l-25 -78l-14 -25v-12l-76 -69l-86 -31l-23 -8h-24l-13 -9l-125 13l-77 43l-66 73l-29 52l-10 69l-16 60l4 157l-19 27l13 23l-2 34l4 47l39 48l30 16 l164 -4l111 -4l47 -6l12 73v58l-12 98l-23 68l-47 32l-84 9l-43 -15l-34 -63l-5 -66l-10 -26l-45 -33h-65l-27 18zM276 430l13 -123l51 -96l16 -41l35 -23l82 -6l27 17l41 67l2 92l-11 21l-2 129l-178 2l-67 -10z" />
<glyph unicode="&#x4da;" horiz-adv-x="819" d="M98 844l8 59l13 27l12 39l-4 4l37 59l102 70l41 14h31l6 4l59 13l33 -13l10 8l27 -16h31l41 -31l18 -6h12l5 -10l45 -33l28 -31l35 -98l10 -63l11 -197l4 -223l6 -12l-6 -33l-4 -205l-25 -64l-12 -12v-20l-25 -27l-51 -45l-12 4l-29 -20l-37 -13h-14l-12 -6h-33l-6 -14 l-29 8l-21 -8h-12v8l-59 6l-68 35l-20 4l-62 68l-37 67l7 13l-21 45l12 22l-6 60l-20 28l4 154l-6 49l16 55l55 39l267 -2l69 -16l19 8l-9 78l-8 41l-6 121l-6 12l-8 8v39l-25 35l-47 26l-80 5l-35 -13l-22 -28l-21 -56v-53l-16 -37l-43 -22h-61l-27 22l-16 35zM141 1348 l47 63l19 12h72l45 -12l26 -35v-37l-18 -22l18 -43l-41 -35h-16l-21 -27l-88 17l-8 31l-29 32zM276 430l13 -82l-2 -57l45 -72l20 -65l23 -23l84 -12l37 12l36 51l15 47l-2 29l8 29l-16 32l6 117l-144 2zM414 1305v59l26 41l17 16h88l41 -8l16 -8l27 -49l8 -23l-4 -78 l-17 -26h-41l-38 -27l-50 8l-34 19l-25 31z" />
<glyph unicode="&#x4db;" horiz-adv-x="802" d="M104 838v71l21 27l8 55l35 51l108 66l127 22l70 -10l39 -12l35 -27l24 -4l56 -47l30 -43l31 -102l12 -62l5 -340v-274l-25 -78l-14 -25v-12l-76 -69l-86 -31l-23 -8h-24l-13 -9l-125 13l-77 43l-66 73l-29 52l-10 69l-16 60l4 157l-19 27l13 23l-2 34l4 47l39 48l30 16 l164 -4l111 -4l47 -6l12 73v58l-12 98l-23 68l-47 32l-84 9l-43 -15l-34 -63l-5 -66l-10 -26l-45 -33h-65l-27 18zM141 1348l47 63l19 12h72l45 -12l26 -35v-37l-18 -22l18 -43l-41 -35h-16l-21 -27l-88 17l-8 31l-29 32zM276 430l13 -123l51 -96l16 -41l35 -23l82 -6l27 17 l41 67l2 92l-11 21l-2 129l-178 2l-67 -10zM414 1305v59l26 41l17 16h88l41 -8l16 -8l27 -49l8 -23l-4 -78l-17 -26h-41l-38 -27l-50 8l-34 19l-25 31z" />
<glyph unicode="&#x4dc;" horiz-adv-x="909" d="M94 1044l10 39l35 25l29 8l59 -8l43 -37l15 -37l14 -8v-29l25 -67l24 -76l23 -76l8 -16l12 -8l8 274l29 55l51 29l15 6l32 -8l35 -29v-20l-10 -60l-4 -94l-6 -69l16 -84l21 24l18 72l14 37l13 47l-7 24l29 58l6 43l11 31l69 49l43 -15h29l22 -57l-10 -41l2 -8v-10 l-22 -29l-9 -35l-104 -266l-29 -88l-12 -27l64 -135l26 -72l39 -108l27 -60l34 -67l15 -60l-43 -45l-41 -8l-17 -12l-14 4l-16 20l-13 -4l-20 9l-29 36l-12 72l-39 131l-33 92l-12 6l-18 -8l12 -53v-94l-4 -53l12 -111v-41l-53 -29l-37 9l-37 28l-29 78l-4 143v121l-20 10 l-31 -61l-37 -188l-24 -68l-29 -37l-10 -12l-33 -4l-39 -19l-45 9l-33 51l8 51l33 61l19 82l26 45l19 70l33 59l20 62l35 72l-4 43l-8 24l-31 60l-21 61l-24 27l-8 32l-19 76l-26 41l-31 109zM236 1348l47 63l18 12h72l45 -12l26 -35v-37l-18 -22l18 -43l-41 -35h-16 l-20 -27l-88 17l-9 31l-28 32zM508 1305v59l27 41l16 16h88l41 -8l16 -8l27 -49l8 -23l-4 -78l-16 -26h-41l-39 -27l-49 8l-35 19l-25 31z" />
<glyph unicode="&#x4dd;" horiz-adv-x="974" d="M98 57l19 62l20 28l6 31l50 107l20 61l43 74l18 65l29 62l-2 45l-33 63l-30 93l-23 71l-45 121l-29 64l-16 75l16 27l35 24l29 3l31 14l59 -31l31 -41l2 -47l12 -51l22 -94l35 -103l21 45l-8 31l14 41v209l43 31l65 -7l52 -24v-45l-9 -164v-66l3 -51l6 -8l14 -2l29 45 l18 66l14 47l13 73l16 33l12 37l35 51l92 33l41 -10l37 -62l-14 -49l-31 -59l-35 -96l-37 -72l-10 -37l-92 -184l2 -60l31 -51l18 -78l29 -39l18 -73l7 -47l20 -29l2 -31l12 -16l6 -37l33 -80l-10 -29l-35 -22l-65 -6l-37 10l-39 47l-19 43l-30 92l-6 41l-19 51l-8 52l-8 20 l-17 12l-22 -24l10 -27l8 -69l-6 -54v-51l10 -78l-16 -30l-66 -39l-86 65l-10 21l10 69l3 131l12 56l-8 20l-19 10l-22 -18l-19 -68l-14 -30l2 -21l-12 -20l-21 -76l-14 -21l-21 -98l-55 -27l-45 13l-25 8l-32 6zM244 1348l47 63l18 12h72l45 -12l27 -35v-37l-19 -22l19 -43 l-41 -35h-17l-20 -27l-88 17l-8 31l-29 32zM516 1305v59l27 41l16 16h88l41 -8l17 -8l26 -49l8 -23l-4 -78l-16 -26h-41l-39 -27l-49 8l-35 19l-25 31z" />
<glyph unicode="&#x4de;" horiz-adv-x="780" d="M102 205l4 33l25 49l14 16l50 -6l8 10h4l8 -28l27 -13l10 -20l4 -41l8 -23l12 -53l33 -29l129 9l8 12l46 20l36 43l17 37v86l-8 45l-17 41l-69 60l-95 12h-18l-4 -6l-45 18l-21 29l13 72l81 32l64 17l74 71l16 60l8 43v51l-20 47l-29 43l-61 37l-45 4h-27l-37 -29 l-29 -55l-24 -123l-16 -16h-64l-33 28l-24 33l8 117l33 82l45 55v6l30 2l11 13l18 8l21 20l81 4l5 5l63 -9l12 -8l41 -4l37 -10l60 -41l61 -90l25 -92l12 -15l-8 -22l-13 -125l-16 -19l-4 -28l-21 -52l-24 -12v-12l-27 -37v-29l88 -100l13 -41l12 -51l-8 -33l8 -41l-16 -92 h-5l-8 -8l4 -19v-10l-47 -74l-90 -57l-53 -8l-4 -4l-45 -2l-31 -8l-41 8h-49l-17 14h-24l-31 27h-14l-80 100l-8 41l-4 27zM141 1348l47 63l19 12h72l45 -12l26 -35v-37l-18 -22l18 -43l-41 -35h-16l-21 -27l-88 17l-8 31l-29 32zM414 1305v59l26 41l17 16h88l41 -8l16 -8 l27 -49l8 -23l-4 -78l-17 -26h-41l-38 -27l-50 8l-34 19l-25 31z" />
<glyph unicode="&#x4df;" horiz-adv-x="780" d="M102 909l13 9l4 26l8 41l80 100h14l31 27h24l17 14h49l41 9l31 -9l45 -2l4 -4l53 -8l90 -57l47 -74v-10l-4 -19l8 -8h5l16 -92l-8 -41l8 -33l-12 -51l-13 -41l-88 -100v-29l27 -37v-12l24 -12l21 -52l4 -28l16 -19l13 -125l8 -22l-12 -14l-25 -93l-61 -90l-60 -41 l-37 -10l-41 -4l-12 -8l-63 -8l-5 4l-81 4l-21 20l-18 8l-11 13l-30 2v6l-45 55l-33 82l-8 117l24 33l33 28h64l16 -16l24 -123l29 -55l37 -29h27l45 4l61 37l29 43l20 47v51l-8 43l-16 60l-74 71l-64 17l-81 33l-13 71l21 29l45 18l4 -6h18l95 13l69 59l17 41l8 45v86 l-17 37l-36 43l-46 20l-8 13l-129 8l-33 -29l-12 -53l-8 -23l-4 -41l-10 -20l-27 -12l-8 -29h-4l-8 10l-50 -6l-14 16l-25 50zM154 1348l47 63l18 12h72l45 -12l26 -35v-37l-18 -22l18 -43l-40 -35h-17l-20 -27l-88 17l-9 31l-28 32zM426 1305v59l27 41l16 16h88l41 -8 l16 -8l27 -49l8 -23l-4 -78l-16 -26h-41l-39 -27l-49 8l-35 19l-25 31z" />
<glyph unicode="&#x4e0;" horiz-adv-x="780" d="M102 205l4 33l25 49l14 16l50 -6l8 10h4l8 -28l27 -13l10 -20l4 -41l8 -23l12 -53l33 -29l129 9l8 12l46 20l36 43l17 37v135l-8 45l-17 41l-69 107l-95 12h-18l-4 -6l-45 18l-21 29l13 72l14 22l98 144l6 24l58 68l22 45l-14 12l-68 -4l-100 -12l-121 -12l-14 8h-10 l-37 57l-4 45l32 45l29 19l188 2l62 2l115 -2l30 6h47l58 -19l4 -8l2 -2l24 -37l3 -51l-74 -98l-119 -180l-12 -78l65 -45l88 -148l13 -41l12 -51l-8 -82l8 -41l-16 -92h-5l-8 -8l4 -19v-10l-47 -74l-90 -57l-53 -8l-4 -4l-45 -2l-31 -8l-41 8h-49l-17 14h-24l-31 27h-14 l-80 100l-8 41l-4 27z" />
<glyph unicode="&#x4e1;" horiz-adv-x="780" d="M96 1071l33 45l29 19l188 2l62 2l114 -2l31 6h47l57 -19l5 -8l2 -2l24 -37l2 -51l-74 -98l-102 -180l-25 -91l76 -57l27 -37v-12l24 -12l21 -52l4 -28l16 -19l13 -168l8 -22l-12 -14l-25 -93l-61 -90l-60 -41l-37 -10l-41 -4l-12 -8l-63 -8l-5 4l-81 4l-21 20l-18 8 l-11 13l-30 2v6l-45 55l-33 82l-8 117l24 33l33 28h64l16 -16l24 -123l29 -55l37 -29h27l45 4l61 37l29 43l20 47v51l-8 43l-16 103l-74 71l-64 17l-81 33l-11 22l13 72l14 22l82 144l6 24l57 68l23 45l-14 12l-68 -4l-100 -12l-121 -12l-15 8h-10l-37 57z" />
<glyph unicode="&#x4e2;" horiz-adv-x="747" d="M92 1257v72l23 31l45 8l217 -4l229 4l31 -4l18 -25l7 -49l-17 -55l-55 -39l-266 2l-70 16l-18 -8l-15 13l-67 -15l-39 15zM98 725l4 53l-4 131l4 99l13 59l24 33l45 12l72 -35l12 -26l8 -150l-10 -96l4 -68l-18 -184l12 -21l15 3l2 4l14 43l51 149l27 62l10 36l68 226 l47 59h12l35 -2l49 -22l24 -64l-4 -231l-2 -136l-6 -147l-2 -129l4 -119l4 -61l21 -64l8 -98l-18 -35l-9 -2l-26 -20l-74 -7l-25 15l-10 31l-16 22l-6 90l4 131l-2 43l12 187l8 84l-14 26l-6 -8l-15 -27l-14 -73l-24 -41l-62 -207l-33 -203l-28 -45l-70 -14l-29 10l-55 43 v16l-16 19l-4 123l-5 47l7 39l-5 51l9 43v57z" />
<glyph unicode="&#x4e3;" horiz-adv-x="737" d="M92 1257v72l23 31l45 8l217 -4l229 4l31 -4l18 -25l7 -49l-17 -55l-55 -39l-266 2l-70 16l-18 -8l-15 13l-67 -15l-39 15zM109 137l4 318l8 198l4 244l12 141l29 56l35 28l30 6l39 -26l19 -29l2 -127l-23 -223l-12 -186l12 -17h8l13 12l67 207l35 113l21 115l43 96l43 51 l41 14l47 -8l24 -18l21 -51l-21 -236l-4 -213l-2 -215l-6 -328l-12 -36l-27 -33h-63l-45 45l-7 20v68l7 102l4 76l12 252l-16 20l-13 -12v-4l-14 -45l-21 -51l-24 -55l-64 -201l-34 -137l-25 -45l-39 -33l-49 6l-29 18l-22 54z" />
<glyph unicode="&#x4e4;" horiz-adv-x="747" d="M98 725l4 53l-4 131l4 99l13 59l24 33l45 12l72 -35l12 -26l8 -150l-10 -96l4 -68l-18 -184l12 -21l15 3l2 4l14 43l51 149l27 62l10 36l68 226l47 59h12l35 -2l49 -22l24 -64l-4 -231l-2 -136l-6 -147l-2 -129l4 -119l4 -61l21 -64l8 -98l-18 -35l-9 -2l-26 -20l-74 -7 l-25 15l-10 31l-16 22l-6 90l4 131l-2 43l12 187l8 84l-14 26l-6 -8l-15 -27l-14 -73l-24 -41l-62 -207l-33 -203l-28 -45l-70 -14l-29 10l-55 43v16l-16 19l-4 123l-5 47l7 39l-5 51l9 43v57zM141 1348l47 63l19 12h72l45 -12l26 -35v-37l-18 -22l18 -43l-41 -35h-16 l-21 -27l-88 17l-8 31l-29 32zM414 1305v59l26 41l17 16h88l41 -8l16 -8l27 -49l8 -23l-4 -78l-17 -26h-41l-38 -27l-50 8l-34 19l-25 31z" />
<glyph unicode="&#x4e5;" horiz-adv-x="737" d="M109 137l4 318l8 198l4 244l12 141l29 56l35 28l30 6l39 -26l19 -29l2 -127l-23 -223l-12 -186l12 -17h8l13 12l67 207l35 113l21 115l43 96l43 51l41 14l47 -8l24 -18l21 -51l-21 -236l-4 -213l-2 -215l-6 -328l-12 -36l-27 -33h-63l-45 45l-7 20v68l7 102l4 76l12 252 l-16 20l-13 -12v-4l-14 -45l-21 -51l-24 -55l-64 -201l-34 -137l-25 -45l-39 -33l-49 6l-29 18l-22 54zM141 1348l47 63l19 12h72l45 -12l26 -35v-37l-18 -22l18 -43l-41 -35h-16l-21 -27l-88 17l-8 31l-29 32zM414 1305v59l26 41l17 16h88l41 -8l16 -8l27 -49l8 -23l-4 -78 l-17 -26h-41l-38 -27l-50 8l-34 19l-25 31z" />
<glyph unicode="&#x4e6;" horiz-adv-x="772" d="M102 227l9 158l6 117l6 133v137l10 205l29 35v24l43 33h12l55 39l74 22l103 -6l100 -45l51 -39l35 -55l8 -51l12 -12l7 -117l2 -492v-24l-9 -15l15 -47l-35 -123l-47 -63l-96 -55l-99 -13l-106 17l-27 22l-20 2l-86 68v18l-25 25l-6 43l-12 18zM141 1348l47 63l19 12h72 l45 -12l26 -35v-37l-18 -22l18 -43l-41 -35h-16l-21 -27l-88 17l-8 31l-29 32zM252 309l8 -123l55 -55l58 -22l63 -5l41 29l29 49l18 80v29l-4 47l8 27l-4 161v76l-8 55l4 222l-20 55l-58 59h-84l-51 -20l-20 -39l-21 -98l-14 -498v-29zM414 1305v59l26 41l17 16h88l41 -8 l16 -8l27 -49l8 -23l-4 -78l-17 -26h-41l-38 -27l-50 8l-34 19l-25 31z" />
<glyph unicode="&#x4e7;" d="M102 893l23 96l39 74l57 45l55 12l58 19l53 4l137 -27l51 -31l54 -69l20 -74l2 -37l13 -88l-7 -43l2 -108l9 -41l-11 -131l11 -72l4 -166l-8 -12l8 -23l-15 -55l-8 -41l-16 -31l-49 -57l-60 -31l-164 -18l-73 10l-84 47l-51 64l-21 57l-16 129l-4 283zM141 1348l47 63 l19 12h72l45 -12l26 -35v-37l-18 -22l18 -43l-41 -35h-16l-21 -27l-88 17l-8 31l-29 32zM256 846l8 -27l4 -178l11 -57l-7 -82l4 -168l9 -129l45 -64l57 -24l49 8l68 55l10 45l-8 19l-8 266l-11 321l-16 123l-12 17l-33 26l-76 9l-14 -7l-60 -57l-8 -31zM414 1305v59l26 41 l17 16h88l41 -8l16 -8l27 -49l8 -23l-4 -78l-17 -26h-41l-38 -27l-50 8l-34 19l-25 31z" />
<glyph unicode="&#x4e8;" horiz-adv-x="772" d="M102 227l9 158l6 117l6 133v137l10 205l29 35v24l43 33h12l55 39l74 22l103 -6l100 -45l51 -39l35 -55l8 -51l12 -12l7 -117l2 -492v-24l-9 -15l15 -47l-35 -123l-47 -63l-96 -55l-99 -13l-106 17l-27 22l-20 2l-86 68v18l-25 25l-6 43l-12 18zM252 309l8 -123l55 -55 l58 -22l63 -5l41 29l29 49l18 80v29l-4 47l8 27l-2 112h-192l-70 17l-8 -5l-4 -151v-29zM262 645l125 -2h125l4 14l4 222l-20 55l-58 59h-84l-51 -20l-20 -39l-21 -98z" />
<glyph unicode="&#x4e9;" d="M102 893l23 96l39 74l57 45l55 12l58 19l53 4l137 -27l51 -31l54 -69l20 -74l2 -37l13 -88l-7 -43l2 -108l9 -41l-11 -131l11 -72l4 -166l-8 -12l8 -23l-15 -55l-8 -41l-16 -31l-49 -57l-60 -31l-164 -18l-73 10l-84 47l-51 64l-21 57l-16 129l-4 283zM256 846l8 -27 l2 -170l166 -2l64 8l-9 176l-16 123l-12 17l-33 26l-76 9l-14 -7l-60 -57l-8 -31zM272 492l4 -158l9 -129l45 -64l57 -24l49 8l68 55l10 45l-8 19l-4 237h-72l-111 4z" />
<glyph unicode="&#x4ea;" horiz-adv-x="772" d="M102 227l9 158l6 117l6 133v137l10 205l29 35v24l43 33h12l55 39l74 22l103 -6l100 -45l51 -39l35 -55l8 -51l12 -12l7 -117l2 -492v-24l-9 -15l15 -47l-35 -123l-47 -63l-96 -55l-99 -13l-106 17l-27 22l-20 2l-86 68v18l-25 25l-6 43l-12 18zM141 1348l47 63l19 12h72 l45 -12l26 -35v-37l-18 -22l18 -43l-41 -35h-16l-21 -27l-88 17l-8 31l-29 32zM252 309l8 -123l55 -55l58 -22l63 -5l41 29l29 49l18 80v29l-4 47l8 27l-2 112h-192l-70 17l-8 -5l-4 -151v-29zM262 645l125 -2h125l4 14l4 222l-20 55l-58 59h-84l-51 -20l-20 -39l-21 -98z M414 1305v59l26 41l17 16h88l41 -8l16 -8l27 -49l8 -23l-4 -78l-17 -26h-41l-38 -27l-50 8l-34 19l-25 31z" />
<glyph unicode="&#x4eb;" d="M102 893l23 96l39 74l57 45l55 12l58 19l53 4l137 -27l51 -31l54 -69l20 -74l2 -37l13 -88l-7 -43l2 -108l9 -41l-11 -131l11 -72l4 -166l-8 -12l8 -23l-15 -55l-8 -41l-16 -31l-49 -57l-60 -31l-164 -18l-73 10l-84 47l-51 64l-21 57l-16 129l-4 283zM141 1348l47 63 l19 12h72l45 -12l26 -35v-37l-18 -22l18 -43l-41 -35h-16l-21 -27l-88 17l-8 31l-29 32zM256 846l8 -27l2 -170l166 -2l64 8l-9 176l-16 123l-12 17l-33 26l-76 9l-14 -7l-60 -57l-8 -31zM272 492l4 -158l9 -129l45 -64l57 -24l49 8l68 55l10 45l-8 19l-4 237h-72l-111 4z M414 1305v59l26 41l17 16h88l41 -8l16 -8l27 -49l8 -23l-4 -78l-17 -26h-41l-38 -27l-50 8l-34 19l-25 31z" />
<glyph unicode="&#x4ec;" horiz-adv-x="819" d="M98 844l8 59l13 27l12 39l-4 4l37 59l102 70l41 14h31l6 4l59 13l33 -13l10 8l27 -16h31l41 -31l18 -6h12l5 -10l45 -33l28 -31l35 -98l10 -63l11 -197l4 -223l6 -12l-6 -33l-4 -205l-25 -64l-12 -12v-20l-25 -27l-51 -45l-12 4l-29 -20l-37 -13h-14l-12 -6h-33l-6 -14 l-29 8l-21 -8h-12v8l-59 6l-68 35l-20 4l-62 68l-37 67l7 13l-21 45l12 22l2 41l19 31l39 26l51 -6l33 -22l45 -72l20 -65l23 -23l84 -12l37 12l36 51l15 47l-2 29l8 29l-16 32l6 140l-29 22l-125 4l-78 -16l-61 16l-19 54l13 53l49 41l106 10l25 2l92 -8l16 37l-8 41 l-6 121l-6 12l-8 8v39l-25 35l-47 26l-80 5l-35 -13l-22 -28l-21 -56v-53l-16 -37l-43 -22h-61l-27 22l-16 35zM141 1348l47 63l19 12h72l45 -12l26 -35v-37l-18 -22l18 -43l-41 -35h-16l-21 -27l-88 17l-8 31l-29 32zM414 1305v59l26 41l17 16h88l41 -8l16 -8l27 -49l8 -23 l-4 -78l-17 -26h-41l-38 -27l-50 8l-34 19l-25 31z" />
<glyph unicode="&#x4ed;" horiz-adv-x="802" d="M104 838v71l21 27l8 55l35 51l108 66l127 22l70 -10l39 -12l35 -27l24 -4l56 -47l30 -43l31 -102l12 -62l5 -340v-274l-25 -78l-14 -25v-12l-76 -69l-86 -31l-23 -8h-24l-13 -9l-125 13l-77 43l-66 73l-29 52l-10 69l19 68l12 20l39 19h47l35 -27l51 -96l16 -41l35 -23 l82 -6l27 17l41 67l2 92l-11 21v137l-26 12l-232 -8l-53 33v39l-10 24l59 64l242 10l8 10l4 97l-12 98l-23 68l-47 32l-84 9l-43 -15l-34 -63l-5 -66l-10 -26l-45 -33h-65l-27 18zM141 1348l47 63l19 12h72l45 -12l26 -35v-37l-18 -22l18 -43l-41 -35h-16l-21 -27l-88 17 l-8 31l-29 32zM414 1305v59l26 41l17 16h88l41 -8l16 -8l27 -49l8 -23l-4 -78l-17 -26h-41l-38 -27l-50 8l-34 19l-25 31z" />
<glyph unicode="&#x4ee;" horiz-adv-x="772" d="M102 1022v70l45 38l50 13l59 -31l35 -55l33 -107l16 -39l8 -57l14 -37l29 -106l6 -6l11 6l41 151l28 66l23 78l61 127l29 22l41 -2l24 -18l17 -23l-8 -57l-29 -74l-12 -49l-21 -53l-12 -17l-10 -82l-21 -35l-6 -32l-82 -213l-22 -115l-39 -49l-84 -236l-45 -94l-54 -37 l-32 -12l-56 33l-14 37l4 39l94 219l49 125l31 79l-63 213l-21 19v24l-31 105l-16 47l-25 80l-12 14h-4l-8 13zM106 1257v72l23 31l45 8l217 -4l230 4l30 -4l19 -25l6 -49l-17 -55l-55 -39l-266 2l-70 16l-18 -8l-14 13l-68 -15l-39 15z" />
<glyph unicode="&#x4ef;" horiz-adv-x="774" d="M102 -4l4 35l99 233l45 88l51 158l-43 139l-51 148l-21 59l-8 25l4 4l-41 108l-12 8l-27 27l4 72l27 24l29 9l4 -5l24 13h11l45 -29l41 -43l35 -117l10 -12l14 -70l23 -77l8 -37l16 -51h13l20 45l2 43l12 20l52 115l22 67l64 133l26 21l41 -2l25 -12l24 -33v-23l-47 -102 l-12 -41l-19 -45l-10 -17l-20 -92l-33 -63l-4 -29l-21 -33l-43 -114l-18 -21l-12 -45l-25 -39l-72 -207l-34 -45l-35 -90l-49 -106l-35 -39l-29 2l-55 27zM106 1257v72l23 31l45 8l217 -4l230 4l30 -4l19 -25l6 -49l-17 -55l-55 -39l-266 2l-70 16l-18 -8l-14 13l-68 -15 l-39 15z" />
<glyph unicode="&#x4f0;" horiz-adv-x="772" d="M102 1022v70l45 38l50 13l59 -31l35 -55l33 -107l16 -39l8 -57l14 -37l29 -106l6 -6l11 6l41 151l28 66l23 78l61 127l29 22l41 -2l24 -18l17 -23l-8 -57l-29 -74l-12 -49l-21 -53l-12 -17l-10 -82l-21 -35l-6 -32l-82 -213l-22 -115l-39 -49l-84 -236l-45 -94l-54 -37 l-32 -12l-56 33l-14 37l4 39l94 219l49 125l31 79l-63 213l-21 19v24l-31 105l-16 47l-25 80l-12 14h-4l-8 13zM186 1348l47 63l19 12h72l45 -12l26 -35v-37l-18 -22l18 -43l-41 -35h-16l-21 -27l-88 17l-8 31l-28 32zM459 1305v59l26 41l17 16h88l41 -8l16 -8l27 -49l8 -23 l-4 -78l-16 -26h-41l-39 -27l-50 8l-34 19l-25 31z" />
<glyph unicode="&#x4f1;" horiz-adv-x="774" d="M102 -4l4 35l99 233l45 88l51 158l-43 139l-51 148l-21 59l-8 25l4 4l-41 108l-12 8l-27 27l4 72l27 24l29 9l4 -5l24 13h11l45 -29l41 -43l35 -117l10 -12l14 -70l23 -77l8 -37l16 -51h13l20 45l2 43l12 20l52 115l22 67l64 133l26 21l41 -2l25 -12l24 -33v-23l-47 -102 l-12 -41l-19 -45l-10 -17l-20 -92l-33 -63l-4 -29l-21 -33l-43 -114l-18 -21l-12 -45l-25 -39l-72 -207l-34 -45l-35 -90l-49 -106l-35 -39l-29 2l-55 27zM125 1348l47 63l18 12h72l45 -12l27 -35v-37l-19 -22l19 -43l-41 -35h-17l-20 -27l-88 17l-8 31l-29 32zM397 1305v59 l27 41l16 16h88l41 -8l17 -8l26 -49l9 -23l-5 -78l-16 -26h-41l-39 -27l-49 8l-35 19l-24 31z" />
<glyph unicode="&#x4f2;" horiz-adv-x="772" d="M102 1022v70l45 38l50 13l59 -31l35 -55l33 -107l16 -39l8 -57l14 -37l29 -106l6 -6l11 6l41 151l28 66l23 78l61 127l29 22l41 -2l24 -18l17 -23l-8 -57l-29 -74l-12 -49l-21 -53l-12 -17l-10 -82l-21 -35l-6 -32l-82 -213l-22 -115l-39 -49l-84 -236l-45 -94l-54 -37 l-32 -12l-56 33l-14 37l4 39l94 219l49 125l31 79l-63 213l-21 19v24l-31 105l-16 47l-25 80l-12 14h-4l-8 13zM188 1339l9 21l28 24l78 33l14 17l21 14l16 10l49 33l48 22l20 -2l35 -26l6 -60l-55 -51l-21 -20l-55 -23l-4 -14l-21 -12l-57 -39l-31 -19l-20 4l-23 31l-22 14 zM449 1284l34 62l21 4l43 32l47 31l8 23l64 43l36 4l21 -4l22 -31l23 -14l14 -43l-8 -21l-29 -24l-77 -33l-15 -17l-20 -14l-17 -10l-49 -33l-47 -22l-20 2l-35 26z" />
<glyph unicode="&#x4f3;" horiz-adv-x="774" d="M102 -4l4 35l99 233l45 88l51 158l-43 139l-51 148l-21 59l-8 25l4 4l-41 108l-12 8l-27 27l4 72l27 24l29 9l4 -5l24 13h11l45 -29l41 -43l35 -117l10 -12l14 -70l23 -77l8 -37l16 -51h13l20 45l2 43l12 20l52 115l22 67l64 133l26 21l41 -2l25 -12l24 -33v-23l-47 -102 l-12 -41l-19 -45l-10 -17l-20 -92l-33 -63l-4 -29l-21 -33l-43 -114l-18 -21l-12 -45l-25 -39l-72 -207l-34 -45l-35 -90l-49 -106l-35 -39l-29 2l-55 27zM188 1337l9 21l28 24l78 33l14 17l21 14l16 10l49 33l48 22l20 -2l35 -26l6 -60l-55 -51l-21 -20l-55 -23l-4 -14 l-21 -12l-57 -39l-31 -19l-20 4l-23 31l-22 14zM449 1282l34 61l21 5l43 32l47 31l8 23l64 43l36 4l21 -4l22 -31l23 -14l14 -43l-8 -21l-29 -25l-77 -32l-15 -17l-20 -14l-17 -10l-49 -33l-47 -23l-20 3l-35 26z" />
<glyph unicode="&#x4f4;" horiz-adv-x="772" d="M106 627l35 -123l47 -64l97 -55l98 -12l106 16l27 23l14 -13l-2 -45l-12 -53v-94l-20 -74v-45l12 -45l12 -39l41 -31l37 9l37 28l29 78l4 143l-4 316l8 131l-4 350l-29 55l-51 29l-15 6l-32 -8l-35 -29v-20l10 -60l-10 -67l14 -27l-8 -20l14 -49v-238l-65 -70l-58 -22 l-63 -4l-41 28l-29 50l-18 80l8 116l-4 221v54l-16 37l-43 22h-62l-26 -22l12 -48l-6 -116l-2 -213v-25l8 -14zM141 1348l47 63l19 12h72l45 -12l26 -35v-37l-18 -22l18 -43l-41 -35h-16l-21 -27l-88 17l-8 31l-29 32zM414 1305v59l26 41l17 16h88l41 -8l16 -8l27 -49l8 -23 l-4 -78l-17 -26h-41l-38 -27l-50 8l-34 19l-25 31z" />
<glyph unicode="&#x4f5;" horiz-adv-x="784" d="M111 1085l6 -135l4 -102l12 -49l-4 -4l-4 -2l-8 -142l12 -51l-8 -12l16 -47l29 -47l33 -21l16 -27l33 -12l45 -20l39 -29h10l31 8l26 -16l15 8h67l49 29l5 -15l-9 -6l9 -88l-9 -31l15 -41v-208l43 -31l65 6l51 25v45l-8 163v66l-14 231l-6 60v65l-6 144l10 26l8 70l-6 53 v51l10 78l-16 31l-66 39l-86 -66l-10 -20l10 -70l2 -131l13 -55l10 -129l-8 -6l6 -15l-13 -30l-10 -25l-45 -51l-41 -14h-59l-70 26l-8 17v32l-12 21v170v26l6 50l2 45l8 41l-20 12v12l10 8h2l8 54l-16 49l-41 32l-54 7l-24 -7zM141 1348l47 63l19 12h72l45 -12l26 -35v-37 l-18 -22l18 -43l-41 -35h-16l-21 -27l-88 17l-8 31l-29 32zM414 1305v59l26 41l17 16h88l41 -8l16 -8l27 -49l8 -23l-4 -78l-17 -26h-41l-38 -27l-50 8l-34 19l-25 31z" />
<glyph unicode="&#x4f6;" horiz-adv-x="718" d="M104 997l11 33v51l30 39l27 15l303 6l66 -13l49 -30l20 -29l4 -41l-16 -43l-82 -24l-20 8h-127l-29 16l-51 -24l2 -97v-129l8 -8l-4 -109v-32l4 -29v-31l-4 -133l8 -31l-8 -26l16 -176l-12 -62l2 -6l14 -4l39 -45l-12 -74l-4 -28l-31 -52l6 -14l-8 -22l-22 -66l-15 -33 l-18 -8l-37 10l-27 -2l-36 25l-7 22l9 37l43 74v20l8 25l6 18l10 31l-10 2h-8l-35 -12l-31 39l-10 41l-6 63v45l12 41l-6 11l2 112v62l8 36l-10 119l10 84l-10 33l2 158l-8 12l-4 39l-4 92z" />
<glyph unicode="&#x4f7;" horiz-adv-x="722" d="M98 1001l13 37l6 47l33 41l38 13h236l117 -13l39 -16l36 -35l5 -74l-13 -22l-47 -16l-125 4l-51 4l-37 8l-39 -8l-24 -25l8 -92l8 -186l-12 -66l12 -70l-8 -20l4 -141v-82l4 -176l-12 -39l12 -6l27 2l37 -25l6 -22l-9 -37l-43 -74v-21l-8 -24l-8 -19l-18 -55l-25 -45 l-16 -12h-45l-35 22l-10 70l14 14l14 54l19 53l-6 22l10 31l-12 2l-35 -10l-41 51v31l-8 16l8 105l4 231l-4 152l8 22v57l-4 125l-10 99l-2 80z" />
<glyph unicode="&#x4f8;" horiz-adv-x="1071" d="M90 74l6 170v143l-6 68l8 20l-8 41l6 49v158l2 82l4 82l-4 155l41 66h13l20 -4l49 8l8 -8l37 -33l25 -82l-8 -65v-58l-9 -32l-4 -70l-10 -21v-116l21 -27h14l45 8l86 13l102 -15l115 -76l45 -81l12 -62l13 -63l-13 -25l9 -27l-29 -104l-66 -111l-122 -65l-78 -17l-21 9 l-37 -9l-12 9h-172l-49 24l-27 41zM262 176l4 -26l17 -11l53 2h49h29l24 19l37 8l62 70l16 45l-12 110l-21 29l-16 12l-41 8l-37 23l-53 -10l-62 14h-16l-21 -20v-76l-4 -183zM279 1348l47 63l18 12h72l45 -12l26 -35v-37l-18 -22l18 -43l-41 -35h-16l-20 -27l-88 17l-9 31 l-28 32zM551 1305v59l27 41l16 16h88l41 -8l16 -8l27 -49l8 -23l-4 -78l-16 -26h-41l-39 -27l-49 8l-35 19l-25 31zM801 1059v45l51 24l66 7l43 -31v-209l12 -41l-8 -31l-2 -499l12 -56v-131l10 -69l-10 -21l-86 -65l-66 38l-16 31l10 78v51l-6 53l10 70l10 27l-6 143v66 l-4 59l-14 231l2 66z" />
<glyph unicode="&#x4f9;" horiz-adv-x="1067" d="M113 154l6 24l6 131v41l-6 21v47l6 35l-12 65l12 27l-8 35l-4 53l4 35l2 108l8 41l-10 35l2 68l-6 51l4 84l18 12l4 23l49 36l48 -8l43 -39l14 -32l-6 -84l-8 -56l8 -12l-8 -25v-73l6 -45l-11 -13v-80l21 -34l16 -13h25l80 9l96 -21l61 -29l80 -69l37 -64v-20l6 -12 l15 -93l-6 -82l-15 -45l-45 -96l-12 -8l-19 -27l-88 -41l-135 -22h-59l-121 -2l-74 16l-12 27v47zM274 340l5 -186l12 -17l145 6l58 31l41 16l36 56l7 98l-15 45l-20 35l-6 16l-74 33l-68 10l-63 -2l-25 -8l-12 -20l-12 -95zM299 1348l47 63l19 12h71l45 -12l27 -35v-37 l-19 -22l19 -43l-41 -35h-16l-21 -27l-88 17l-8 31l-29 32zM571 1305v59l27 41l16 16h88l41 -8l17 -8l26 -49l9 -23l-4 -78l-17 -26h-41l-39 -27l-49 8l-35 19l-24 31zM809 416l8 131l-4 315l4 144l29 77l37 29l37 8l53 -28v-41l12 -45v-45l-4 -46l-8 -290l-4 -9l-15 -43 l11 -20l-11 -59l21 -84l-10 -35l10 -25l-6 -143l2 -31l4 -16l-10 -68l10 -59v-21l-35 -28l-33 -9l-14 7l-51 28l-29 56z" />
<glyph unicode="&#x4fe;" horiz-adv-x="1024" d="M487 700l9 52l43 36l127 9l108 6l17 -8h2l18 -66l-4 -47l-39 -47l-31 -17l-26 9l-64 8l-43 -12l-6 8l-55 2l-47 20zM494 1001v72l22 31l45 8l217 -4h13l18 -25l6 -49l-16 -55l-56 -39l-18 2l-70 16l-18 -8l-14 13l-68 -13l-39 13z" />
<glyph unicode="&#x4ff;" horiz-adv-x="1024" d="M481 -207l8 37l41 74l2 20l9 25l6 18l20 56l25 47l16 10h45l41 -45l-14 -74l-4 -29l-31 -51l6 -14l-10 -23l-23 -65l-12 -33l-18 -8l-37 10l-27 -2l-39 27zM719 -45l14 14l15 54l18 51l-6 24l24 72l27 25l18 10l37 -12l27 4l37 -27l6 -20l-8 -37l-43 -74v-23l-8 -22 l-9 -19l-18 -55l-25 -47l-18 -10h-43l-37 20z" />
<glyph unicode="&#x2000;" horiz-adv-x="756" />
<glyph unicode="&#x2001;" horiz-adv-x="1513" />
<glyph unicode="&#x2002;" horiz-adv-x="756" />
<glyph unicode="&#x2003;" horiz-adv-x="1513" />
<glyph unicode="&#x2004;" horiz-adv-x="504" />
<glyph unicode="&#x2005;" horiz-adv-x="378" />
<glyph unicode="&#x2006;" horiz-adv-x="252" />
<glyph unicode="&#x2007;" horiz-adv-x="252" />
<glyph unicode="&#x2008;" horiz-adv-x="189" />
<glyph unicode="&#x2009;" horiz-adv-x="302" />
<glyph unicode="&#x200a;" horiz-adv-x="84" />
<glyph unicode="&#x2010;" horiz-adv-x="786" d="M102 598l13 53l49 41l106 10l25 3l330 -9l59 -63l-10 -25v-39l-53 -32l-232 8l-207 -17l-61 17z" />
<glyph unicode="&#x2011;" horiz-adv-x="786" d="M102 598l13 53l49 41l106 10l25 3l330 -9l59 -63l-10 -25v-39l-53 -32l-232 8l-207 -17l-61 17z" />
<glyph unicode="&#x2012;" horiz-adv-x="786" d="M102 598l13 53l49 41l106 10l25 3l330 -9l59 -63l-10 -25v-39l-53 -32l-232 8l-207 -17l-61 17z" />
<glyph unicode="&#x2013;" horiz-adv-x="1085" d="M53 553l4 12l17 8l22 25l10 4h74l13 4l20 -10l35 8l55 -2l2 4l19 -10l79 4l25 -6l12 4h68l24 8l17 4l26 -6l15 8l35 -6l114 6l39 -6l90 8l43 -8l54 6l32 -6l31 -31l10 -20l9 -29l-5 -39l-18 -18l-35 -12l-10 6l-209 -12l-88 8l-289 -4l-18 -6l-41 2l-244 2l-16 22l-8 37 v8l-5 6l-2 23z" />
<glyph unicode="&#x2014;" horiz-adv-x="1355" d="M-78 494l10 63l15 25l39 10l293 -2l112 -8l490 2l26 -4l207 -2l80 4l170 -9l33 -18l12 -39l-8 -29l-27 -34l-24 -9l-129 5l-52 -7h-55l-20 4l-111 -16l-82 6l-33 -8l-43 6l-143 -2l-29 10l-53 -6l-53 6l-254 -12l-60 16l-112 -4l-137 7l-54 18z" />
<glyph unicode="&#x2018;" horiz-adv-x="387" d="M68 811l12 27l4 34l2 29l45 105l66 112l43 19l32 -4l19 -27l-31 -119l8 -104l6 -21l7 -31l-2 -22v-31l-23 -28l-10 -23l-56 -39l-30 2l-33 -6l-21 12l-18 33z" />
<glyph unicode="&#x2019;" horiz-adv-x="389" d="M90 727l12 72l-2 10l21 84l-4 55l2 23l-15 86l19 55l10 25l43 22l31 -4l49 -6l18 -10l21 -33l12 -84l-10 -25l-10 -22l6 -29l-60 -127l-57 -88l-39 -20l-31 4z" />
<glyph unicode="&#x201a;" horiz-adv-x="460" d="M100 -156l13 72l10 45l24 49l-4 56l2 22l-14 86l19 55l10 25l43 22l30 -4l50 -6l18 -10l27 -33l20 -84l-10 -24l-25 -23l6 -29l-59 -110l-70 -105l-43 -20l-30 4z" />
<glyph unicode="&#x201c;" horiz-adv-x="659" d="M70 811l12 27l12 34l-8 29l55 105l66 112l43 19l33 -4l18 -27l-31 -119l2 -104l7 -21l6 -31l-2 -22v-31l-31 -28l-10 -23l-41 -39l-31 2l-33 -6l-20 12l-27 33zM362 817l11 27l10 51l68 152l77 81l43 21l17 -8l14 -29l-12 -70l-10 -45l-39 -77l8 -39l-2 -23l35 -74 l-19 -57l-10 -22l-53 -23l-80 8l-37 45z" />
<glyph unicode="&#x201d;" horiz-adv-x="659" d="M76 731l6 41l14 102l2 76l-8 29l-12 49l14 62l31 55l33 16l49 6l8 -14l68 -29l34 -73l-18 -84l-37 -68l-2 -20l-55 -78l-27 -33l-6 -10l-31 -66l-30 -4l-23 21zM373 741l8 56l6 28l19 84l2 43l-27 52v61l22 35l43 35l31 2l21 14l41 -6l55 -62l10 -22l-6 -41l-8 -47l2 -23 l-64 -114l-8 -21l-33 -55l-18 -37l-35 -27l-24 -10l-31 19z" />
<glyph unicode="&#x201e;" horiz-adv-x="659" d="M61 -152l7 41l28 103l17 63l-23 41l-6 49l14 62l25 55l33 17l49 6l8 -15l68 -28l34 -74l-18 -84l-37 -70l-2 -20l-55 -78l-27 -31l-20 -12l-31 -63l-31 -5l-22 19zM360 -141l21 55l6 29l31 100l-10 25l-27 53l10 61l21 11l34 57l31 4l21 12l41 -4l55 -61l10 -23l-6 -43 l-8 -45l2 -22l-64 -115l-8 -21l-33 -55l-18 -37l-35 -26l-37 -11l-30 19z" />
<glyph unicode="&#x2022;" horiz-adv-x="608" d="M100 485l11 97l24 69l76 56l131 41l59 -9h23l18 -32l31 -15l59 -160v-81l17 -25l-60 -84l-40 -23h-48l-34 -43l-185 25l-65 49z" />
<glyph unicode="&#x2026;" horiz-adv-x="1359" d="M104 96l5 88l20 43l47 25l80 -10l47 -25l25 -80l-13 -88l-82 -84l-49 -8l-24 8l-23 23l-2 57zM526 135l58 74l22 16h88l54 -16l32 -41v-45l-20 -27l20 -53l-47 -41h-20l-27 -31l-106 19l-11 39l-34 37zM971 115v73l33 48l20 20h106l50 -8l22 -12l31 -60l10 -26l-6 -95 l-20 -30h-50l-45 -35l-61 12l-41 23l-31 36z" />
<glyph unicode="&#x202f;" horiz-adv-x="302" />
<glyph unicode="&#x2039;" horiz-adv-x="653" d="M74 510l4 10l-2 2l6 43l35 39l188 162l197 178l26 19l27 -7l29 -32l10 -58l-29 -75l-231 -201l-55 -47l-7 -19l4 -18l144 -119l84 -57l96 -72l6 -14l8 -8l-12 -68l-24 -35l-56 -12l-33 6l-143 123l-94 84l-84 78l-27 16l-37 31z" />
<glyph unicode="&#x203a;" horiz-adv-x="659" d="M76 221l8 8l6 29l98 72l84 57l146 119l4 18l-4 19l-58 47l-233 201l-31 75l13 58l26 32l29 7l26 -19l199 -178l191 -162l34 -39l9 -35l-2 -10l2 -10l-31 -51l-37 -31l-27 -16l-84 -78l-96 -84l-143 -123l-35 -6l-55 12l-25 35z" />
<glyph unicode="&#x205f;" horiz-adv-x="378" />
<glyph unicode="&#x20ac;" horiz-adv-x="763" d="M53 436l10 31l43 39l29 10l4 10l-2 74l-2 4h-12l-39 12l-25 41v56l25 30l45 7l6 12v55l-8 12l12 33v41l4 58l13 24l-9 21l29 16l33 41l78 45l98 20l82 -4l45 -8h12l29 -20l27 -9l71 -77l17 -41l14 -66l6 -16l-16 -66l-37 -24h-45l-58 61l-4 33l-16 37l-33 41l-65 12 l-62 -8l-28 -21l-21 -41l4 -163l164 -3l31 -4l18 -24l6 -29l-16 -57l-55 -41l-138 4l-6 -10l4 -33l7 -31l18 -14l115 10h28l19 -8h2l18 -66l-4 -28l-41 -49l-31 -19l-108 10l-16 -16l2 -113l28 -45l45 -28l58 -19l65 23l33 45l4 47l8 14v37l29 41l20 10h37l33 -20l29 -35 l-8 -123l-37 -80l-86 -76l-136 -34l-106 26l-61 15l-70 55l-12 24l-33 21v53l-17 45l-8 123l-6 16l-22 5l-48 20z" />
<glyph unicode="&#x2122;" horiz-adv-x="1044" d="M96 1059l17 31l43 30l86 -4l8 6l33 -6l8 4l71 -6h46l24 -14l27 -33l-2 -43l-8 -23l-31 -14l-62 -2l-18 -16l4 -35v-113l4 -125v-30l6 -19v-104l-10 -39l4 -39l-43 -39l-27 4l-16 14l-16 2l-29 17l-12 43v43l2 18l6 19l-6 30l6 13l-2 14l6 55l-6 11l6 14l-4 55l4 35v121 v45l-14 18l-25 -6h-39l-35 25zM502 954l8 21l-8 22l4 27v33l16 30l29 21l33 8l57 -37l10 -18l2 -43l15 -47l20 -111l8 -8l6 -31l11 -18l18 -2l6 26l6 15l5 41l6 16l6 47l8 17l2 18l4 4v16l8 39l11 39l18 25l37 18l47 -6l39 -45l4 -70l-4 -24l4 -10v-39l-2 -17v-223l4 -115 l-2 -43l-2 -41l-18 -26l-25 -14l-59 4l-13 26l-8 10l-4 35v17l4 24l-4 8l-10 -36l-4 -33l-4 -4v-29l-33 -27l-41 -2l-33 25l-14 27v20l-8 43l-25 111l-10 -11l2 -20l8 -31l4 -106l-6 -41l-35 -19h-51l-39 45l-6 43l6 43l-4 11l6 24l-4 76v23l4 10l-6 26l8 68l-2 55l-4 68v14 z" />
<glyph unicode="&#xe000;" horiz-adv-x="1157" d="M0 0v1157h1157v-1157h-1157z" />
</font>
</defs>
</svg>
